<?xml version="1.0" encoding="UTF-8" standalone="no"?>
<!DOCTYPE svg PUBLIC "-//W3C//DTD SVG 1.1//EN" "http://www.w3.org/Graphics/SVG/1.1/DTD/svg11.dtd">
<svg width="100%" height="100%" viewBox="0 0 1182 1182" version="1.1" xmlns="http://www.w3.org/2000/svg" xmlns:xlink="http://www.w3.org/1999/xlink" xml:space="preserve" xmlns:serif="http://www.serif.com/" style="fill-rule:evenodd;clip-rule:evenodd;stroke-linecap:round;stroke-linejoin:round;stroke-miterlimit:1.5;">
    <g id="Hour-Dial" serif:id="Hour Dial">
        <g transform="matrix(0.663875,0,0,0.663875,287.012,332.911)">
            <circle cx="457.223" cy="388.085" r="614.353" style="fill:rgb(235,235,235);stroke:black;stroke-width:1.88px;"/>
        </g>
        <g id="Hour-Marks" serif:id="Hour Marks">
            <g transform="matrix(2.29916,0,0,2.29916,-756.458,-926.694)">
                <path d="M589.535,490.51C587.092,490.457 584.648,490.457 582.206,490.51L582.836,519.629C584.858,519.585 586.882,519.585 588.905,519.629L589.535,490.51ZM504.342,511.373C502.2,512.549 500.084,513.771 497.995,515.038L513.1,539.941C514.83,538.891 516.583,537.88 518.356,536.906L504.342,511.373ZM440.995,572.038C439.728,574.127 438.506,576.243 437.331,578.385L462.864,592.399C463.837,590.625 464.849,588.873 465.898,587.143L440.995,572.038ZM416.467,656.248C416.414,658.691 416.414,661.134 416.467,663.577L445.586,662.947C445.543,660.924 445.543,658.901 445.586,656.878L416.467,656.248ZM437.331,741.441C438.506,743.582 439.728,745.699 440.995,747.788L465.898,732.683C464.849,730.953 463.837,729.2 462.864,727.427L437.331,741.441ZM497.995,804.788C500.084,806.055 502.2,807.276 504.342,808.452L518.356,782.919C516.583,781.946 514.83,780.934 513.1,779.885L497.995,804.788ZM582.206,829.315C584.648,829.368 587.092,829.368 589.535,829.315L588.905,800.196C586.882,800.24 584.858,800.24 582.836,800.196L582.206,829.315ZM667.398,808.452C669.54,807.276 671.656,806.055 673.745,804.788L658.64,779.885C656.91,780.934 655.158,781.946 653.384,782.919L667.398,808.452ZM730.745,747.788C732.012,745.699 733.234,743.582 734.409,741.441L708.877,727.427C707.903,729.2 706.891,730.953 705.842,732.683L730.745,747.788ZM755.273,663.577C755.326,661.134 755.326,658.691 755.273,656.248L726.154,656.878C726.198,658.901 726.198,660.924 726.154,662.947L755.273,663.577ZM734.409,578.385C733.234,576.243 732.012,574.127 730.745,572.038L705.842,587.143C706.891,588.873 707.903,590.625 708.877,592.399L734.409,578.385ZM673.745,515.038C671.656,513.771 669.54,512.549 667.398,511.373L653.384,536.906C655.158,537.88 656.91,538.891 658.64,539.941L673.745,515.038Z"/>
            </g>
            <g transform="matrix(2.29916,0,0,2.29916,-756.458,-926.694)">
                <path d="M586.25,490.471C585.997,490.47 585.743,490.47 585.49,490.471L585.506,497.842C585.749,497.841 585.991,497.841 586.234,497.842L586.25,490.471ZM578.859,490.615C578.606,490.626 578.353,490.637 578.099,490.649L578.437,498.012C578.68,498.001 578.922,497.99 579.164,497.98L578.859,490.615ZM571.481,491.082C571.228,491.104 570.976,491.126 570.724,491.149L571.382,498.49C571.624,498.468 571.865,498.447 572.107,498.427L571.481,491.082ZM564.13,491.871C563.879,491.903 563.628,491.936 563.377,491.97L564.355,499.276C564.595,499.243 564.836,499.212 565.076,499.181L564.13,491.871ZM556.821,492.979C556.571,493.022 556.322,493.066 556.072,493.111L557.369,500.367C557.607,500.324 557.846,500.282 558.085,500.241L556.821,492.979ZM549.567,494.405C549.32,494.459 549.072,494.514 548.825,494.569L550.437,501.762C550.673,501.709 550.91,501.657 551.146,501.605L549.567,494.405ZM542.382,496.146C542.137,496.211 541.893,496.277 541.648,496.343L543.572,503.458C543.806,503.395 544.04,503.332 544.274,503.27L542.382,496.146ZM535.28,498.199C535.039,498.274 534.797,498.351 534.555,498.427L536.788,505.452C537.019,505.379 537.25,505.306 537.481,505.233L535.28,498.199ZM528.275,500.559C528.036,500.645 527.798,500.732 527.56,500.819L530.097,507.74C530.324,507.657 530.552,507.574 530.78,507.491L528.275,500.559ZM521.379,503.223C521.144,503.32 520.91,503.417 520.676,503.514L523.512,510.318C523.736,510.224 523.96,510.132 524.184,510.039L521.379,503.223ZM514.605,506.185C514.375,506.292 514.146,506.399 513.916,506.507L517.046,513.18C517.266,513.077 517.485,512.975 517.705,512.873L514.605,506.185ZM507.968,509.44C507.743,509.557 507.518,509.674 507.293,509.791L510.712,516.322C510.926,516.209 511.141,516.097 511.356,515.986L507.968,509.44ZM501.478,512.982C501.259,513.108 501.039,513.234 500.82,513.362L504.52,519.737C504.729,519.615 504.939,519.494 505.149,519.373L501.478,512.982ZM495.15,516.803C494.936,516.938 494.722,517.074 494.508,517.211L498.483,523.419C498.687,523.288 498.891,523.158 499.096,523.028L495.15,516.803ZM488.993,520.896C488.786,521.041 488.578,521.186 488.371,521.332L492.612,527.36C492.81,527.221 493.009,527.082 493.208,526.943L488.993,520.896ZM483.022,525.254C482.82,525.408 482.619,525.562 482.419,525.717L486.919,531.554C487.111,531.406 487.303,531.259 487.496,531.112L483.022,525.254ZM477.246,529.868C477.052,530.031 476.857,530.194 476.664,530.357L481.414,535.993C481.6,535.837 481.785,535.681 481.971,535.525L477.246,529.868ZM471.677,534.73C471.49,534.901 471.303,535.072 471.116,535.244L476.108,540.667C476.287,540.503 476.465,540.339 476.645,540.176L471.677,534.73ZM466.325,539.83C466.146,540.009 465.966,540.188 465.788,540.368L471.011,545.568C471.182,545.396 471.354,545.225 471.526,545.054L466.325,539.83ZM461.201,545.159C461.03,545.346 460.858,545.532 460.688,545.72L466.133,550.687C466.297,550.508 466.46,550.329 466.624,550.151L461.201,545.159ZM456.314,550.706C456.151,550.9 455.988,551.094 455.826,551.289L461.483,556.014C461.638,555.828 461.794,555.642 461.95,555.457L456.314,550.706ZM451.674,556.461C451.519,556.662 451.365,556.863 451.211,557.064L457.069,561.539C457.216,561.346 457.364,561.154 457.512,560.962L451.674,556.461ZM447.289,562.413C447.144,562.621 446.998,562.828 446.853,563.036L452.901,567.25C453.039,567.052 453.178,566.853 453.318,566.655L447.289,562.413ZM443.168,568.551C443.032,568.764 442.896,568.978 442.76,569.192L448.985,573.139C449.115,572.934 449.245,572.729 449.376,572.525L443.168,568.551ZM439.319,574.862C439.192,575.082 439.065,575.301 438.939,575.521L445.331,579.192C445.451,578.982 445.573,578.772 445.694,578.562L439.319,574.862ZM435.749,581.336C435.631,581.56 435.514,581.785 435.398,582.01L441.943,585.399C442.055,585.184 442.167,584.969 442.279,584.754L435.749,581.336ZM432.464,587.959C432.357,588.188 432.249,588.418 432.143,588.648L438.83,591.748C438.932,591.528 439.035,591.308 439.138,591.089L432.464,587.959ZM429.472,594.719C429.374,594.953 429.277,595.187 429.181,595.421L435.997,598.227C436.089,598.003 436.182,597.779 436.275,597.555L429.472,594.719ZM426.777,601.603C426.689,601.841 426.603,602.079 426.517,602.317L433.449,604.823C433.531,604.595 433.614,604.367 433.697,604.139L426.777,601.603ZM424.385,608.598C424.308,608.839 424.232,609.081 424.156,609.323L431.191,611.524C431.263,611.292 431.336,611.061 431.41,610.83L424.385,608.598ZM422.3,615.691C422.234,615.935 422.168,616.18 422.103,616.425L429.227,618.317C429.29,618.083 429.352,617.848 429.416,617.614L422.3,615.691ZM420.527,622.868C420.471,623.115 420.417,623.362 420.362,623.61L427.562,625.189C427.614,624.952 427.666,624.716 427.719,624.479L420.527,622.868ZM419.068,630.115C419.024,630.364 418.98,630.614 418.936,630.864L426.198,632.127C426.24,631.889 426.282,631.65 426.324,631.411L419.068,630.115ZM417.927,637.419C417.894,637.67 417.861,637.922 417.828,638.173L425.138,639.119C425.169,638.878 425.201,638.638 425.233,638.398L417.927,637.419ZM417.106,644.766C417.083,645.019 417.061,645.271 417.04,645.523L424.384,646.149C424.405,645.908 424.426,645.666 424.447,645.425L417.106,644.766ZM416.606,652.142C416.594,652.395 416.583,652.648 416.573,652.901L423.937,653.206C423.947,652.964 423.958,652.722 423.969,652.48L416.606,652.142ZM416.428,659.533C416.428,659.786 416.428,660.039 416.428,660.293L423.799,660.276C423.799,660.034 423.799,659.791 423.799,659.549L416.428,659.533ZM416.573,666.924C416.583,667.177 416.594,667.43 416.606,667.683L423.969,667.345C423.958,667.103 423.947,666.861 423.937,666.619L416.573,666.924ZM417.04,674.302C417.061,674.554 417.083,674.807 417.106,675.059L424.447,674.4C424.426,674.159 424.405,673.917 424.384,673.676L417.04,674.302ZM417.828,681.652C417.861,681.904 417.894,682.155 417.927,682.406L425.233,681.428C425.201,681.187 425.169,680.947 425.138,680.707L417.828,681.652ZM418.936,688.962C418.98,689.211 419.024,689.461 419.068,689.71L426.324,688.414C426.282,688.175 426.24,687.937 426.198,687.698L418.936,688.962ZM420.362,696.216C420.417,696.463 420.471,696.71 420.527,696.958L427.719,695.346C427.666,695.11 427.614,694.873 427.562,694.636L420.362,696.216ZM422.103,703.4C422.168,703.645 422.234,703.89 422.3,704.135L429.416,702.211C429.352,701.977 429.29,701.743 429.227,701.509L422.103,703.4ZM424.156,710.502C424.232,710.744 424.308,710.986 424.385,711.227L431.41,708.995C431.336,708.764 431.263,708.533 431.191,708.302L424.156,710.502ZM426.517,717.508C426.603,717.746 426.689,717.984 426.777,718.222L433.697,715.686C433.614,715.458 433.531,715.231 433.449,715.003L426.517,717.508ZM429.181,724.404C429.277,724.638 429.374,724.873 429.472,725.106L436.275,722.27C436.182,722.047 436.089,721.823 435.997,721.599L429.181,724.404ZM432.143,731.177C432.249,731.407 432.357,731.637 432.464,731.866L439.138,728.736C439.035,728.517 438.932,728.297 438.83,728.077L432.143,731.177ZM435.398,737.815C435.514,738.04 435.631,738.265 435.749,738.489L442.279,735.071C442.167,734.856 442.055,734.641 441.943,734.426L435.398,737.815ZM438.939,744.304C439.065,744.524 439.192,744.744 439.319,744.963L445.694,741.263C445.573,741.053 445.451,740.843 445.331,740.633L438.939,744.304ZM442.76,750.633C442.896,750.847 443.032,751.061 443.168,751.274L449.376,747.3C449.245,747.096 449.115,746.891 448.985,746.687L442.76,750.633ZM446.853,756.789C446.998,756.997 447.144,757.205 447.289,757.412L453.318,753.171C453.178,752.972 453.039,752.774 452.901,752.575L446.853,756.789ZM451.211,762.761C451.365,762.962 451.519,763.163 451.674,763.364L457.512,758.864C457.364,758.672 457.216,758.479 457.069,758.287L451.211,762.761ZM455.826,768.537C455.988,768.731 456.151,768.925 456.314,769.119L461.95,764.368C461.794,764.183 461.638,763.997 461.483,763.811L455.826,768.537ZM460.688,774.106C460.858,774.293 461.03,774.48 461.201,774.666L466.624,769.674C466.46,769.496 466.297,769.317 466.133,769.138L460.688,774.106ZM465.788,779.457C465.966,779.637 466.146,779.816 466.325,779.995L471.526,774.771C471.354,774.6 471.182,774.429 471.011,774.257L465.788,779.457ZM471.116,784.582C471.303,784.753 471.49,784.924 471.677,785.095L476.645,779.65C476.465,779.486 476.287,779.322 476.108,779.158L471.116,784.582ZM476.664,789.468C476.857,789.632 477.052,789.795 477.246,789.957L481.971,784.3C481.785,784.145 481.6,783.989 481.414,783.833L476.664,789.468ZM482.419,794.109C482.619,794.263 482.82,794.418 483.022,794.571L487.496,788.714C487.303,788.566 487.111,788.419 486.919,788.271L482.419,794.109ZM488.371,798.493C488.578,798.639 488.786,798.785 488.993,798.929L493.208,792.882C493.009,792.743 492.81,792.604 492.612,792.465L488.371,798.493ZM494.508,802.614C494.722,802.751 494.936,802.887 495.15,803.023L499.096,796.797C498.891,796.668 498.687,796.537 498.483,796.407L494.508,802.614ZM500.82,806.464C501.039,806.591 501.259,806.718 501.478,806.844L505.149,800.452C504.939,800.331 504.729,800.21 504.52,800.088L500.82,806.464ZM507.293,810.034C507.518,810.152 507.743,810.269 507.968,810.385L511.356,803.839C511.141,803.728 510.926,803.616 510.712,803.504L507.293,810.034ZM513.916,813.319C514.146,813.426 514.375,813.533 514.605,813.64L517.705,806.953C517.485,806.851 517.266,806.748 517.046,806.645L513.916,813.319ZM520.676,816.311C520.91,816.409 521.144,816.506 521.379,816.602L524.184,809.786C523.96,809.694 523.736,809.601 523.512,809.508L520.676,816.311ZM527.56,819.006C527.798,819.093 528.036,819.18 528.275,819.266L530.78,812.334C530.552,812.252 530.324,812.169 530.097,812.085L527.56,819.006ZM534.555,821.398C534.797,821.475 535.039,821.551 535.28,821.627L537.481,814.592C537.25,814.519 537.019,814.447 536.788,814.373L534.555,821.398ZM541.648,823.483C541.893,823.549 542.137,823.614 542.382,823.679L544.274,816.555C544.04,816.493 543.806,816.43 543.572,816.367L541.648,823.483ZM548.825,825.256C549.072,825.311 549.32,825.366 549.567,825.42L551.146,818.221C550.91,818.169 550.673,818.116 550.437,818.063L548.825,825.256ZM556.072,826.714C556.322,826.759 556.571,826.803 556.821,826.846L558.085,819.585C557.846,819.543 557.607,819.501 557.369,819.458L556.072,826.714ZM563.377,827.855C563.628,827.889 563.879,827.922 564.13,827.955L565.076,820.645C564.836,820.613 564.595,820.582 564.355,820.55L563.377,827.855ZM570.724,828.677C570.976,828.699 571.228,828.721 571.481,828.743L572.107,821.399C571.865,821.378 571.624,821.357 571.382,821.335L570.724,828.677ZM578.099,829.177C578.353,829.188 578.606,829.199 578.859,829.21L579.164,821.845C578.922,821.835 578.68,821.825 578.437,821.814L578.099,829.177ZM585.49,829.355C585.743,829.355 585.997,829.355 586.25,829.355L586.234,821.984C585.991,821.984 585.749,821.984 585.506,821.984L585.49,829.355ZM592.881,829.21C593.134,829.199 593.388,829.188 593.641,829.177L593.303,821.814C593.061,821.825 592.818,821.835 592.576,821.845L592.881,829.21ZM600.259,828.743C600.512,828.721 600.764,828.699 601.017,828.677L600.358,821.335C600.116,821.357 599.875,821.378 599.633,821.399L600.259,828.743ZM607.61,827.955C607.861,827.922 608.112,827.889 608.364,827.855L607.385,820.55C607.145,820.582 606.904,820.613 606.664,820.645L607.61,827.955ZM614.919,826.846C615.169,826.803 615.418,826.759 615.668,826.714L614.371,819.458C614.133,819.501 613.894,819.543 613.655,819.585L614.919,826.846ZM622.173,825.42C622.42,825.366 622.668,825.311 622.915,825.256L621.304,818.063C621.067,818.116 620.83,818.169 620.594,818.221L622.173,825.42ZM629.358,823.679C629.603,823.614 629.847,823.549 630.092,823.483L628.168,816.367C627.934,816.43 627.7,816.493 627.466,816.555L629.358,823.679ZM636.46,821.627C636.702,821.551 636.943,821.475 637.185,821.398L634.952,814.373C634.721,814.447 634.49,814.519 634.259,814.592L636.46,821.627ZM643.465,819.266C643.704,819.18 643.942,819.093 644.18,819.006L641.643,812.085C641.416,812.169 641.188,812.252 640.96,812.334L643.465,819.266ZM650.362,816.602C650.596,816.506 650.83,816.409 651.064,816.311L648.228,809.508C648.004,809.601 647.78,809.694 647.556,809.786L650.362,816.602ZM657.135,813.64C657.365,813.533 657.594,813.426 657.824,813.319L654.694,806.645C654.474,806.748 654.255,806.851 654.035,806.953L657.135,813.64ZM663.773,810.385C663.998,810.269 664.222,810.152 664.447,810.034L661.029,803.504C660.814,803.616 660.599,803.728 660.384,803.839L663.773,810.385ZM670.262,806.844C670.482,806.718 670.701,806.591 670.92,806.464L667.22,800.088C667.011,800.21 666.801,800.331 666.591,800.452L670.262,806.844ZM676.591,803.023C676.805,802.887 677.018,802.751 677.232,802.614L673.257,796.407C673.053,796.537 672.849,796.668 672.644,796.797L676.591,803.023ZM682.747,798.929C682.955,798.785 683.162,798.639 683.369,798.493L679.128,792.465C678.93,792.604 678.731,792.743 678.532,792.882L682.747,798.929ZM688.718,794.571C688.92,794.418 689.121,794.263 689.321,794.109L684.821,788.271C684.629,788.419 684.437,788.566 684.244,788.714L688.718,794.571ZM694.494,789.957C694.689,789.795 694.883,789.632 695.076,789.468L690.326,783.833C690.14,783.989 689.955,784.145 689.769,784.3L694.494,789.957ZM700.063,785.095C700.25,784.924 700.437,784.753 700.624,784.582L695.632,779.158C695.453,779.322 695.275,779.486 695.096,779.65L700.063,785.095ZM705.415,779.995C705.594,779.816 705.774,779.637 705.952,779.457L700.729,774.257C700.558,774.429 700.386,774.6 700.214,774.771L705.415,779.995ZM710.539,774.666C710.711,774.48 710.882,774.293 711.053,774.106L705.607,769.138C705.444,769.317 705.28,769.496 705.116,769.674L710.539,774.666ZM715.426,769.119C715.589,768.925 715.752,768.731 715.914,768.537L710.257,763.811C710.102,763.997 709.946,764.183 709.79,764.368L715.426,769.119ZM720.066,763.364C720.221,763.163 720.375,762.962 720.529,762.761L714.671,758.287C714.524,758.479 714.376,758.672 714.228,758.864L720.066,763.364ZM724.451,757.412C724.597,757.205 724.742,756.997 724.887,756.789L718.839,752.575C718.701,752.774 718.562,752.972 718.422,753.171L724.451,757.412ZM728.572,751.274C728.708,751.061 728.845,750.847 728.98,750.633L722.755,746.687C722.625,746.891 722.495,747.096 722.364,747.3L728.572,751.274ZM732.421,744.963C732.548,744.744 732.675,744.524 732.801,744.304L726.409,740.633C726.289,740.843 726.168,741.053 726.046,741.263L732.421,744.963ZM735.991,738.489C736.109,738.265 736.226,738.04 736.342,737.815L729.797,734.426C729.685,734.641 729.573,734.856 729.461,735.071L735.991,738.489ZM739.276,731.866C739.384,731.637 739.491,731.407 739.597,731.177L732.91,728.077C732.808,728.297 732.706,728.517 732.603,728.736L739.276,731.866ZM742.269,725.106C742.366,724.873 742.463,724.638 742.559,724.404L735.743,721.599C735.651,721.823 735.558,722.047 735.465,722.27L742.269,725.106ZM744.963,718.222C745.051,717.984 745.137,717.746 745.223,717.508L738.291,715.003C738.209,715.231 738.126,715.458 738.043,715.686L744.963,718.222ZM747.355,711.227C747.432,710.986 747.508,710.744 747.584,710.502L740.549,708.302C740.477,708.533 740.404,708.764 740.331,708.995L747.355,711.227ZM749.44,704.135C749.506,703.89 749.572,703.645 749.637,703.4L742.513,701.509C742.451,701.743 742.388,701.977 742.325,702.211L749.44,704.135ZM751.213,696.958C751.269,696.71 751.324,696.463 751.378,696.216L744.178,694.636C744.126,694.873 744.074,695.11 744.021,695.346L751.213,696.958ZM752.672,689.71C752.716,689.461 752.76,689.211 752.804,688.962L745.542,687.698C745.5,687.937 745.458,688.175 745.416,688.414L752.672,689.71ZM753.813,682.406C753.846,682.155 753.88,681.904 753.912,681.652L746.602,680.707C746.571,680.947 746.539,681.187 746.507,681.428L753.813,682.406ZM754.634,675.059C754.657,674.807 754.679,674.554 754.7,674.302L747.356,673.676C747.335,673.917 747.314,674.159 747.293,674.4L754.634,675.059ZM755.134,667.683C755.146,667.43 755.157,667.177 755.167,666.924L747.803,666.619C747.793,666.861 747.782,667.103 747.771,667.345L755.134,667.683ZM755.312,660.293C755.313,660.039 755.313,659.786 755.312,659.533L747.941,659.549C747.942,659.791 747.942,660.034 747.941,660.276L755.312,660.293ZM755.167,652.901C755.157,652.648 755.146,652.395 755.134,652.142L747.771,652.48C747.782,652.722 747.793,652.964 747.803,653.206L755.167,652.901ZM754.7,645.523C754.679,645.271 754.657,645.019 754.634,644.766L747.293,645.425C747.314,645.666 747.335,645.908 747.356,646.149L754.7,645.523ZM753.912,638.173C753.88,637.922 753.846,637.67 753.813,637.419L746.507,638.398C746.539,638.638 746.571,638.878 746.602,639.119L753.912,638.173ZM752.804,630.864C752.76,630.614 752.716,630.364 752.672,630.115L745.416,631.411C745.458,631.65 745.5,631.889 745.542,632.127L752.804,630.864ZM751.378,623.61C751.324,623.362 751.269,623.115 751.213,622.868L744.021,624.479C744.074,624.716 744.126,624.952 744.178,625.189L751.378,623.61ZM749.637,616.425C749.572,616.18 749.506,615.935 749.44,615.691L742.325,617.614C742.388,617.848 742.451,618.083 742.513,618.317L749.637,616.425ZM747.584,609.323C747.508,609.081 747.432,608.839 747.355,608.598L740.331,610.83C740.404,611.061 740.477,611.292 740.549,611.524L747.584,609.323ZM745.223,602.317C745.137,602.079 745.051,601.841 744.963,601.603L738.043,604.139C738.126,604.367 738.209,604.595 738.291,604.823L745.223,602.317ZM742.559,595.421C742.463,595.187 742.366,594.953 742.269,594.719L735.465,597.555C735.558,597.779 735.651,598.003 735.743,598.227L742.559,595.421ZM739.597,588.648C739.491,588.418 739.384,588.188 739.276,587.959L732.603,591.089C732.706,591.308 732.808,591.528 732.91,591.748L739.597,588.648ZM736.342,582.01C736.226,581.785 736.109,581.56 735.991,581.336L729.461,584.754C729.573,584.969 729.685,585.184 729.797,585.399L736.342,582.01ZM732.801,575.521C732.675,575.301 732.548,575.082 732.421,574.862L726.046,578.562C726.168,578.772 726.289,578.982 726.409,579.192L732.801,575.521ZM728.98,569.192C728.845,568.978 728.708,568.764 728.572,568.551L722.364,572.525C722.495,572.729 722.625,572.934 722.755,573.139L728.98,569.192ZM724.887,563.036C724.742,562.828 724.597,562.621 724.451,562.413L718.422,566.655C718.562,566.853 718.701,567.052 718.839,567.25L724.887,563.036ZM720.529,557.064C720.375,556.863 720.221,556.662 720.066,556.461L714.228,560.962C714.376,561.154 714.524,561.346 714.671,561.539L720.529,557.064ZM715.914,551.289C715.752,551.094 715.589,550.9 715.426,550.706L709.79,555.457C709.946,555.642 710.102,555.828 710.257,556.014L715.914,551.289ZM711.053,545.72C710.882,545.532 710.711,545.346 710.539,545.159L705.116,550.151C705.28,550.329 705.444,550.508 705.607,550.687L711.053,545.72ZM705.952,540.368C705.774,540.188 705.594,540.009 705.415,539.83L700.214,545.054C700.386,545.225 700.558,545.396 700.729,545.568L705.952,540.368ZM700.624,535.244C700.437,535.072 700.25,534.901 700.063,534.73L695.096,540.176C695.275,540.339 695.453,540.503 695.632,540.667L700.624,535.244ZM695.076,530.357C694.883,530.194 694.689,530.031 694.494,529.868L689.769,535.525C689.955,535.681 690.14,535.837 690.326,535.993L695.076,530.357ZM689.321,525.717C689.121,525.562 688.92,525.408 688.718,525.254L684.244,531.112C684.437,531.259 684.629,531.406 684.821,531.554L689.321,525.717ZM683.369,521.332C683.162,521.186 682.955,521.041 682.747,520.896L678.532,526.943C678.731,527.082 678.93,527.221 679.128,527.36L683.369,521.332ZM677.232,517.211C677.018,517.074 676.805,516.938 676.591,516.803L672.644,523.028C672.849,523.158 673.053,523.288 673.257,523.419L677.232,517.211ZM670.92,513.362C670.701,513.234 670.482,513.108 670.262,512.982L666.591,519.373C666.801,519.494 667.011,519.615 667.22,519.737L670.92,513.362ZM664.447,509.791C664.222,509.674 663.998,509.557 663.773,509.44L660.384,515.986C660.599,516.097 660.814,516.209 661.029,516.322L664.447,509.791ZM657.824,506.507C657.594,506.399 657.365,506.292 657.135,506.185L654.035,512.873C654.255,512.975 654.474,513.077 654.694,513.18L657.824,506.507ZM651.064,503.514C650.83,503.417 650.596,503.32 650.362,503.223L647.556,510.039C647.78,510.132 648.004,510.224 648.228,510.318L651.064,503.514ZM644.18,500.819C643.942,500.732 643.704,500.645 643.465,500.559L640.96,507.491C641.188,507.574 641.416,507.657 641.643,507.74L644.18,500.819ZM637.185,498.427C636.943,498.351 636.702,498.274 636.46,498.199L634.259,505.233C634.49,505.306 634.721,505.379 634.952,505.452L637.185,498.427ZM630.092,496.343C629.847,496.277 629.603,496.211 629.358,496.146L627.466,503.27C627.7,503.332 627.934,503.395 628.168,503.458L630.092,496.343ZM622.915,494.569C622.668,494.514 622.42,494.459 622.173,494.405L620.594,501.605C620.83,501.657 621.067,501.709 621.304,501.762L622.915,494.569ZM615.668,493.111C615.418,493.066 615.169,493.022 614.919,492.979L613.655,500.241C613.894,500.282 614.133,500.324 614.371,500.367L615.668,493.111ZM608.364,491.97C608.112,491.936 607.861,491.903 607.61,491.871L606.664,499.181C606.904,499.212 607.145,499.243 607.385,499.276L608.364,491.97ZM601.017,491.149C600.764,491.126 600.512,491.104 600.259,491.082L599.633,498.427C599.875,498.447 600.116,498.468 600.358,498.49L601.017,491.149ZM593.641,490.649C593.388,490.637 593.134,490.626 592.881,490.615L592.576,497.98C592.818,497.99 593.061,498.001 593.303,498.012L593.641,490.649Z"/>
            </g>
            <g transform="matrix(2.29916,0,0,2.29916,-756.458,-926.694)">
                <path d="M586.941,490.474C586.227,490.469 585.513,490.469 584.799,490.474L584.902,506.861C585.547,506.857 586.193,506.857 586.838,506.861L586.941,490.474ZM543.051,495.97C542.36,496.15 541.67,496.335 540.981,496.524L545.323,512.327C545.945,512.156 546.568,511.989 547.192,511.826L543.051,495.97ZM502.078,512.638C501.458,512.992 500.839,513.349 500.223,513.71L508.506,527.85C509.063,527.524 509.622,527.201 510.182,526.882L502.078,512.638ZM466.816,539.344C466.308,539.845 465.803,540.351 465.301,540.859L476.962,552.373C477.415,551.914 477.872,551.458 478.331,551.005L466.816,539.344ZM439.667,574.265C439.306,574.882 438.949,575.5 438.596,576.121L452.84,584.225C453.159,583.664 453.481,583.106 453.807,582.549L439.667,574.265ZM422.482,615.024C422.293,615.712 422.108,616.402 421.927,617.093L437.783,621.235C437.946,620.611 438.113,619.987 438.284,619.365L422.482,615.024ZM416.431,658.841C416.427,659.556 416.427,660.27 416.431,660.984L432.819,660.88C432.815,660.235 432.815,659.59 432.819,658.945L416.431,658.841ZM421.927,702.732C422.108,703.423 422.293,704.113 422.482,704.802L438.284,700.46C438.113,699.838 437.946,699.215 437.783,698.591L421.927,702.732ZM438.596,743.704C438.949,744.325 439.306,744.944 439.667,745.56L453.807,737.276C453.481,736.72 453.159,736.161 452.84,735.6L438.596,743.704ZM465.301,778.967C465.803,779.475 466.308,779.98 466.816,780.482L478.331,768.821C477.872,768.367 477.415,767.911 476.962,767.452L465.301,778.967ZM500.223,806.115C500.839,806.476 501.458,806.834 502.078,807.187L510.182,792.943C509.622,792.624 509.063,792.301 508.506,791.975L500.223,806.115ZM540.981,823.301C541.67,823.49 542.36,823.675 543.051,823.855L547.192,807.999C546.568,807.836 545.945,807.669 545.323,807.499L540.981,823.301ZM584.799,829.352C585.513,829.356 586.227,829.356 586.941,829.352L586.838,812.964C586.193,812.968 585.547,812.968 584.902,812.964L584.799,829.352ZM628.689,823.855C629.38,823.675 630.07,823.49 630.759,823.301L626.417,807.499C625.795,807.669 625.172,807.836 624.548,807.999L628.689,823.855ZM669.662,807.187C670.283,806.834 670.901,806.476 671.517,806.115L663.234,791.975C662.677,792.301 662.118,792.624 661.558,792.943L669.662,807.187ZM704.924,780.482C705.432,779.98 705.937,779.475 706.439,778.967L694.778,767.452C694.325,767.911 693.869,768.367 693.409,768.821L704.924,780.482ZM732.073,745.56C732.434,744.944 732.791,744.325 733.144,743.704L718.9,735.6C718.581,736.161 718.259,736.72 717.933,737.276L732.073,745.56ZM749.258,704.802C749.448,704.113 749.632,703.423 749.813,702.732L733.957,698.591C733.794,699.215 733.627,699.838 733.456,700.46L749.258,704.802ZM755.309,660.984C755.314,660.27 755.314,659.556 755.309,658.841L738.922,658.945C738.926,659.59 738.926,660.235 738.922,660.88L755.309,660.984ZM749.813,617.093C749.632,616.402 749.448,615.712 749.258,615.024L733.456,619.365C733.627,619.987 733.794,620.611 733.957,621.235L749.813,617.093ZM733.144,576.121C732.791,575.5 732.434,574.882 732.073,574.265L717.933,582.549C718.259,583.106 718.581,583.664 718.9,584.225L733.144,576.121ZM706.439,540.859C705.937,540.351 705.432,539.845 704.924,539.344L693.409,551.005C693.869,551.458 694.325,551.914 694.778,552.373L706.439,540.859ZM671.517,513.71C670.901,513.349 670.283,512.992 669.662,512.638L661.558,526.882C662.118,527.201 662.677,527.524 663.234,527.85L671.517,513.71ZM630.759,496.524C630.07,496.335 629.38,496.15 628.689,495.97L624.548,511.826C625.172,511.989 625.795,512.156 626.417,512.327L630.759,496.524Z"/>
            </g>
        </g>
        <g id="Hour-Marks1" serif:id="Hour Marks">
            <g transform="matrix(1,0,0,1,-25.634,6.09317)">
                <text x="581.88px" y="324.911px" style="font-family:'LTStaircase-Italic', 'LT Staircase';font-style:italic;font-size:75px;">12</text>
            </g>
            <g transform="matrix(1,0,0,1,136.652,46.4214)">
                <text x="581.88px" y="324.911px" style="font-family:'LTStaircase-Italic', 'LT Staircase';font-style:italic;font-size:75px;">1</text>
            </g>
            <g transform="matrix(1,0,0,1,234.841,142.825)">
                <text x="581.88px" y="324.911px" style="font-family:'LTStaircase-Italic', 'LT Staircase';font-style:italic;font-size:75px;">2</text>
            </g>
            <g transform="matrix(1,0,0,1,280.163,291.478)">
                <text x="581.88px" y="324.911px" style="font-family:'LTStaircase-Italic', 'LT Staircase';font-style:italic;font-size:75px;">3</text>
            </g>
            <g transform="matrix(1,0,0,1,234.37,435.957)">
                <text x="581.88px" y="324.911px" style="font-family:'LTStaircase-Italic', 'LT Staircase';font-style:italic;font-size:75px;">4</text>
            </g>
            <g transform="matrix(1,0,0,1,133.707,539.381)">
                <text x="581.88px" y="324.911px" style="font-family:'LTStaircase-Italic', 'LT Staircase';font-style:italic;font-size:75px;">5</text>
            </g>
            <g transform="matrix(1,0,0,1,-15.5457,573.88)">
                <text x="581.88px" y="324.911px" style="font-family:'LTStaircase-Italic', 'LT Staircase';font-style:italic;font-size:75px;">6</text>
            </g>
            <g transform="matrix(1,0,0,1,-149.329,534.955)">
                <text x="581.88px" y="324.911px" style="font-family:'LTStaircase-Italic', 'LT Staircase';font-style:italic;font-size:75px;">7</text>
            </g>
            <g transform="matrix(1,0,0,1,-258.755,431.568)">
                <text x="581.88px" y="324.911px" style="font-family:'LTStaircase-Italic', 'LT Staircase';font-style:italic;font-size:75px;">8</text>
            </g>
            <g transform="matrix(1,0,0,1,-308.135,291.328)">
                <text x="581.88px" y="324.911px" style="font-family:'LTStaircase-Italic', 'LT Staircase';font-style:italic;font-size:75px;">9</text>
            </g>
            <g transform="matrix(1,0,0,1,-265.331,142.291)">
                <text x="581.88px" y="324.911px" style="font-family:'LTStaircase-Italic', 'LT Staircase';font-style:italic;font-size:75px;">10</text>
            </g>
            <g transform="matrix(1,0,0,1,-163.429,45.3539)">
                <text x="581.88px" y="324.911px" style="font-family:'LTStaircase-Italic', 'LT Staircase';font-style:italic;font-size:75px;">11</text>
            </g>
        </g>
    </g>
</svg>
