<?xml version="1.0" encoding="UTF-8" standalone="no"?>
<!DOCTYPE svg PUBLIC "-//W3C//DTD SVG 1.1//EN" "http://www.w3.org/Graphics/SVG/1.1/DTD/svg11.dtd">
<svg width="100%" height="100%" viewBox="0 0 1182 1182" version="1.1" xmlns="http://www.w3.org/2000/svg" xmlns:xlink="http://www.w3.org/1999/xlink" xml:space="preserve" xmlns:serif="http://www.serif.com/" style="fill-rule:evenodd;clip-rule:evenodd;stroke-linecap:round;stroke-linejoin:round;stroke-miterlimit:1.5;">
    <g id="Hour-Dial" serif:id="Hour Dial" transform="matrix(0.907368,0,0,0.907368,54.7041,54.7041)">
        <g transform="matrix(0.663875,0,0,0.663875,287.012,332.911)">
            <circle cx="457.223" cy="388.085" r="614.353" style="fill:rgb(235,235,235);stroke:black;stroke-width:2.08px;"/>
        </g>
        <g id="Hour-Marks" serif:id="Hour Marks">
            <g transform="matrix(2.29916,0,0,2.29916,-756.458,-926.694)">
                <path d="M588.434,490.49C586.725,490.464 585.015,490.464 583.306,490.49L583.847,526.217C585.195,526.197 586.545,526.197 587.894,526.217L588.434,490.49ZM503.379,511.906C501.886,512.738 500.405,513.593 498.938,514.47L517.27,545.141C518.428,544.449 519.596,543.774 520.775,543.117L503.379,511.906ZM440.428,572.981C439.55,574.448 438.696,575.929 437.863,577.422L469.075,594.817C469.732,593.639 470.406,592.471 471.098,591.313L440.428,572.981ZM416.447,657.348C416.421,659.058 416.421,660.767 416.447,662.477L452.175,661.936C452.154,660.587 452.154,659.238 452.175,657.889L416.447,657.348ZM437.863,742.404C438.696,743.897 439.55,745.377 440.428,746.845L471.098,728.513C470.406,727.355 469.732,726.186 469.075,725.008L437.863,742.404ZM498.938,805.355C500.405,806.232 501.886,807.087 503.379,807.919L520.775,776.708C519.596,776.051 518.428,775.377 517.27,774.684L498.938,805.355ZM583.306,829.336C585.015,829.362 586.725,829.362 588.434,829.336L587.894,793.608C586.545,793.628 585.195,793.628 583.847,793.608L583.306,829.336ZM668.361,807.919C669.854,807.087 671.335,806.232 672.802,805.355L654.47,774.684C653.312,775.377 652.144,776.051 650.965,776.708L668.361,807.919ZM731.313,746.845C732.19,745.377 733.044,743.897 733.877,742.404L702.665,725.008C702.009,726.186 701.334,727.355 700.642,728.513L731.313,746.845ZM755.293,662.477C755.319,660.767 755.319,659.058 755.293,657.348L719.565,657.889C719.586,659.238 719.586,660.587 719.565,661.936L755.293,662.477ZM733.877,577.422C733.044,575.929 732.19,574.448 731.313,572.981L700.642,591.313C701.334,592.471 702.009,593.639 702.665,594.817L733.877,577.422ZM672.802,514.47C671.335,513.593 669.854,512.738 668.361,511.906L650.965,543.117C652.144,543.774 653.312,544.449 654.47,545.141L672.802,514.47Z"/>
            </g>
            <g transform="matrix(2.29916,0,0,2.29916,-756.458,-926.694)">
                <path d="M586.624,490.472C586.121,490.47 585.619,490.47 585.116,490.472L585.154,499.034C585.631,499.031 586.109,499.031 586.586,499.034L586.624,490.472ZM579.233,490.6C578.73,490.62 578.228,490.642 577.726,490.666L578.137,499.218C578.614,499.195 579.091,499.174 579.568,499.155L579.233,490.6ZM571.854,491.051C571.353,491.093 570.852,491.136 570.351,491.182L571.135,499.708C571.611,499.664 572.086,499.623 572.562,499.583L571.854,491.051ZM564.501,491.823C564.003,491.886 563.504,491.952 563.006,492.02L564.161,500.503C564.634,500.439 565.107,500.377 565.581,500.316L564.501,491.823ZM557.19,492.915C556.694,493 556.199,493.088 555.704,493.177L557.229,501.602C557.698,501.517 558.168,501.434 558.639,501.353L557.19,492.915ZM549.933,494.325C549.441,494.432 548.95,494.541 548.46,494.652L550.35,503.002C550.816,502.897 551.282,502.793 551.748,502.692L549.933,494.325ZM542.744,496.05C542.258,496.178 541.772,496.308 541.287,496.441L543.54,504.701C544,504.575 544.461,504.452 544.923,504.33L542.744,496.05ZM535.637,498.087C535.157,498.236 534.678,498.388 534.199,498.541L536.81,506.695C537.265,506.549 537.72,506.406 538.176,506.264L535.637,498.087ZM528.627,500.433C528.153,500.602 527.681,500.774 527.209,500.948L530.173,508.981C530.621,508.815 531.07,508.652 531.519,508.491L528.627,500.433ZM521.725,503.081C521.259,503.272 520.795,503.464 520.331,503.658L523.643,511.554C524.083,511.369 524.524,511.186 524.966,511.006L521.725,503.081ZM514.945,506.029C514.488,506.239 514.033,506.451 513.578,506.666L517.231,514.409C517.662,514.206 518.095,514.004 518.528,513.804L514.945,506.029ZM508.3,509.269C507.853,509.499 507.407,509.731 506.962,509.965L510.949,517.542C511.372,517.319 511.795,517.099 512.219,516.881L508.3,509.269ZM501.803,512.796C501.366,513.045 500.931,513.296 500.497,513.55L504.81,520.945C505.223,520.705 505.636,520.466 506.051,520.229L501.803,512.796ZM495.466,516.603C495.04,516.871 494.616,517.141 494.194,517.413L498.826,524.613C499.227,524.355 499.63,524.099 500.034,523.844L495.466,516.603ZM489.301,520.682C488.887,520.969 488.476,521.257 488.065,521.547L493.007,528.539C493.397,528.263 493.788,527.99 494.18,527.718L489.301,520.682ZM483.319,525.027C482.919,525.331 482.52,525.638 482.123,525.945L487.365,532.715C487.742,532.422 488.121,532.132 488.501,531.843L483.319,525.027ZM477.533,529.629C477.147,529.95 476.762,530.273 476.378,530.598L481.911,537.132C482.275,536.824 482.64,536.517 483.007,536.212L477.533,529.629ZM471.954,534.478C471.581,534.816 471.211,535.156 470.842,535.497L476.654,541.784C477.004,541.46 477.356,541.137 477.71,540.816L471.954,534.478ZM466.591,539.567C466.234,539.921 465.878,540.276 465.524,540.633L471.605,546.66C471.941,546.321 472.279,545.984 472.618,545.648L466.591,539.567ZM461.455,544.884C461.113,545.253 460.774,545.624 460.436,545.996L466.774,551.752C467.095,551.399 467.417,551.047 467.741,550.696L461.455,544.884ZM456.556,550.421C456.231,550.804 455.908,551.189 455.586,551.576L462.169,557.05C462.474,556.683 462.781,556.317 463.09,555.953L456.556,550.421ZM451.903,556.165C451.595,556.563 451.289,556.962 450.985,557.362L457.8,562.544C458.089,562.164 458.38,561.785 458.672,561.408L451.903,556.165ZM447.505,562.108C447.215,562.518 446.926,562.93 446.64,563.343L453.675,568.223C453.947,567.83 454.221,567.439 454.496,567.05L447.505,562.108ZM443.37,568.236C443.098,568.659 442.828,569.083 442.56,569.508L449.801,574.076C450.056,573.673 450.312,573.27 450.571,572.869L443.37,568.236ZM439.507,574.539C439.254,574.973 439.002,575.409 438.753,575.845L446.187,580.093C446.423,579.679 446.662,579.265 446.903,578.853L439.507,574.539ZM435.922,581.005C435.688,581.45 435.456,581.896 435.226,582.342L442.838,586.262C443.056,585.838 443.277,585.414 443.499,584.992L435.922,581.005ZM432.623,587.62C432.409,588.075 432.196,588.531 431.986,588.987L439.761,592.571C439.961,592.138 440.163,591.705 440.367,591.273L432.623,587.62ZM429.616,594.374C429.421,594.837 429.229,595.302 429.039,595.767L436.963,599.008C437.144,598.567 437.327,598.126 437.511,597.685L429.616,594.374ZM426.906,601.252C426.732,601.724 426.56,602.196 426.39,602.669L434.448,605.562C434.61,605.112 434.773,604.664 434.938,604.216L426.906,601.252ZM424.498,608.242C424.345,608.72 424.194,609.2 424.045,609.68L432.222,612.218C432.363,611.762 432.507,611.307 432.652,610.853L424.498,608.242ZM422.398,615.33C422.266,615.815 422.136,616.3 422.008,616.787L430.287,618.966C430.409,618.504 430.532,618.043 430.658,617.583L422.398,615.33ZM420.609,622.503C420.498,622.993 420.389,623.484 420.283,623.975L428.649,625.791C428.751,625.325 428.854,624.859 428.959,624.393L420.609,622.503ZM419.134,629.747C419.045,630.242 418.958,630.737 418.873,631.232L427.311,632.681C427.392,632.211 427.474,631.741 427.559,631.271L419.134,629.747ZM417.977,637.049C417.91,637.547 417.844,638.045 417.781,638.544L426.274,639.624C426.334,639.15 426.396,638.677 426.461,638.204L417.977,637.049ZM417.14,644.394C417.094,644.894 417.05,645.395 417.008,645.896L425.541,646.604C425.58,646.129 425.622,645.653 425.666,645.178L417.14,644.394ZM416.623,651.768C416.599,652.271 416.577,652.773 416.558,653.275L425.113,653.61C425.132,653.134 425.152,652.657 425.175,652.18L416.623,651.768ZM416.429,659.159C416.427,659.661 416.427,660.164 416.429,660.667L424.991,660.629C424.989,660.151 424.989,659.674 424.991,659.197L416.429,659.159ZM416.558,666.55C416.577,667.053 416.599,667.555 416.623,668.057L425.175,667.645C425.152,667.169 425.132,666.692 425.113,666.215L416.558,666.55ZM417.008,673.929C417.05,674.43 417.094,674.931 417.14,675.432L425.666,674.647C425.622,674.172 425.58,673.697 425.541,673.221L417.008,673.929ZM417.781,681.281C417.844,681.78 417.91,682.279 417.977,682.777L426.461,681.621C426.396,681.148 426.334,680.675 426.274,680.202L417.781,681.281ZM418.873,688.593C418.958,689.089 419.045,689.584 419.134,690.078L427.559,688.554C427.474,688.084 427.392,687.614 427.311,687.144L418.873,688.593ZM420.283,695.85C420.389,696.341 420.498,696.832 420.609,697.323L428.959,695.432C428.854,694.967 428.751,694.501 428.649,694.034L420.283,695.85ZM422.008,703.039C422.136,703.525 422.266,704.011 422.398,704.496L430.658,702.243C430.532,701.782 430.409,701.321 430.287,700.86L422.008,703.039ZM424.045,710.145C424.194,710.625 424.345,711.105 424.498,711.584L432.652,708.973C432.507,708.518 432.363,708.063 432.222,707.607L424.045,710.145ZM426.39,717.156C426.56,717.629 426.732,718.102 426.906,718.573L434.938,715.609C434.773,715.162 434.61,714.713 434.448,714.264L426.39,717.156ZM429.039,724.058C429.229,724.523 429.421,724.988 429.616,725.451L437.511,722.14C437.327,721.7 437.144,721.259 436.963,720.817L429.039,724.058ZM431.986,730.838C432.196,731.295 432.409,731.75 432.623,732.205L440.367,728.552C440.163,728.12 439.961,727.688 439.761,727.254L431.986,730.838ZM435.226,737.483C435.456,737.93 435.688,738.376 435.922,738.821L443.499,734.833C443.277,734.411 443.056,733.988 442.838,733.563L435.226,737.483ZM438.753,743.98C439.002,744.416 439.254,744.852 439.507,745.286L446.903,740.972C446.662,740.56 446.423,740.147 446.187,739.732L438.753,743.98ZM442.56,750.317C442.828,750.742 443.098,751.166 443.37,751.589L450.571,746.957C450.312,746.555 450.056,746.153 449.801,745.749L442.56,750.317ZM446.64,756.482C446.926,756.895 447.215,757.307 447.505,757.718L454.496,752.776C454.221,752.386 453.947,751.995 453.675,751.603L446.64,756.482ZM450.985,762.463C451.289,762.864 451.595,763.262 451.903,763.66L458.672,758.418C458.38,758.04 458.089,757.662 457.8,757.282L450.985,762.463ZM455.586,768.249C455.908,768.636 456.231,769.021 456.556,769.405L463.09,763.872C462.781,763.508 462.474,763.142 462.169,762.775L455.586,768.249ZM460.436,773.829C460.774,774.201 461.113,774.572 461.455,774.941L467.741,769.129C467.417,768.778 467.095,768.426 466.774,768.073L460.436,773.829ZM465.524,779.192C465.878,779.549 466.234,779.905 466.591,780.259L472.618,774.178C472.279,773.842 471.941,773.504 471.605,773.165L465.524,779.192ZM470.842,784.328C471.211,784.669 471.581,785.009 471.954,785.347L477.71,779.009C477.356,778.688 477.004,778.366 476.654,778.041L470.842,784.328ZM476.378,789.227C476.762,789.552 477.147,789.875 477.533,790.196L483.007,783.613C482.64,783.308 482.275,783.001 481.911,782.693L476.378,789.227ZM482.123,793.88C482.52,794.188 482.919,794.494 483.319,794.798L488.501,787.982C488.121,787.694 487.742,787.403 487.365,787.111L482.123,793.88ZM488.065,798.278C488.476,798.568 488.887,798.856 489.301,799.143L494.18,792.108C493.788,791.836 493.397,791.562 493.007,791.286L488.065,798.278ZM494.194,802.412C494.616,802.684 495.04,802.954 495.466,803.223L500.034,795.981C499.63,795.727 499.227,795.47 498.826,795.212L494.194,802.412ZM500.497,806.276C500.931,806.529 501.366,806.78 501.803,807.03L506.051,799.596C505.636,799.359 505.223,799.121 504.81,798.88L500.497,806.276ZM506.962,809.86C507.407,810.094 507.853,810.326 508.3,810.557L512.219,802.945C511.795,802.726 511.372,802.506 510.949,802.284L506.962,809.86ZM513.578,813.159C514.033,813.374 514.488,813.586 514.945,813.797L518.528,806.021C518.095,805.821 517.662,805.62 517.231,805.416L513.578,813.159ZM520.331,816.167C520.795,816.361 521.259,816.554 521.725,816.744L524.966,808.82C524.524,808.639 524.083,808.456 523.643,808.272L520.331,816.167ZM527.209,818.877C527.681,819.051 528.153,819.223 528.627,819.393L531.519,811.334C531.07,811.173 530.621,811.01 530.173,810.845L527.209,818.877ZM534.199,821.284C534.678,821.438 535.157,821.589 535.637,821.738L538.176,813.561C537.72,813.42 537.265,813.276 536.81,813.13L534.199,821.284ZM541.287,823.385C541.772,823.517 542.258,823.647 542.744,823.775L544.923,815.495C544.461,815.374 544,815.25 543.54,815.125L541.287,823.385ZM548.46,825.174C548.95,825.285 549.441,825.394 549.933,825.5L551.748,817.133C551.282,817.032 550.816,816.929 550.35,816.823L548.46,825.174ZM555.704,826.648C556.199,826.738 556.694,826.825 557.19,826.91L558.639,818.472C558.168,818.391 557.698,818.308 557.229,818.223L555.704,826.648ZM563.006,827.805C563.504,827.873 564.003,827.939 564.501,828.002L565.581,819.509C565.107,819.449 564.634,819.386 564.161,819.322L563.006,827.805ZM570.351,828.643C570.852,828.689 571.353,828.733 571.854,828.774L572.562,820.242C572.086,820.202 571.611,820.161 571.135,820.117L570.351,828.643ZM577.726,829.159C578.228,829.183 578.73,829.205 579.233,829.225L579.568,820.67C579.091,820.651 578.614,820.63 578.137,820.607L577.726,829.159ZM585.116,829.353C585.619,829.356 586.121,829.356 586.624,829.353L586.586,820.792C586.109,820.794 585.631,820.794 585.154,820.792L585.116,829.353ZM592.508,829.225C593.01,829.205 593.512,829.183 594.014,829.159L593.603,820.607C593.126,820.63 592.649,820.651 592.172,820.67L592.508,829.225ZM599.887,828.774C600.388,828.733 600.888,828.689 601.389,828.643L600.605,820.117C600.13,820.161 599.654,820.202 599.178,820.242L599.887,828.774ZM607.239,828.002C607.738,827.939 608.236,827.873 608.734,827.805L607.579,819.322C607.106,819.386 606.633,819.449 606.159,819.509L607.239,828.002ZM614.551,826.91C615.046,826.825 615.541,826.738 616.036,826.648L614.512,818.223C614.042,818.308 613.572,818.391 613.101,818.472L614.551,826.91ZM621.808,825.5C622.299,825.394 622.79,825.285 623.28,825.174L621.39,816.823C620.924,816.929 620.458,817.032 619.992,817.133L621.808,825.5ZM628.996,823.775C629.482,823.647 629.968,823.517 630.453,823.385L628.2,815.125C627.74,815.25 627.279,815.374 626.817,815.495L628.996,823.775ZM636.103,821.738C636.583,821.589 637.062,821.438 637.541,821.284L634.93,813.13C634.476,813.276 634.02,813.42 633.565,813.561L636.103,821.738ZM643.114,819.393C643.587,819.223 644.059,819.051 644.531,818.877L641.567,810.845C641.119,811.01 640.67,811.173 640.221,811.334L643.114,819.393ZM650.016,816.744C650.481,816.554 650.945,816.361 651.409,816.167L648.097,808.272C647.657,808.456 647.216,808.639 646.774,808.82L650.016,816.744ZM656.795,813.797C657.252,813.586 657.708,813.374 658.162,813.159L654.509,805.416C654.078,805.62 653.645,805.821 653.212,806.021L656.795,813.797ZM663.44,810.557C663.887,810.326 664.333,810.094 664.778,809.86L660.791,802.284C660.368,802.506 659.945,802.726 659.521,802.945L663.44,810.557ZM669.937,807.03C670.374,806.78 670.809,806.529 671.243,806.276L666.93,798.88C666.517,799.121 666.104,799.359 665.69,799.596L669.937,807.03ZM676.275,803.223C676.7,802.954 677.124,802.684 677.546,802.412L672.914,795.212C672.513,795.47 672.11,795.727 671.707,795.981L676.275,803.223ZM682.44,799.143C682.853,798.856 683.264,798.568 683.675,798.278L678.733,791.286C678.343,791.562 677.952,791.836 677.56,792.108L682.44,799.143ZM688.421,794.798C688.821,794.494 689.22,794.188 689.617,793.88L684.375,787.111C683.998,787.403 683.619,787.694 683.239,787.982L688.421,794.798ZM694.207,790.196C694.593,789.875 694.978,789.552 695.362,789.227L689.83,782.693C689.465,783.001 689.1,783.308 688.733,783.613L694.207,790.196ZM699.787,785.347C700.159,785.009 700.529,784.669 700.899,784.328L695.086,778.041C694.736,778.366 694.384,778.688 694.031,779.009L699.787,785.347ZM705.15,780.259C705.507,779.905 705.862,779.549 706.216,779.192L700.135,773.165C699.799,773.504 699.462,773.842 699.123,774.178L705.15,780.259ZM710.285,774.941C710.627,774.572 710.966,774.201 711.304,773.829L704.966,768.073C704.645,768.426 704.323,768.778 703.999,769.129L710.285,774.941ZM715.184,769.405C715.509,769.021 715.832,768.636 716.154,768.249L709.571,762.775C709.266,763.142 708.959,763.508 708.65,763.872L715.184,769.405ZM719.837,763.66C720.145,763.262 720.451,762.864 720.755,762.463L713.94,757.282C713.651,757.662 713.36,758.04 713.068,758.418L719.837,763.66ZM724.235,757.718C724.525,757.307 724.814,756.895 725.1,756.482L718.065,751.603C717.793,751.995 717.519,752.386 717.244,752.776L724.235,757.718ZM728.37,751.589C728.642,751.166 728.912,750.742 729.18,750.317L721.939,745.749C721.684,746.153 721.428,746.555 721.169,746.957L728.37,751.589ZM732.233,745.286C732.486,744.852 732.738,744.416 732.987,743.98L725.553,739.732C725.317,740.147 725.078,740.56 724.837,740.972L732.233,745.286ZM735.818,738.821C736.052,738.376 736.284,737.93 736.514,737.483L728.902,733.563C728.684,733.988 728.463,734.411 728.241,734.833L735.818,738.821ZM739.117,732.205C739.331,731.75 739.544,731.295 739.754,730.838L731.979,727.254C731.779,727.688 731.577,728.12 731.373,728.552L739.117,732.205ZM742.124,725.451C742.319,724.988 742.511,724.523 742.701,724.058L734.777,720.817C734.596,721.259 734.414,721.7 734.229,722.14L742.124,725.451ZM744.834,718.573C745.008,718.102 745.18,717.629 745.35,717.156L737.292,714.264C737.131,714.713 736.967,715.162 736.802,715.609L744.834,718.573ZM747.242,711.584C747.395,711.105 747.546,710.625 747.695,710.145L739.518,707.607C739.377,708.063 739.233,708.518 739.088,708.973L747.242,711.584ZM749.342,704.496C749.474,704.011 749.604,703.525 749.732,703.039L741.453,700.86C741.331,701.321 741.208,701.782 741.082,702.243L749.342,704.496ZM751.131,697.323C751.242,696.832 751.351,696.341 751.458,695.85L743.091,694.034C742.989,694.501 742.886,694.967 742.781,695.432L751.131,697.323ZM752.606,690.078C752.695,689.584 752.782,689.089 752.868,688.593L744.429,687.144C744.349,687.614 744.266,688.084 744.181,688.554L752.606,690.078ZM753.763,682.777C753.831,682.279 753.896,681.78 753.96,681.281L745.466,680.202C745.406,680.675 745.344,681.148 745.279,681.621L753.763,682.777ZM754.6,675.432C754.646,674.931 754.69,674.43 754.732,673.929L746.199,673.221C746.16,673.697 746.118,674.172 746.075,674.647L754.6,675.432ZM755.117,668.057C755.141,667.555 755.163,667.053 755.182,666.55L746.627,666.215C746.609,666.692 746.588,667.169 746.565,667.645L755.117,668.057ZM755.311,660.667C755.313,660.164 755.313,659.661 755.311,659.159L746.749,659.197C746.751,659.674 746.751,660.151 746.749,660.629L755.311,660.667ZM755.182,653.275C755.163,652.773 755.141,652.271 755.117,651.768L746.565,652.18C746.588,652.657 746.609,653.134 746.627,653.61L755.182,653.275ZM754.732,645.896C754.69,645.395 754.646,644.894 754.6,644.394L746.075,645.178C746.118,645.653 746.16,646.129 746.199,646.604L754.732,645.896ZM753.96,638.544C753.896,638.045 753.831,637.547 753.763,637.049L745.279,638.204C745.344,638.677 745.406,639.15 745.466,639.624L753.96,638.544ZM752.868,631.232C752.782,630.737 752.695,630.242 752.606,629.747L744.181,631.271C744.266,631.741 744.349,632.211 744.429,632.681L752.868,631.232ZM751.458,623.975C751.351,623.484 751.242,622.993 751.131,622.503L742.781,624.393C742.886,624.859 742.989,625.325 743.091,625.791L751.458,623.975ZM749.732,616.787C749.604,616.3 749.474,615.815 749.342,615.33L741.082,617.583C741.208,618.043 741.331,618.504 741.453,618.966L749.732,616.787ZM747.695,609.68C747.546,609.2 747.395,608.72 747.242,608.242L739.088,610.853C739.233,611.307 739.377,611.762 739.518,612.218L747.695,609.68ZM745.35,602.669C745.18,602.196 745.008,601.724 744.834,601.252L736.802,604.216C736.967,604.664 737.131,605.112 737.292,605.562L745.35,602.669ZM742.701,595.767C742.511,595.302 742.319,594.837 742.124,594.374L734.229,597.685C734.414,598.126 734.596,598.567 734.777,599.008L742.701,595.767ZM739.754,588.987C739.544,588.531 739.331,588.075 739.117,587.62L731.373,591.273C731.577,591.705 731.779,592.138 731.979,592.571L739.754,588.987ZM736.514,582.342C736.284,581.896 736.052,581.45 735.818,581.005L728.241,584.992C728.463,585.414 728.684,585.838 728.902,586.262L736.514,582.342ZM732.987,575.845C732.738,575.409 732.486,574.973 732.233,574.539L724.837,578.853C725.078,579.265 725.317,579.679 725.553,580.093L732.987,575.845ZM729.18,569.508C728.912,569.083 728.642,568.659 728.37,568.236L721.169,572.869C721.428,573.27 721.684,573.673 721.939,574.076L729.18,569.508ZM725.1,563.343C724.814,562.93 724.525,562.518 724.235,562.108L717.244,567.05C717.519,567.439 717.793,567.83 718.065,568.223L725.1,563.343ZM720.755,557.362C720.451,556.962 720.145,556.563 719.837,556.165L713.068,561.408C713.36,561.785 713.651,562.164 713.94,562.544L720.755,557.362ZM716.154,551.576C715.832,551.189 715.509,550.804 715.184,550.421L708.65,555.953C708.959,556.317 709.266,556.683 709.571,557.05L716.154,551.576ZM711.304,545.996C710.966,545.624 710.627,545.253 710.285,544.884L703.999,550.696C704.323,551.047 704.645,551.399 704.966,551.752L711.304,545.996ZM706.216,540.633C705.862,540.276 705.507,539.921 705.15,539.567L699.123,545.648C699.462,545.984 699.799,546.321 700.135,546.66L706.216,540.633ZM700.899,535.497C700.529,535.156 700.159,534.816 699.787,534.478L694.031,540.816C694.384,541.137 694.736,541.46 695.086,541.784L700.899,535.497ZM695.362,530.598C694.978,530.273 694.593,529.95 694.207,529.629L688.733,536.212C689.1,536.517 689.465,536.824 689.83,537.132L695.362,530.598ZM689.617,525.945C689.22,525.638 688.821,525.331 688.421,525.027L683.239,531.843C683.619,532.132 683.998,532.422 684.375,532.715L689.617,525.945ZM683.675,521.547C683.264,521.257 682.853,520.969 682.44,520.682L677.56,527.718C677.952,527.99 678.343,528.263 678.733,528.539L683.675,521.547ZM677.546,517.413C677.124,517.141 676.7,516.871 676.275,516.603L671.707,523.844C672.11,524.099 672.513,524.355 672.914,524.613L677.546,517.413ZM671.243,513.55C670.809,513.296 670.374,513.045 669.937,512.796L665.69,520.229C666.104,520.466 666.517,520.705 666.93,520.945L671.243,513.55ZM664.778,509.965C664.333,509.731 663.887,509.499 663.44,509.269L659.521,516.881C659.945,517.099 660.368,517.319 660.791,517.542L664.778,509.965ZM658.162,506.666C657.708,506.451 657.252,506.239 656.795,506.029L653.212,513.804C653.645,514.004 654.078,514.206 654.509,514.409L658.162,506.666ZM651.409,503.658C650.945,503.464 650.481,503.272 650.016,503.081L646.774,511.006C647.216,511.186 647.657,511.369 648.097,511.554L651.409,503.658ZM644.531,500.948C644.059,500.774 643.587,500.602 643.114,500.433L640.221,508.491C640.67,508.652 641.119,508.815 641.567,508.981L644.531,500.948ZM637.541,498.541C637.062,498.388 636.583,498.236 636.103,498.087L633.565,506.264C634.02,506.406 634.476,506.549 634.93,506.695L637.541,498.541ZM630.453,496.441C629.968,496.308 629.482,496.178 628.996,496.05L626.817,504.33C627.279,504.452 627.74,504.575 628.2,504.701L630.453,496.441ZM623.28,494.652C622.79,494.541 622.299,494.432 621.808,494.325L619.992,502.692C620.458,502.793 620.924,502.897 621.39,503.002L623.28,494.652ZM616.036,493.177C615.541,493.088 615.046,493 614.551,492.915L613.101,501.353C613.572,501.434 614.042,501.517 614.512,501.602L616.036,493.177ZM608.734,492.02C608.236,491.952 607.738,491.886 607.239,491.823L606.159,500.316C606.633,500.377 607.106,500.439 607.579,500.503L608.734,492.02ZM601.389,491.182C600.888,491.136 600.388,491.093 599.887,491.051L599.178,499.583C599.654,499.623 600.13,499.664 600.605,499.708L601.389,491.182ZM594.014,490.666C593.512,490.642 593.01,490.62 592.508,490.6L592.172,499.155C592.649,499.174 593.126,499.195 593.603,499.218L594.014,490.666Z"/>
            </g>
            <g transform="matrix(2.29916,0,0,2.29916,-756.458,-926.694)">
                <path d="M586.941,490.474C586.227,490.469 585.513,490.469 584.799,490.474L584.94,512.782C585.56,512.778 586.18,512.778 586.8,512.782L586.941,490.474ZM543.051,495.97C542.36,496.15 541.67,496.335 540.981,496.524L546.891,518.036C547.489,517.872 548.088,517.711 548.688,517.554L543.051,495.97ZM502.078,512.638C501.458,512.992 500.839,513.349 500.223,513.71L511.499,532.959C512.034,532.645 512.571,532.335 513.11,532.028L502.078,512.638ZM466.816,539.344C466.308,539.845 465.803,540.351 465.301,540.859L481.175,556.533C481.611,556.092 482.049,555.653 482.491,555.218L466.816,539.344ZM439.667,574.265C439.306,574.882 438.949,575.5 438.596,576.121L457.986,587.153C458.293,586.614 458.603,586.077 458.916,585.542L439.667,574.265ZM422.482,615.024C422.293,615.712 422.108,616.402 421.927,617.093L443.512,622.731C443.669,622.131 443.829,621.532 443.993,620.934L422.482,615.024ZM416.431,658.841C416.427,659.556 416.427,660.27 416.431,660.984L438.739,660.843C438.735,660.223 438.735,659.603 438.739,658.982L416.431,658.841ZM421.927,702.732C422.108,703.423 422.293,704.113 422.482,704.802L443.993,698.892C443.829,698.293 443.669,697.694 443.512,697.094L421.927,702.732ZM438.596,743.704C438.949,744.325 439.306,744.944 439.667,745.56L458.916,734.284C458.603,733.749 458.293,733.211 457.986,732.672L438.596,743.704ZM465.301,778.967C465.803,779.475 466.308,779.98 466.816,780.482L482.491,764.608C482.049,764.172 481.611,763.733 481.175,763.292L465.301,778.967ZM500.223,806.115C500.839,806.476 501.458,806.834 502.078,807.187L513.11,787.797C512.571,787.49 512.034,787.18 511.499,786.867L500.223,806.115ZM540.981,823.301C541.67,823.49 542.36,823.675 543.051,823.855L548.688,802.271C548.088,802.114 547.489,801.954 546.891,801.789L540.981,823.301ZM584.799,829.352C585.513,829.356 586.227,829.356 586.941,829.352L586.8,807.043C586.18,807.047 585.56,807.047 584.94,807.043L584.799,829.352ZM628.689,823.855C629.38,823.675 630.07,823.49 630.759,823.301L624.849,801.789C624.251,801.954 623.652,802.114 623.052,802.271L628.689,823.855ZM669.662,807.187C670.283,806.834 670.901,806.476 671.517,806.115L660.241,786.867C659.706,787.18 659.169,787.49 658.63,787.797L669.662,807.187ZM704.924,780.482C705.432,779.98 705.937,779.475 706.439,778.967L690.565,763.292C690.129,763.733 689.691,764.172 689.249,764.608L704.924,780.482ZM732.073,745.56C732.434,744.944 732.791,744.325 733.144,743.704L713.754,732.672C713.448,733.211 713.137,733.749 712.824,734.284L732.073,745.56ZM749.258,704.802C749.448,704.113 749.632,703.423 749.813,702.732L728.228,697.094C728.072,697.694 727.911,698.293 727.747,698.892L749.258,704.802ZM755.309,660.984C755.314,660.27 755.314,659.556 755.309,658.841L733.001,658.982C733.005,659.603 733.005,660.223 733.001,660.843L755.309,660.984ZM749.813,617.093C749.632,616.402 749.448,615.712 749.258,615.024L727.747,620.934C727.911,621.532 728.072,622.131 728.228,622.731L749.813,617.093ZM733.144,576.121C732.791,575.5 732.434,574.882 732.073,574.265L712.824,585.542C713.137,586.077 713.448,586.614 713.754,587.153L733.144,576.121ZM706.439,540.859C705.937,540.351 705.432,539.845 704.924,539.344L689.249,555.218C689.691,555.653 690.129,556.092 690.565,556.533L706.439,540.859ZM671.517,513.71C670.901,513.349 670.283,512.992 669.662,512.638L658.63,532.028C659.169,532.335 659.706,532.645 660.241,532.959L671.517,513.71ZM630.759,496.524C630.07,496.335 629.38,496.15 628.689,495.97L623.052,517.554C623.652,517.711 624.251,517.872 624.849,518.036L630.759,496.524Z"/>
            </g>
            <g transform="matrix(1.10209,0,0,1.10209,-60.2888,-60.2888)">
                <g transform="matrix(0.742628,-2.90089e-16,7.51919e-16,-1.16809,151.991,551.311)">
                    <path d="M590.551,193.151L629.077,272.414L552.026,272.414L590.551,193.151Z" style="fill:rgb(235,235,235);"/>
                </g>
                <g transform="matrix(0.557299,-2.20713e-16,5.7956e-16,-0.849594,261.438,475.808)">
                    <path d="M590.551,193.151L634.463,280.975L546.639,280.975L590.551,193.151Z"/>
                </g>
            </g>
        </g>
        <g id="Hour-Marks1" serif:id="Hour Marks">
            <g transform="matrix(1,0,0,1,-25.634,31.8574)">
                <path d="M584.655,325.061L600.705,324.911L600.855,324.911C601.08,324.986 601.305,324.986 601.53,324.986C604.005,324.986 607.305,322.361 606.03,319.661C605.28,319.061 603.63,318.986 601.68,318.986L598.53,318.986C600.93,304.061 607.755,276.986 608.055,273.986C607.605,273.011 607.08,272.636 606.18,272.636C605.88,272.636 605.43,272.711 604.905,272.786C603.255,273.011 599.505,276.986 594.705,279.686C591.48,281.486 590.655,283.586 593.055,283.511C595.08,283.436 597.93,282.686 599.805,282.161C598.005,289.586 594.03,307.061 591.855,319.061L588.255,319.061C585.255,319.661 580.83,323.486 584.655,325.061Z" style="fill-rule:nonzero;"/>
                <path d="M614.205,324.911C615.93,324.386 617.73,324.236 619.605,324.236C623.205,324.236 626.88,324.836 630.405,324.836C634.905,324.836 639.105,323.861 642.18,319.211C642.93,318.086 644.955,314.561 644.955,314.486C645.33,313.061 644.43,312.311 643.38,312.311C642.78,312.311 642.105,312.611 641.73,313.286C639.18,317.861 634.755,318.611 630.555,318.611C628.68,318.611 626.88,318.461 625.23,318.461C623.805,318.461 622.455,318.536 621.03,318.611C630.105,308.786 644.655,300.461 648.48,288.236C651.33,278.786 645.33,272.336 637.53,272.336C634.53,272.336 631.305,273.311 628.23,275.336C623.055,278.936 617.355,284.786 616.83,290.861C616.305,296.636 620.205,300.011 625.38,300.011C626.205,300.011 627.03,299.936 627.855,299.786C631.83,298.886 636.03,293.036 633.255,293.036C632.955,293.036 632.58,293.111 632.055,293.261C631.605,293.411 631.155,293.486 630.63,293.636C630.18,293.786 629.655,293.861 629.13,293.861C628.605,293.861 628.08,293.786 627.555,293.636C620.73,291.236 623.955,279.086 632.505,278.186C633.33,278.036 634.08,277.961 634.755,277.961C636.255,277.961 637.53,278.261 638.505,278.936C640.905,280.586 642.705,284.261 639.33,293.261C636.63,299.786 613.08,318.311 611.805,322.061C611.055,323.936 611.355,324.911 613.53,324.911L614.205,324.911Z" style="fill-rule:nonzero;"/>
            </g>
            <g transform="matrix(1,0,0,1,124.941,71.0145)">
                <path d="M584.655,325.061L600.705,324.911L600.855,324.911C601.08,324.986 601.305,324.986 601.53,324.986C604.005,324.986 607.305,322.361 606.03,319.661C605.28,319.061 603.63,318.986 601.68,318.986L598.53,318.986C600.93,304.061 607.755,276.986 608.055,273.986C607.605,273.011 607.08,272.636 606.18,272.636C605.88,272.636 605.43,272.711 604.905,272.786C603.255,273.011 599.505,276.986 594.705,279.686C591.48,281.486 590.655,283.586 593.055,283.511C595.08,283.436 597.93,282.686 599.805,282.161C598.005,289.586 594.03,307.061 591.855,319.061L588.255,319.061C585.255,319.661 580.83,323.486 584.655,325.061Z" style="fill-rule:nonzero;"/>
            </g>
            <g transform="matrix(1,0,0,1,217.274,156.878)">
                <path d="M587.28,324.911C589.005,324.386 590.805,324.236 592.68,324.236C596.28,324.236 599.955,324.836 603.48,324.836C607.98,324.836 612.18,323.861 615.255,319.211C616.005,318.086 618.03,314.561 618.03,314.486C618.405,313.061 617.505,312.311 616.455,312.311C615.855,312.311 615.18,312.611 614.805,313.286C612.255,317.861 607.83,318.611 603.63,318.611C601.755,318.611 599.955,318.461 598.305,318.461C596.88,318.461 595.53,318.536 594.105,318.611C603.18,308.786 617.73,300.461 621.555,288.236C624.405,278.786 618.405,272.336 610.605,272.336C607.605,272.336 604.38,273.311 601.305,275.336C596.13,278.936 590.43,284.786 589.905,290.861C589.38,296.636 593.28,300.011 598.455,300.011C599.28,300.011 600.105,299.936 600.93,299.786C604.905,298.886 609.105,293.036 606.33,293.036C606.03,293.036 605.655,293.111 605.13,293.261C604.68,293.411 604.23,293.486 603.705,293.636C603.255,293.786 602.73,293.861 602.205,293.861C601.68,293.861 601.155,293.786 600.63,293.636C593.805,291.236 597.03,279.086 605.58,278.186C606.405,278.036 607.155,277.961 607.83,277.961C609.33,277.961 610.605,278.261 611.58,278.936C613.98,280.586 615.78,284.261 612.405,293.261C609.705,299.786 586.155,318.311 584.88,322.061C584.13,323.936 584.43,324.911 586.605,324.911L587.28,324.911Z" style="fill-rule:nonzero;"/>
            </g>
            <g transform="matrix(1,0,0,1,254.399,291.478)">
                <path d="M591.705,324.836C593.505,325.511 595.455,325.886 597.405,325.886C610.005,325.886 624.105,312.536 619.98,300.011C618.405,294.836 613.98,291.911 608.655,291.911C625.455,279.086 628.53,273.836 625.455,273.236L625.005,273.236C623.055,273.236 620.58,274.436 618.705,274.436C618.48,274.436 618.33,274.361 618.105,274.361C613.53,273.311 609.855,272.261 606.33,272.261C602.655,272.261 599.28,273.386 595.38,276.761C592.53,279.461 592.23,281.186 593.655,281.186C594.18,281.186 594.855,281.036 595.68,280.586C598.155,278.861 600.33,278.261 602.355,278.261C606.255,278.261 609.63,280.286 613.905,280.886C614.43,280.961 615.705,280.961 616.23,280.961C612.33,283.361 599.88,294.386 597.18,297.686C596.13,299.561 596.13,300.686 597.18,300.986C599.88,300.011 601.98,298.961 605.355,298.736L605.805,298.736C614.58,298.736 615.33,308.861 611.205,314.411C608.505,317.711 604.83,320.336 600.48,320.336C594.48,320.336 588.93,315.836 591.78,309.236C592.755,306.836 592.305,305.861 591.18,305.861C589.905,305.861 587.655,307.436 586.38,309.536C582.855,317.261 584.58,322.361 591.705,324.836Z" style="fill-rule:nonzero;"/>
            </g>
            <g transform="matrix(1,0,0,1,216.803,419.562)">
                <path d="M585.03,305.186C585.78,306.611 586.905,306.911 592.755,306.911C595.83,306.911 600.33,306.836 606.78,306.761L604.38,319.061L600.78,319.061C597.78,319.661 593.355,323.486 597.18,325.061L613.23,324.911C613.305,324.911 613.23,324.986 613.305,324.986L613.38,324.911C613.53,324.911 613.755,324.986 613.98,324.986C616.455,324.986 619.68,322.361 618.555,319.661C617.805,319.061 616.155,318.986 614.205,318.986L611.055,318.986C611.655,315.611 612.48,310.961 613.38,306.686C615.93,306.461 620.43,306.836 622.755,304.586C625.98,301.511 626.43,300.836 624.555,300.836C623.13,300.836 620.43,301.211 616.605,301.211L614.58,301.211C617.205,288.536 620.355,276.011 620.58,273.986C620.505,272.636 620.28,271.736 619.305,271.736C616.755,271.736 609.255,278.186 586.98,300.911C585.33,302.936 584.805,302.561 585.03,305.186ZM592.83,300.761L612.78,280.886C611.805,285.011 609.555,293.486 607.98,301.061L604.005,301.061C599.955,301.061 596.28,300.986 592.83,300.761Z" style="fill-rule:nonzero;"/>
            </g>
            <g transform="matrix(1,0,0,1,121.996,514.788)">
                <path d="M591.705,324.836C593.505,325.511 595.455,325.886 597.405,325.886C610.005,325.886 624.105,312.536 619.98,300.011C618.405,294.986 614.955,292.361 609.855,291.911C606.18,292.136 602.58,292.961 599.655,294.086C600.855,289.286 601.605,284.936 602.58,280.136L609.105,280.136C613.38,280.136 617.58,280.061 622.155,279.686C623.28,279.686 628.68,272.861 625.53,272.861C621.33,272.861 612.105,273.086 605.73,273.086C603.78,273.086 602.13,273.086 600.93,273.011C598.53,273.536 597.33,274.211 596.655,277.436C596.43,277.661 596.505,277.811 596.43,278.036C594.78,282.986 594.555,288.836 593.205,293.936C592.605,296.261 591.855,297.761 591.255,299.036C591.105,300.086 591.405,300.536 592.08,300.536C593.505,300.536 596.73,298.661 601.755,297.986C602.505,297.911 603.255,297.836 603.93,297.836C614.805,297.836 615.18,309.161 611.205,314.411C608.505,317.711 604.83,320.336 600.48,320.336C594.48,320.336 588.93,315.836 591.78,309.236C592.755,306.836 592.305,305.861 591.18,305.861C589.905,305.861 587.655,307.436 586.38,309.536C582.855,317.261 584.58,322.361 591.705,324.836Z" style="fill-rule:nonzero;"/>
            </g>
            <g transform="matrix(1,0,0,1,-12.0324,544.602)">
                <path d="M586.455,311.786C587.28,320.261 593.805,325.436 601.98,325.436C603.555,325.436 605.205,325.211 607.08,324.611C614.73,322.586 624.855,310.736 623.43,301.361C622.455,294.986 617.505,292.211 611.73,292.211C605.28,292.211 597.705,295.736 593.58,301.811C595.305,293.036 602.355,279.236 612.78,279.236C615.48,279.236 619.455,280.361 618.18,283.286C617.655,285.386 618.405,286.211 619.53,286.211C621.03,286.211 623.355,284.786 624.555,283.136C625.08,282.161 625.53,281.186 625.755,280.211C626.88,275.261 620.955,272.636 615.855,272.636C614.505,272.636 613.155,272.861 612.105,273.236C595.455,279.161 584.88,296.186 586.455,311.786ZM593.655,310.811C594.93,303.086 602.805,298.736 608.28,298.736C609.705,298.736 611.055,299.111 611.955,299.711C617.955,304.286 614.805,315.836 608.13,318.461C606.855,318.986 605.505,319.211 604.155,319.211C599.205,319.211 594.33,316.061 593.655,310.811Z" style="fill-rule:nonzero;"/>
            </g>
            <g transform="matrix(1,0,0,1,-132.934,518.559)">
                <path d="M594.63,280.811C594.93,280.211 595.38,279.536 595.98,279.536C601.905,279.536 612.405,279.686 618.255,279.686C606.555,289.886 592.305,310.886 591.705,323.261L591.705,323.486C591.705,325.811 593.055,326.111 594.18,326.111C594.555,326.111 595.08,326.036 595.755,325.886C597.18,325.511 599.505,323.711 600.33,321.836C600.93,308.036 611.28,290.786 625.08,278.186C626.655,276.761 626.88,275.186 626.88,274.961C626.88,274.286 626.655,273.536 625.455,273.461C619.605,272.936 613.305,273.161 606.705,273.086C601.68,273.086 599.88,273.011 598.755,273.011C597.03,273.011 595.38,273.011 594.255,273.536C592.455,274.361 592.23,276.461 590.28,280.961C590.13,281.561 590.055,282.086 590.055,282.461C590.055,283.286 590.43,283.661 590.955,283.661C591.18,283.661 591.405,283.586 591.78,283.436C592.455,283.211 593.955,281.936 594.63,280.811Z" style="fill-rule:nonzero;"/>
            </g>
            <g transform="matrix(1,0,0,1,-230.649,419.857)">
                <path d="M599.205,325.511L600.105,325.511C616.98,325.511 626.505,308.936 616.455,300.986C615.255,299.711 613.68,298.661 612.105,297.686C617.88,295.061 621.855,289.886 623.58,284.186C625.53,276.761 620.43,272.186 613.38,272.186L612.855,272.186C596.055,272.186 590.505,285.161 592.905,292.361C593.58,294.386 595.53,296.636 597.03,298.061C593.73,299.786 590.505,301.811 587.805,305.486C580.155,315.911 585.78,324.911 599.205,325.511ZM593.28,306.911C595.005,303.911 598.455,301.286 601.83,301.061C604.905,302.786 607.755,304.511 610.305,306.461C614.28,309.461 613.68,316.586 607.155,319.436C605.655,320.036 604.005,320.336 602.355,320.336C595.305,320.336 588.48,314.861 593.28,306.911ZM611.13,277.436C616.455,277.436 619.005,282.236 615.48,288.011C613.38,291.461 610.905,293.786 608.055,295.061C605.13,293.486 600.255,290.111 600.255,287.036C600.18,280.286 604.83,277.436 611.13,277.436Z" style="fill-rule:nonzero;"/>
            </g>
            <g transform="matrix(1,0,0,1,-280.029,291.328)">
                <path d="M600.105,324.611C616.98,318.611 627.33,301.661 625.83,286.061C625.005,277.736 618.405,272.411 610.305,272.411C608.655,272.411 607.08,272.636 605.13,273.236C597.63,275.561 587.355,287.036 588.78,296.486C589.755,302.861 594.705,305.636 600.405,305.636C606.93,305.636 614.505,302.036 618.63,296.036C616.905,304.811 609.855,318.611 599.43,318.611C596.73,318.611 592.83,317.561 594.03,314.561C594.555,312.461 593.805,311.636 592.68,311.636C591.18,311.636 588.855,312.986 587.655,314.711C587.28,315.686 586.68,316.661 586.455,317.636C585.33,322.586 591.255,325.211 596.355,325.211C597.705,325.211 599.055,324.986 600.105,324.611ZM604.155,279.386C605.43,278.861 606.78,278.636 608.13,278.636C613.005,278.636 617.88,281.786 618.555,287.036C617.28,294.761 609.405,299.111 603.93,299.111C602.505,299.111 601.155,298.736 600.255,298.136C594.255,293.561 597.405,282.161 604.155,279.386Z" style="fill-rule:nonzero;"/>
            </g>
            <g transform="matrix(1,0,0,1,-244.251,164.542)">
                <path d="M584.655,325.061L600.705,324.911L600.855,324.911C601.08,324.986 601.305,324.986 601.53,324.986C604.005,324.986 607.305,322.361 606.03,319.661C605.28,319.061 603.63,318.986 601.68,318.986L598.53,318.986C600.93,304.061 607.755,276.986 608.055,273.986C607.605,273.011 607.08,272.636 606.18,272.636C605.88,272.636 605.43,272.711 604.905,272.786C603.255,273.011 599.505,276.986 594.705,279.686C591.48,281.486 590.655,283.586 593.055,283.511C595.08,283.436 597.93,282.686 599.805,282.161C598.005,289.586 594.03,307.061 591.855,319.061L588.255,319.061C585.255,319.661 580.83,323.486 584.655,325.061Z" style="fill-rule:nonzero;"/>
                <path d="M624.33,324.911C624.93,324.986 625.53,325.061 626.13,325.061C638.205,325.061 647.58,308.411 649.68,296.936C651.48,286.961 648.855,276.386 640.905,273.836C639.33,273.311 637.605,273.011 635.955,273.011C630.405,273.011 624.405,276.311 618.93,286.961C612.405,298.286 610.68,322.811 624.33,324.911ZM629.955,280.736C631.755,279.686 633.48,279.161 635.13,279.161C640.755,279.161 644.73,285.236 642.705,295.361C639.255,312.761 633.855,319.361 629.205,319.361C627.78,319.361 626.355,318.761 625.155,317.561C618.48,310.886 620.355,289.136 629.955,280.736Z" style="fill-rule:nonzero;"/>
            </g>
            <g transform="matrix(1,0,0,1,-151.718,61.7494)">
                <path d="M584.655,325.061L600.705,324.911L600.855,324.911C601.08,324.986 601.305,324.986 601.53,324.986C604.005,324.986 607.305,322.361 606.03,319.661C605.28,319.061 603.63,318.986 601.68,318.986L598.53,318.986C600.93,304.061 607.755,276.986 608.055,273.986C607.605,273.011 607.08,272.636 606.18,272.636C605.88,272.636 605.43,272.711 604.905,272.786C603.255,273.011 599.505,276.986 594.705,279.686C591.48,281.486 590.655,283.586 593.055,283.511C595.08,283.436 597.93,282.686 599.805,282.161C598.005,289.586 594.03,307.061 591.855,319.061L588.255,319.061C585.255,319.661 580.83,323.486 584.655,325.061Z" style="fill-rule:nonzero;"/>
                <path d="M611.58,325.061L627.63,324.911L627.78,324.911C628.005,324.986 628.23,324.986 628.455,324.986C630.93,324.986 634.23,322.361 632.955,319.661C632.205,319.061 630.555,318.986 628.605,318.986L625.455,318.986C627.855,304.061 634.68,276.986 634.98,273.986C634.53,273.011 634.005,272.636 633.105,272.636C632.805,272.636 632.355,272.711 631.83,272.786C630.18,273.011 626.43,276.986 621.63,279.686C618.405,281.486 617.58,283.586 619.98,283.511C622.005,283.436 624.855,282.686 626.73,282.161C624.93,289.586 620.955,307.061 618.78,319.061L615.18,319.061C612.18,319.661 607.755,323.486 611.58,325.061Z" style="fill-rule:nonzero;"/>
            </g>
        </g>
    </g>
</svg>
