<?xml version="1.0" encoding="UTF-8" standalone="no"?>
<!DOCTYPE svg PUBLIC "-//W3C//DTD SVG 1.1//EN" "http://www.w3.org/Graphics/SVG/1.1/DTD/svg11.dtd">
<svg width="100%" height="100%" viewBox="0 0 1182 1182" version="1.1" xmlns="http://www.w3.org/2000/svg" xmlns:xlink="http://www.w3.org/1999/xlink" xml:space="preserve" xmlns:serif="http://www.serif.com/" style="fill-rule:evenodd;clip-rule:evenodd;stroke-linecap:round;stroke-linejoin:round;stroke-miterlimit:1.5;">
    <g id="Minute-Dial" serif:id="Minute Dial" transform="matrix(-1.05569,-2.22045e-16,2.22045e-16,-1.05569,1213.99,1213.99)">
        <g transform="matrix(0.848576,0,0,0.848576,202.563,261.232)">
            <circle cx="457.223" cy="388.085" r="614.353" style="fill:rgb(235,235,235);stroke:black;stroke-width:1.4px;"/>
        </g>
        <g id="Minute-Marks" serif:id="Minute Marks">
            <g transform="matrix(2.99258,0,0,2.99258,-1162.71,-1384.29)">
                <path d="M587.547,490.479C586.429,490.467 585.311,490.467 584.193,490.479L584.425,513.877C585.388,513.868 586.352,513.868 587.315,513.877L587.547,490.479ZM502.605,512.34C501.632,512.889 500.663,513.448 499.701,514.017L511.601,534.165C512.43,533.675 513.265,533.193 514.104,532.72L502.605,512.34ZM439.974,573.743C439.406,574.706 438.847,575.674 438.297,576.648L458.677,588.147C459.151,587.307 459.632,586.473 460.122,585.643L439.974,573.743ZM416.436,658.236C416.425,659.354 416.425,660.472 416.436,661.59L439.835,661.358C439.825,660.394 439.825,659.431 439.835,658.467L416.436,658.236ZM438.297,743.177C438.847,744.151 439.406,745.119 439.974,746.082L460.122,734.182C459.632,733.352 459.151,732.518 458.677,731.679L438.297,743.177ZM499.701,805.808C500.663,806.377 501.632,806.936 502.605,807.485L514.104,787.106C513.265,786.632 512.43,786.15 511.601,785.66L499.701,805.808ZM584.193,829.347C585.311,829.358 586.429,829.358 587.547,829.347L587.315,805.948C586.352,805.958 585.388,805.958 584.425,805.948L584.193,829.347ZM669.135,807.485C670.109,806.936 671.077,806.377 672.039,805.808L660.139,785.66C659.31,786.15 658.475,786.632 657.636,787.106L669.135,807.485ZM731.766,746.082C732.334,745.119 732.893,744.151 733.443,743.177L713.063,731.679C712.59,732.518 712.108,733.352 711.618,734.182L731.766,746.082ZM755.304,661.59C755.315,660.472 755.315,659.354 755.304,658.236L731.905,658.467C731.915,659.431 731.915,660.394 731.905,661.358L755.304,661.59ZM733.443,576.648C732.893,575.674 732.334,574.706 731.766,573.743L711.618,585.643C712.108,586.473 712.59,587.307 713.063,588.147L733.443,576.648ZM672.039,514.017C671.077,513.448 670.109,512.889 669.135,512.34L657.636,532.72C658.475,533.193 659.31,533.675 660.139,534.165L672.039,514.017Z"/>
            </g>
            <g transform="matrix(2.99258,0,0,2.99258,-1162.71,-1384.29)">
                <path d="M586.579,490.472C586.106,490.47 585.634,490.47 585.161,490.472L585.222,505.007C585.654,505.005 586.086,505.005 586.518,505.007L586.579,490.472ZM568.863,491.326C568.393,491.373 567.924,491.423 567.454,491.474L569.034,505.924C569.463,505.877 569.893,505.832 570.322,505.788L568.863,491.326ZM551.335,494.027C550.872,494.123 550.41,494.222 549.948,494.322L553.03,508.527C553.452,508.435 553.874,508.346 554.297,508.258L551.335,494.027ZM534.184,498.546C533.734,498.69 533.285,498.836 532.836,498.984L537.385,512.789C537.796,512.654 538.207,512.52 538.618,512.389L534.184,498.546ZM517.6,504.832C517.167,505.023 516.736,505.215 516.305,505.409L522.272,518.663C522.666,518.486 523.061,518.31 523.456,518.136L517.6,504.832ZM501.763,512.818C501.353,513.053 500.944,513.289 500.536,513.527L507.856,526.085C508.229,525.867 508.604,525.651 508.978,525.437L501.763,512.818ZM486.849,522.415C486.465,522.692 486.083,522.969 485.702,523.249L494.295,534.972C494.643,534.717 494.993,534.463 495.343,534.211L486.849,522.415ZM473.019,533.519C472.666,533.834 472.315,534.15 471.965,534.468L481.737,545.229C482.056,544.939 482.377,544.65 482.7,544.362L473.019,533.519ZM460.425,546.008C460.108,546.358 459.791,546.709 459.477,547.061L470.319,556.742C470.607,556.42 470.896,556.099 471.186,555.779L460.425,546.008ZM449.206,559.744C448.927,560.125 448.649,560.508 448.373,560.891L460.168,569.386C460.421,569.035 460.674,568.686 460.93,568.337L449.206,559.744ZM439.484,574.578C439.246,574.987 439.01,575.396 438.776,575.806L451.394,583.021C451.609,582.646 451.825,582.272 452.042,581.899L439.484,574.578ZM431.366,590.347C431.172,590.778 430.98,591.21 430.79,591.642L444.093,597.499C444.267,597.104 444.443,596.709 444.62,596.315L431.366,590.347ZM424.941,606.879C424.793,607.327 424.647,607.777 424.503,608.227L438.346,612.66C438.478,612.249 438.611,611.838 438.747,611.428L424.941,606.879ZM420.279,623.991C420.179,624.452 420.081,624.915 419.984,625.377L434.215,628.34C434.303,627.917 434.393,627.494 434.484,627.072L420.279,623.991ZM417.431,641.496C417.38,641.966 417.331,642.436 417.283,642.906L431.746,644.365C431.789,643.935 431.834,643.506 431.881,643.076L417.431,641.496ZM416.429,659.204C416.427,659.676 416.427,660.149 416.429,660.621L430.965,660.561C430.963,660.129 430.963,659.697 430.965,659.265L416.429,659.204ZM417.283,676.919C417.331,677.389 417.38,677.859 417.431,678.329L431.881,676.749C431.834,676.32 431.789,675.89 431.746,675.46L417.283,676.919ZM419.984,694.448C420.081,694.911 420.179,695.373 420.279,695.835L434.484,692.753C434.393,692.331 434.303,691.908 434.215,691.486L419.984,694.448ZM424.503,711.599C424.647,712.049 424.793,712.498 424.941,712.947L438.747,708.397C438.611,707.987 438.478,707.576 438.346,707.165L424.503,711.599ZM430.79,728.183C430.98,728.615 431.172,729.047 431.366,729.478L444.62,723.51C444.443,723.116 444.267,722.722 444.093,722.326L430.79,728.183ZM438.776,744.019C439.01,744.43 439.246,744.839 439.484,745.247L452.042,737.926C451.825,737.553 451.609,737.179 451.394,736.804L438.776,744.019ZM448.373,758.934C448.649,759.318 448.927,759.7 449.206,760.081L460.93,751.488C460.674,751.14 460.421,750.79 460.168,750.44L448.373,758.934ZM459.477,772.764C459.791,773.117 460.108,773.468 460.425,773.817L471.186,764.046C470.896,763.726 470.607,763.405 470.319,763.083L459.477,772.764ZM471.965,785.358C472.315,785.675 472.666,785.991 473.019,786.306L482.7,775.463C482.377,775.176 482.056,774.887 481.737,774.596L471.965,785.358ZM485.702,796.577C486.083,796.856 486.465,797.134 486.849,797.41L495.343,785.615C494.993,785.362 494.643,785.108 494.295,784.853L485.702,796.577ZM500.536,806.298C500.944,806.536 501.353,806.773 501.763,807.007L508.978,794.389C508.604,794.174 508.229,793.958 507.856,793.741L500.536,806.298ZM516.305,814.416C516.736,814.61 517.167,814.803 517.6,814.993L523.456,801.689C523.061,801.515 522.666,801.34 522.272,801.162L516.305,814.416ZM532.836,820.842C533.285,820.989 533.734,821.135 534.184,821.28L538.618,807.437C538.207,807.305 537.796,807.171 537.385,807.036L532.836,820.842ZM549.948,825.504C550.41,825.604 550.872,825.702 551.335,825.798L554.297,811.568C553.874,811.48 553.452,811.39 553.03,811.298L549.948,825.504ZM567.454,828.351C567.924,828.403 568.393,828.452 568.863,828.499L570.322,814.037C569.893,813.994 569.463,813.949 569.034,813.902L567.454,828.351ZM585.161,829.354C585.634,829.356 586.106,829.356 586.579,829.354L586.518,814.818C586.086,814.82 585.654,814.82 585.222,814.818L585.161,829.354ZM602.877,828.499C603.347,828.452 603.817,828.403 604.286,828.351L602.706,813.902C602.277,813.949 601.847,813.994 601.418,814.037L602.877,828.499ZM620.406,825.798C620.868,825.702 621.33,825.604 621.792,825.504L618.71,811.298C618.288,811.39 617.866,811.48 617.443,811.568L620.406,825.798ZM637.556,821.28C638.006,821.135 638.455,820.989 638.904,820.842L634.355,807.036C633.944,807.171 633.534,807.305 633.122,807.437L637.556,821.28ZM654.14,814.993C654.573,814.803 655.005,814.61 655.435,814.416L649.468,801.162C649.074,801.34 648.679,801.515 648.284,801.689L654.14,814.993ZM669.977,807.007C670.387,806.773 670.796,806.536 671.204,806.298L663.884,793.741C663.511,793.958 663.137,794.174 662.762,794.389L669.977,807.007ZM684.892,797.41C685.275,797.134 685.657,796.856 686.038,796.577L677.445,784.853C677.097,785.108 676.747,785.362 676.397,785.615L684.892,797.41ZM698.721,786.306C699.074,785.991 699.425,785.675 699.775,785.358L690.003,774.596C689.684,774.887 689.363,775.176 689.04,775.463L698.721,786.306ZM711.315,773.817C711.633,773.468 711.949,773.117 712.263,772.764L701.421,763.083C701.133,763.405 700.844,763.726 700.554,764.046L711.315,773.817ZM722.534,760.081C722.813,759.7 723.091,759.318 723.367,758.934L711.572,750.44C711.32,750.79 711.066,751.14 710.81,751.488L722.534,760.081ZM732.256,745.247C732.494,744.839 732.73,744.43 732.965,744.019L720.346,736.804C720.132,737.179 719.916,737.553 719.698,737.926L732.256,745.247ZM740.374,729.478C740.568,729.047 740.76,728.615 740.95,728.183L727.647,722.326C727.473,722.722 727.297,723.116 727.12,723.51L740.374,729.478ZM746.799,712.947C746.947,712.498 747.093,712.049 747.237,711.599L733.394,707.165C733.262,707.576 733.129,707.987 732.994,708.397L746.799,712.947ZM751.461,695.835C751.561,695.373 751.659,694.911 751.756,694.448L737.525,691.486C737.437,691.908 737.347,692.331 737.256,692.753L751.461,695.835ZM754.309,678.329C754.36,677.859 754.409,677.389 754.457,676.919L739.995,675.46C739.951,675.89 739.906,676.32 739.859,676.749L754.309,678.329ZM755.311,660.621C755.313,660.149 755.313,659.676 755.311,659.204L740.775,659.265C740.777,659.697 740.777,660.129 740.775,660.561L755.311,660.621ZM754.457,642.906C754.409,642.436 754.36,641.966 754.309,641.496L739.859,643.076C739.906,643.506 739.951,643.935 739.995,644.365L754.457,642.906ZM751.756,625.377C751.659,624.915 751.561,624.452 751.461,623.991L737.256,627.072C737.347,627.494 737.437,627.917 737.525,628.34L751.756,625.377ZM747.237,608.227C747.093,607.777 746.947,607.327 746.799,606.879L732.994,611.428C733.129,611.838 733.262,612.249 733.394,612.66L747.237,608.227ZM740.95,591.642C740.76,591.21 740.568,590.778 740.374,590.347L727.12,596.315C727.297,596.709 727.473,597.104 727.647,597.499L740.95,591.642ZM732.965,575.806C732.73,575.396 732.494,574.987 732.256,574.578L719.698,581.899C719.916,582.272 720.132,582.646 720.346,583.021L732.965,575.806ZM723.367,560.891C723.091,560.508 722.813,560.125 722.534,559.744L710.81,568.337C711.066,568.686 711.32,569.035 711.572,569.386L723.367,560.891ZM712.263,547.061C711.949,546.709 711.633,546.358 711.315,546.008L700.554,555.779C700.844,556.099 701.133,556.42 701.421,556.742L712.263,547.061ZM699.775,534.468C699.425,534.15 699.074,533.834 698.721,533.519L689.04,544.362C689.363,544.65 689.684,544.939 690.003,545.229L699.775,534.468ZM686.038,523.249C685.657,522.969 685.275,522.692 684.892,522.415L676.397,534.211C676.747,534.463 677.097,534.717 677.445,534.972L686.038,523.249ZM671.204,513.527C670.796,513.289 670.387,513.053 669.977,512.818L662.762,525.437C663.137,525.651 663.511,525.867 663.884,526.085L671.204,513.527ZM655.435,505.409C655.005,505.215 654.573,505.023 654.14,504.832L648.284,518.136C648.679,518.31 649.074,518.486 649.468,518.663L655.435,505.409ZM638.904,498.984C638.455,498.836 638.006,498.69 637.556,498.546L633.122,512.389C633.534,512.52 633.944,512.654 634.355,512.789L638.904,498.984ZM621.792,494.322C621.33,494.222 620.868,494.123 620.406,494.027L617.443,508.258C617.866,508.346 618.288,508.435 618.71,508.527L621.792,494.322ZM604.286,491.474C603.817,491.423 603.347,491.373 602.877,491.326L601.418,505.788C601.847,505.832 602.277,505.877 602.706,505.924L604.286,491.474Z"/>
            </g>
            <g transform="matrix(2.99258,0,0,2.99258,-1162.71,-1384.29)">
                <path d="M586.129,490.47C585.956,490.47 585.784,490.47 585.611,490.47L585.62,496.012C585.787,496.011 585.954,496.011 586.121,496.012L586.129,490.47ZM583.172,490.492C582.999,490.494 582.827,490.497 582.654,490.501L582.759,496.041C582.926,496.038 583.093,496.035 583.26,496.032L583.172,490.492ZM580.215,490.565C580.043,490.57 579.87,490.576 579.698,490.583L579.9,496.12C580.067,496.114 580.233,496.108 580.4,496.103L580.215,490.565ZM577.261,490.689C577.088,490.698 576.916,490.707 576.744,490.716L577.042,496.249C577.209,496.24 577.375,496.232 577.542,496.223L577.261,490.689ZM574.309,490.865C574.136,490.877 573.964,490.889 573.792,490.901L574.187,496.428C574.354,496.416 574.52,496.405 574.687,496.393L574.309,490.865ZM571.36,491.093C571.188,491.107 571.016,491.122 570.844,491.138L571.336,496.657C571.502,496.642 571.668,496.628 571.835,496.613L571.36,491.093ZM568.416,491.372C568.244,491.389 568.073,491.407 567.901,491.426L568.489,496.936C568.655,496.918 568.821,496.9 568.987,496.883L568.416,491.372ZM565.477,491.702C565.306,491.723 565.135,491.744 564.963,491.765L565.647,497.264C565.813,497.243 565.978,497.223 566.144,497.203L565.477,491.702ZM562.545,492.083C562.374,492.107 562.203,492.131 562.032,492.155L562.811,497.642C562.977,497.618 563.142,497.595 563.307,497.572L562.545,492.083ZM559.619,492.516C559.449,492.543 559.278,492.57 559.108,492.597L559.983,498.069C560.148,498.042 560.313,498.016 560.478,497.99L559.619,492.516ZM556.702,493C556.532,493.029 556.362,493.059 556.192,493.09L557.162,498.545C557.327,498.516 557.491,498.487 557.656,498.458L556.702,493ZM553.793,493.534C553.624,493.567 553.454,493.6 553.285,493.633L554.35,499.071C554.514,499.039 554.678,499.007 554.842,498.975L553.793,493.534ZM550.894,494.119C550.725,494.155 550.557,494.191 550.388,494.227L551.548,499.645C551.711,499.61 551.875,499.576 552.038,499.541L550.894,494.119ZM548.006,494.755C547.838,494.794 547.67,494.832 547.502,494.871L548.756,500.269C548.919,500.231 549.082,500.193 549.244,500.156L548.006,494.755ZM545.13,495.441C544.962,495.482 544.794,495.524 544.627,495.566L545.976,500.941C546.138,500.9 546.3,500.86 546.462,500.82L545.13,495.441ZM542.265,496.177C542.098,496.221 541.932,496.266 541.765,496.311L543.207,501.661C543.369,501.618 543.53,501.575 543.691,501.532L542.265,496.177ZM539.414,496.963C539.248,497.01 539.082,497.058 538.917,497.106L540.452,502.43C540.612,502.384 540.773,502.338 540.934,502.292L539.414,496.963ZM536.578,497.799C536.412,497.849 536.247,497.899 536.082,497.95L537.711,503.247C537.87,503.197 538.03,503.149 538.19,503.1L536.578,497.799ZM533.756,498.684C533.592,498.737 533.427,498.79 533.263,498.844L534.984,504.111C535.142,504.059 535.301,504.007 535.46,503.956L533.756,498.684ZM530.95,499.618C530.787,499.674 530.623,499.73 530.46,499.786L532.272,505.023C532.43,504.968 532.588,504.914 532.746,504.86L530.95,499.618ZM528.161,500.601C527.998,500.659 527.836,500.718 527.674,500.778L529.577,505.982C529.734,505.924 529.891,505.867 530.048,505.81L528.161,500.601ZM525.389,501.632C525.228,501.694 525.067,501.755 524.906,501.818L526.899,506.988C527.055,506.927 527.211,506.868 527.367,506.808L525.389,501.632ZM522.636,502.712C522.476,502.776 522.316,502.841 522.156,502.906L524.239,508.04C524.394,507.977 524.549,507.915 524.704,507.852L522.636,502.712ZM519.902,503.839C519.743,503.906 519.584,503.974 519.425,504.041L521.598,509.139C521.752,509.073 521.906,509.008 522.059,508.943L519.902,503.839ZM517.188,505.014C517.03,505.084 516.873,505.154 516.715,505.225L518.977,510.283C519.129,510.215 519.282,510.147 519.434,510.08L517.188,505.014ZM514.495,506.236C514.339,506.309 514.182,506.382 514.026,506.455L516.375,511.474C516.527,511.403 516.678,511.332 516.829,511.262L514.495,506.236ZM511.824,507.506C511.669,507.581 511.514,507.657 511.359,507.733L513.795,512.709C513.945,512.636 514.095,512.563 514.246,512.49L511.824,507.506ZM509.176,508.821C509.022,508.899 508.868,508.977 508.714,509.056L511.237,513.989C511.386,513.913 511.535,513.838 511.684,513.762L509.176,508.821ZM506.55,510.183C506.398,510.263 506.245,510.344 506.093,510.426L508.702,515.314C508.849,515.236 508.997,515.157 509.144,515.079L506.55,510.183ZM503.949,511.59C503.798,511.673 503.647,511.757 503.496,511.841L506.19,516.683C506.336,516.602 506.482,516.521 506.628,516.44L503.949,511.59ZM501.373,513.042C501.224,513.128 501.074,513.214 500.925,513.301L503.703,518.095C503.847,518.012 503.992,517.928 504.136,517.845L501.373,513.042ZM498.823,514.539C498.675,514.628 498.527,514.717 498.379,514.806L501.24,519.551C501.383,519.465 501.526,519.379 501.669,519.293L498.823,514.539ZM496.299,516.08C496.152,516.172 496.006,516.263 495.86,516.355L498.803,521.049C498.945,520.961 499.086,520.872 499.228,520.784L496.299,516.08ZM493.802,517.665C493.657,517.759 493.513,517.853 493.368,517.947L496.393,522.59C496.533,522.499 496.673,522.408 496.813,522.317L493.802,517.665ZM491.334,519.294C491.191,519.39 491.047,519.487 490.905,519.583L494.01,524.173C494.148,524.079 494.287,523.986 494.425,523.892L491.334,519.294ZM488.894,520.965C488.753,521.064 488.611,521.163 488.47,521.262L491.655,525.796C491.792,525.7 491.929,525.605 492.065,525.509L488.894,520.965ZM486.484,522.679C486.344,522.78 486.204,522.882 486.065,522.983L489.329,527.461C489.464,527.363 489.599,527.265 489.734,527.167L486.484,522.679ZM484.104,524.434C483.966,524.538 483.828,524.642 483.69,524.746L487.032,529.166C487.165,529.065 487.298,528.965 487.432,528.865L484.104,524.434ZM481.755,526.231C481.619,526.337 481.483,526.443 481.347,526.55L484.765,530.911C484.897,530.808 485.028,530.705 485.16,530.603L481.755,526.231ZM479.438,528.068C479.304,528.177 479.169,528.285 479.035,528.394L482.529,532.695C482.659,532.59 482.788,532.485 482.918,532.38L479.438,528.068ZM477.153,529.946C477.021,530.057 476.888,530.168 476.756,530.279L480.325,534.518C480.452,534.411 480.58,534.303 480.708,534.196L477.153,529.946ZM474.901,531.863C474.771,531.976 474.641,532.089 474.511,532.203L478.152,536.379C478.278,536.27 478.404,536.16 478.53,536.051L474.901,531.863ZM472.684,533.819C472.555,533.935 472.427,534.05 472.299,534.166L476.013,538.278C476.137,538.166 476.261,538.054 476.385,537.943L472.684,533.819ZM470.5,535.814C470.374,535.931 470.247,536.049 470.121,536.167L473.907,540.214C474.029,540.1 474.151,539.986 474.273,539.872L470.5,535.814ZM468.352,537.846C468.228,537.966 468.103,538.086 467.979,538.206L471.835,542.186C471.955,542.07 472.075,541.954 472.195,541.838L468.352,537.846ZM466.239,539.916C466.117,540.038 465.995,540.16 465.873,540.282L469.797,544.194C469.915,544.076 470.033,543.958 470.152,543.84L466.239,539.916ZM464.163,542.022C464.043,542.146 463.923,542.27 463.804,542.394L467.796,546.238C467.911,546.117 468.027,545.997 468.143,545.877L464.163,542.022ZM462.124,544.164C462.007,544.29 461.889,544.416 461.771,544.543L465.83,548.316C465.943,548.193 466.057,548.071 466.171,547.949L462.124,544.164ZM460.123,546.341C460.008,546.469 459.892,546.598 459.777,546.726L463.9,550.428C464.012,550.303 464.123,550.179 464.235,550.055L460.123,546.341ZM458.16,548.553C458.047,548.683 457.934,548.814 457.821,548.944L462.008,552.573C462.117,552.447 462.227,552.321 462.337,552.195L458.16,548.553ZM456.236,550.799C456.125,550.931 456.014,551.063 455.903,551.196L460.154,554.751C460.261,554.623 460.368,554.495 460.476,554.367L456.236,550.799ZM454.352,553.078C454.243,553.212 454.134,553.346 454.026,553.48L458.337,556.961C458.442,556.831 458.547,556.701 458.653,556.572L454.352,553.078ZM452.507,555.39C452.401,555.525 452.294,555.661 452.188,555.798L456.56,559.202C456.663,559.071 456.765,558.939 456.868,558.808L452.507,555.39ZM450.703,557.733C450.599,557.871 450.495,558.009 450.392,558.147L454.822,561.475C454.922,561.341 455.023,561.208 455.124,561.075L450.703,557.733ZM448.941,560.108C448.839,560.247 448.737,560.387 448.636,560.526L453.124,563.777C453.222,563.641 453.32,563.506 453.419,563.371L448.941,560.108ZM447.22,562.513C447.12,562.654 447.021,562.795 446.923,562.937L451.467,566.108C451.562,565.971 451.658,565.834 451.754,565.698L447.22,562.513ZM445.541,564.947C445.444,565.09 445.348,565.233 445.251,565.376L449.85,568.468C449.943,568.329 450.036,568.191 450.13,568.053L445.541,564.947ZM443.905,567.411C443.811,567.555 443.717,567.7 443.623,567.845L448.275,570.856C448.365,570.716 448.456,570.576 448.547,570.436L443.905,567.411ZM442.312,569.902C442.22,570.049 442.129,570.195 442.038,570.342L446.741,573.271C446.83,573.129 446.918,572.987 447.007,572.846L442.312,569.902ZM440.763,572.422C440.674,572.569 440.585,572.717 440.496,572.865L445.25,575.712C445.336,575.569 445.422,575.426 445.508,575.283L440.763,572.422ZM439.258,574.967C439.172,575.117 439.085,575.266 438.999,575.416L443.802,578.179C443.886,578.034 443.969,577.89 444.053,577.745L439.258,574.967ZM437.798,577.539C437.714,577.69 437.63,577.841 437.547,577.992L442.398,580.671C442.478,580.525 442.559,580.379 442.64,580.233L437.798,577.539ZM436.383,580.136C436.302,580.288 436.221,580.44 436.14,580.593L441.036,583.187C441.115,583.039 441.193,582.892 441.272,582.745L436.383,580.136ZM435.013,582.757C434.935,582.91 434.857,583.064 434.778,583.218L439.719,585.726C439.795,585.577 439.871,585.429 439.947,585.28L435.013,582.757ZM433.69,585.401C433.614,585.556 433.538,585.712 433.463,585.867L438.447,588.288C438.52,588.138 438.593,587.988 438.667,587.838L433.69,585.401ZM432.413,588.069C432.34,588.225 432.267,588.381 432.194,588.538L437.219,590.872C437.29,590.721 437.36,590.569 437.431,590.418L432.413,588.069ZM431.182,590.758C431.112,590.915 431.042,591.073 430.972,591.231L436.037,593.477C436.105,593.324 436.173,593.172 436.241,593.019L431.182,590.758ZM429.999,593.468C429.931,593.627 429.864,593.786 429.797,593.945L434.9,596.102C434.965,595.948 435.031,595.794 435.096,595.641L429.999,593.468ZM428.863,596.198C428.798,596.358 428.733,596.518 428.669,596.679L433.81,598.746C433.872,598.592 433.935,598.437 433.997,598.282L428.863,596.198ZM427.775,598.948C427.713,599.109 427.651,599.27 427.589,599.432L432.765,601.41C432.825,601.254 432.885,601.098 432.945,600.942L427.775,598.948ZM426.735,601.717C426.676,601.879 426.617,602.041 426.558,602.203L431.768,604.091C431.825,603.934 431.882,603.777 431.939,603.62L426.735,601.717ZM425.744,604.503C425.687,604.666 425.631,604.829 425.575,604.992L430.817,606.788C430.871,606.631 430.925,606.473 430.98,606.315L425.744,604.503ZM424.801,607.306C424.747,607.47 424.694,607.634 424.641,607.798L429.913,609.503C429.965,609.344 430.016,609.185 430.068,609.026L424.801,607.306ZM423.907,610.125C423.857,610.29 423.806,610.455 423.756,610.62L429.057,612.232C429.106,612.072 429.155,611.913 429.204,611.753L423.907,610.125ZM423.063,612.959C423.015,613.125 422.968,613.291 422.92,613.457L428.249,614.976C428.295,614.816 428.341,614.655 428.387,614.495L423.063,612.959ZM422.268,615.808C422.224,615.974 422.179,616.141 422.134,616.308L427.489,617.734C427.532,617.573 427.575,617.411 427.619,617.25L422.268,615.808ZM421.524,618.67C421.482,618.837 421.44,619.005 421.398,619.172L426.777,620.504C426.817,620.342 426.858,620.18 426.898,620.018L421.524,618.67ZM420.829,621.544C420.79,621.712 420.751,621.88 420.712,622.049L426.113,623.287C426.151,623.124 426.188,622.962 426.226,622.799L420.829,621.544ZM420.184,624.43C420.148,624.599 420.112,624.768 420.077,624.937L425.499,626.081C425.533,625.917 425.568,625.754 425.603,625.591L420.184,624.43ZM419.59,627.327C419.557,627.497 419.524,627.666 419.492,627.836L424.933,628.885C424.964,628.721 424.996,628.557 425.028,628.393L419.59,627.327ZM419.047,630.234C419.017,630.404 418.987,630.574 418.957,630.744L424.416,631.698C424.444,631.534 424.473,631.369 424.503,631.205L419.047,630.234ZM418.554,633.15C418.527,633.321 418.5,633.491 418.473,633.662L423.948,634.52C423.974,634.355 424,634.19 424.026,634.026L418.554,633.15ZM418.113,636.074C418.089,636.245 418.065,636.416 418.041,636.587L423.529,637.35C423.552,637.185 423.575,637.019 423.599,636.854L418.113,636.074ZM417.722,639.006C417.701,639.177 417.68,639.348 417.659,639.52L423.16,640.187C423.18,640.021 423.201,639.855 423.221,639.69L417.722,639.006ZM417.383,641.944C417.365,642.115 417.347,642.287 417.329,642.459L422.841,643.029C422.858,642.863 422.875,642.697 422.893,642.531L417.383,641.944ZM417.095,644.887C417.08,645.059 417.065,645.231 417.05,645.403L422.571,645.877C422.585,645.711 422.6,645.545 422.615,645.378L417.095,644.887ZM416.859,647.835C416.846,648.007 416.834,648.179 416.823,648.351L422.351,648.729C422.362,648.563 422.374,648.396 422.386,648.23L416.859,647.835ZM416.674,650.786C416.664,650.959 416.655,651.131 416.647,651.303L422.181,651.585C422.189,651.418 422.198,651.251 422.207,651.085L416.674,650.786ZM416.54,653.74C416.534,653.913 416.528,654.085 416.522,654.258L422.06,654.443C422.066,654.276 422.071,654.109 422.078,653.942L416.54,653.74ZM416.458,656.697C416.455,656.869 416.452,657.042 416.449,657.214L421.99,657.303C421.992,657.136 421.995,656.969 421.998,656.802L416.458,656.697ZM416.428,659.654C416.428,659.826 416.428,659.999 416.428,660.172L421.969,660.163C421.969,659.996 421.969,659.829 421.969,659.662L416.428,659.654ZM416.449,662.611C416.452,662.784 416.455,662.956 416.458,663.129L421.998,663.024C421.995,662.857 421.992,662.69 421.99,662.523L416.449,662.611ZM416.522,665.567C416.528,665.74 416.534,665.912 416.54,666.085L422.078,665.883C422.071,665.716 422.066,665.549 422.06,665.382L416.522,665.567ZM416.647,668.522C416.655,668.694 416.664,668.867 416.674,669.039L422.207,668.741C422.198,668.574 422.189,668.407 422.181,668.24L416.647,668.522ZM416.823,671.474C416.834,671.646 416.846,671.818 416.859,671.991L422.386,671.596C422.374,671.429 422.362,671.263 422.351,671.096L416.823,671.474ZM417.05,674.423C417.065,674.595 417.08,674.767 417.095,674.938L422.615,674.447C422.6,674.281 422.585,674.114 422.571,673.948L417.05,674.423ZM417.329,677.367C417.347,677.538 417.365,677.71 417.383,677.882L422.893,677.294C422.875,677.128 422.858,676.962 422.841,676.796L417.329,677.367ZM417.659,680.305C417.68,680.477 417.701,680.648 417.722,680.819L423.221,680.136C423.201,679.97 423.18,679.804 423.16,679.639L417.659,680.305ZM418.041,683.238C418.065,683.409 418.089,683.58 418.113,683.751L423.599,682.971C423.575,682.806 423.552,682.641 423.529,682.475L418.041,683.238ZM418.473,686.164C418.5,686.334 418.527,686.505 418.554,686.675L424.026,685.8C424,685.635 423.974,685.47 423.948,685.305L418.473,686.164ZM418.957,689.081C418.987,689.251 419.017,689.421 419.047,689.591L424.503,688.62C424.473,688.456 424.444,688.292 424.416,688.127L418.957,689.081ZM419.492,691.99C419.524,692.159 419.557,692.329 419.59,692.498L425.028,691.432C424.996,691.268 424.964,691.105 424.933,690.941L419.492,691.99ZM420.077,694.888C420.112,695.057 420.148,695.226 420.184,695.395L425.603,694.235C425.568,694.071 425.533,693.908 425.499,693.745L420.077,694.888ZM420.712,697.777C420.751,697.945 420.79,698.113 420.829,698.281L426.226,697.026C426.188,696.864 426.151,696.701 426.113,696.538L420.712,697.777ZM421.398,700.653C421.44,700.821 421.482,700.988 421.524,701.156L426.898,699.807C426.858,699.645 426.817,699.483 426.777,699.321L421.398,700.653ZM422.134,703.517C422.179,703.684 422.224,703.851 422.268,704.018L427.619,702.575C427.575,702.414 427.532,702.253 427.489,702.091L422.134,703.517ZM422.92,706.368C422.968,706.534 423.015,706.7 423.063,706.866L428.387,705.331C428.341,705.17 428.295,705.01 428.249,704.849L422.92,706.368ZM423.756,709.205C423.806,709.37 423.857,709.535 423.907,709.7L429.204,708.072C429.155,707.913 429.106,707.753 429.057,707.593L423.756,709.205ZM424.641,712.027C424.694,712.191 424.747,712.355 424.801,712.519L430.068,710.799C430.016,710.64 429.965,710.482 429.913,710.323L424.641,712.027ZM425.575,714.833C425.631,714.996 425.687,715.159 425.744,715.322L430.98,713.51C430.925,713.353 430.871,713.195 430.817,713.037L425.575,714.833ZM426.558,717.622C426.617,717.784 426.676,717.946 426.735,718.109L431.939,716.205C431.882,716.049 431.825,715.892 431.768,715.735L426.558,717.622ZM427.589,720.394C427.651,720.555 427.713,720.716 427.775,720.877L432.945,718.883C432.885,718.728 432.825,718.572 432.765,718.416L427.589,720.394ZM428.669,723.147C428.733,723.307 428.798,723.467 428.863,723.627L433.997,721.543C433.935,721.389 433.872,721.234 433.81,721.079L428.669,723.147ZM429.797,725.881C429.864,726.04 429.931,726.199 429.999,726.357L435.096,724.184C435.031,724.031 434.965,723.877 434.9,723.723L429.797,725.881ZM430.972,728.594C431.042,728.752 431.112,728.91 431.182,729.068L436.241,726.806C436.173,726.654 436.105,726.501 436.037,726.348L430.972,728.594ZM432.194,731.287C432.267,731.444 432.34,731.6 432.413,731.757L437.431,729.407C437.36,729.256 437.29,729.105 437.219,728.953L432.194,731.287ZM433.463,733.959C433.538,734.114 433.614,734.269 433.69,734.424L438.667,731.987C438.593,731.837 438.52,731.687 438.447,731.537L433.463,733.959ZM434.778,736.607C434.857,736.761 434.935,736.915 435.013,737.068L439.947,734.545C439.871,734.397 439.795,734.248 439.719,734.099L434.778,736.607ZM436.14,739.232C436.221,739.385 436.302,739.537 436.383,739.69L441.272,737.081C441.193,736.933 441.115,736.786 441.036,736.638L436.14,739.232ZM437.547,741.833C437.63,741.985 437.714,742.135 437.798,742.286L442.64,739.593C442.559,739.447 442.478,739.301 442.398,739.154L437.547,741.833ZM438.999,744.41C439.085,744.559 439.172,744.709 439.258,744.858L444.053,742.08C443.969,741.936 443.886,741.791 443.802,741.646L438.999,744.41ZM440.496,746.96C440.585,747.108 440.674,747.256 440.763,747.404L445.508,744.543C445.422,744.4 445.336,744.257 445.25,744.113L440.496,746.96ZM442.038,749.484C442.129,749.63 442.22,749.777 442.312,749.923L447.007,746.979C446.918,746.838 446.83,746.696 446.741,746.555L442.038,749.484ZM443.623,751.98C443.717,752.125 443.811,752.27 443.905,752.415L448.547,749.39C448.456,749.25 448.365,749.11 448.275,748.97L443.623,751.98ZM445.251,754.449C445.348,754.592 445.444,754.735 445.541,754.878L450.13,751.773C450.036,751.634 449.943,751.496 449.85,751.357L445.251,754.449ZM446.923,756.889C447.021,757.03 447.12,757.172 447.22,757.313L451.754,754.128C451.658,753.991 451.562,753.854 451.467,753.717L446.923,756.889ZM448.636,759.299C448.737,759.439 448.839,759.578 448.941,759.718L453.419,756.454C453.32,756.319 453.222,756.184 453.124,756.049L448.636,759.299ZM450.392,761.679C450.495,761.817 450.599,761.955 450.703,762.092L455.124,758.751C455.023,758.618 454.922,758.484 454.822,758.351L450.392,761.679ZM452.188,764.028C452.294,764.164 452.401,764.3 452.507,764.436L456.868,761.018C456.765,760.886 456.663,760.755 456.56,760.623L452.188,764.028ZM454.026,766.345C454.134,766.479 454.243,766.613 454.352,766.747L458.653,763.254C458.547,763.124 458.442,762.994 458.337,762.864L454.026,766.345ZM455.903,768.63C456.014,768.762 456.125,768.894 456.236,769.026L460.476,765.458C460.368,765.33 460.261,765.202 460.154,765.074L455.903,768.63ZM457.821,770.881C457.934,771.012 458.047,771.142 458.16,771.272L462.337,767.63C462.227,767.505 462.117,767.379 462.008,767.252L457.821,770.881ZM459.777,773.099C459.892,773.228 460.008,773.356 460.123,773.484L464.235,769.77C464.123,769.646 464.012,769.522 463.9,769.398L459.777,773.099ZM461.771,775.283C461.889,775.409 462.007,775.535 462.124,775.661L466.171,771.876C466.057,771.754 465.943,771.632 465.83,771.51L461.771,775.283ZM463.804,777.431C463.923,777.555 464.043,777.679 464.163,777.803L468.143,773.948C468.027,773.828 467.911,773.708 467.796,773.588L463.804,777.431ZM465.873,779.543C465.995,779.666 466.117,779.788 466.239,779.909L470.152,775.985C470.033,775.867 469.915,775.749 469.797,775.631L465.873,779.543ZM467.979,781.619C468.103,781.739 468.228,781.859 468.352,781.979L472.195,777.987C472.075,777.871 471.955,777.755 471.835,777.639L467.979,781.619ZM470.121,783.658C470.247,783.776 470.374,783.894 470.5,784.011L474.273,779.953C474.151,779.839 474.029,779.726 473.907,779.611L470.121,783.658ZM472.299,785.659C472.427,785.775 472.555,785.891 472.684,786.006L476.385,781.882C476.261,781.771 476.137,781.659 476.013,781.547L472.299,785.659ZM474.511,787.622C474.641,787.736 474.771,787.849 474.901,787.962L478.53,783.775C478.404,783.665 478.278,783.556 478.152,783.446L474.511,787.622ZM476.756,789.546C476.888,789.658 477.021,789.769 477.153,789.879L480.708,785.629C480.58,785.522 480.452,785.415 480.325,785.307L476.756,789.546ZM479.035,791.431C479.169,791.54 479.304,791.648 479.438,791.757L482.918,787.445C482.788,787.34 482.659,787.235 482.529,787.13L479.035,791.431ZM481.347,793.276C481.483,793.382 481.619,793.488 481.755,793.594L485.16,789.223C485.028,789.12 484.897,789.017 484.765,788.914L481.347,793.276ZM483.69,795.079C483.828,795.183 483.966,795.287 484.104,795.391L487.432,790.961C487.298,790.86 487.165,790.76 487.032,790.659L483.69,795.079ZM486.065,796.842C486.204,796.944 486.344,797.045 486.484,797.146L489.734,792.659C489.599,792.561 489.464,792.463 489.329,792.364L486.065,796.842ZM488.47,798.563C488.611,798.662 488.753,798.761 488.894,798.86L492.065,794.316C491.929,794.221 491.792,794.125 491.655,794.029L488.47,798.563ZM490.905,800.242C491.047,800.339 491.191,800.435 491.334,800.531L494.425,795.933C494.287,795.84 494.148,795.746 494.01,795.653L490.905,800.242ZM493.368,801.878C493.513,801.972 493.657,802.066 493.802,802.16L496.813,797.508C496.673,797.417 496.533,797.326 496.393,797.235L493.368,801.878ZM495.86,803.471C496.006,803.562 496.152,803.654 496.299,803.745L499.228,799.041C499.086,798.953 498.945,798.865 498.803,798.776L495.86,803.471ZM498.379,805.02C498.527,805.109 498.675,805.198 498.823,805.286L501.669,800.532C501.526,800.447 501.383,800.361 501.24,800.274L498.379,805.02ZM500.925,806.524C501.074,806.611 501.224,806.697 501.373,806.783L504.136,801.98C503.992,801.897 503.847,801.814 503.703,801.73L500.925,806.524ZM503.496,807.985C503.647,808.069 503.798,808.152 503.949,808.236L506.628,803.385C506.482,803.304 506.336,803.224 506.19,803.142L503.496,807.985ZM506.093,809.4C506.245,809.481 506.398,809.562 506.55,809.643L509.144,804.746C508.997,804.668 508.849,804.59 508.702,804.511L506.093,809.4ZM508.714,810.769C508.868,810.848 509.022,810.926 509.176,811.004L511.684,806.063C511.535,805.988 511.386,805.912 511.237,805.836L508.714,810.769ZM511.359,812.093C511.514,812.169 511.669,812.244 511.824,812.32L514.246,807.336C514.095,807.263 513.945,807.19 513.795,807.116L511.359,812.093ZM514.026,813.37C514.182,813.443 514.339,813.516 514.495,813.589L516.829,808.563C516.678,808.493 516.527,808.422 516.375,808.352L514.026,813.37ZM516.715,814.6C516.873,814.671 517.03,814.741 517.188,814.811L519.434,809.746C519.282,809.678 519.129,809.61 518.977,809.542L516.715,814.6ZM519.425,815.784C519.584,815.852 519.743,815.919 519.902,815.986L522.059,810.882C521.906,810.817 521.752,810.752 521.598,810.687L519.425,815.784ZM522.156,816.92C522.316,816.985 522.476,817.049 522.636,817.114L524.704,811.973C524.549,811.911 524.394,811.848 524.239,811.785L522.156,816.92ZM524.906,818.008C525.067,818.07 525.228,818.132 525.389,818.193L527.367,813.017C527.211,812.958 527.055,812.898 526.899,812.838L524.906,818.008ZM527.674,819.048C527.836,819.107 527.998,819.166 528.161,819.225L530.048,814.015C529.891,813.958 529.734,813.901 529.577,813.844L527.674,819.048ZM530.46,820.039C530.623,820.096 530.787,820.152 530.95,820.208L532.746,814.966C532.588,814.912 532.43,814.857 532.272,814.803L530.46,820.039ZM533.263,820.982C533.427,821.035 533.592,821.089 533.756,821.142L535.46,815.869C535.301,815.818 535.142,815.766 534.984,815.714L533.263,820.982ZM536.082,821.875C536.247,821.926 536.412,821.977 536.578,822.027L538.19,816.725C538.03,816.677 537.87,816.628 537.711,816.579L536.082,821.875ZM538.917,822.72C539.082,822.767 539.248,822.815 539.414,822.862L540.934,817.534C540.773,817.488 540.612,817.442 540.452,817.395L538.917,822.72ZM541.765,823.514C541.932,823.559 542.098,823.604 542.265,823.648L543.691,818.294C543.53,818.251 543.369,818.208 543.207,818.164L541.765,823.514ZM544.627,824.259C544.794,824.301 544.962,824.343 545.13,824.384L546.462,819.006C546.3,818.966 546.138,818.925 545.976,818.885L544.627,824.259ZM547.502,824.954C547.67,824.993 547.838,825.032 548.006,825.07L549.244,819.669C549.082,819.632 548.919,819.594 548.756,819.557L547.502,824.954ZM550.388,825.598C550.557,825.634 550.725,825.67 550.894,825.706L552.038,820.284C551.875,820.25 551.711,820.215 551.548,820.18L550.388,825.598ZM553.285,826.192C553.454,826.226 553.624,826.258 553.793,826.291L554.842,820.85C554.678,820.819 554.514,820.787 554.35,820.755L553.285,826.192ZM556.192,826.736C556.362,826.766 556.532,826.796 556.702,826.826L557.656,821.367C557.491,821.338 557.327,821.309 557.162,821.28L556.192,826.736ZM559.108,827.228C559.278,827.255 559.449,827.282 559.619,827.309L560.478,821.835C560.313,821.809 560.148,821.783 559.983,821.757L559.108,827.228ZM562.032,827.67C562.203,827.694 562.374,827.718 562.545,827.742L563.307,822.253C563.142,822.231 562.977,822.207 562.811,822.184L562.032,827.67ZM564.963,828.06C565.135,828.082 565.306,828.103 565.477,828.123L566.144,822.623C565.978,822.602 565.813,822.582 565.647,822.562L564.963,828.06ZM567.901,828.4C568.073,828.418 568.244,828.436 568.416,828.454L568.987,822.942C568.821,822.925 568.655,822.907 568.489,822.89L567.901,828.4ZM570.844,828.688C571.016,828.703 571.188,828.718 571.36,828.733L571.835,823.212C571.668,823.198 571.502,823.183 571.336,823.168L570.844,828.688ZM573.792,828.924C573.964,828.936 574.136,828.948 574.309,828.96L574.687,823.432C574.52,823.421 574.354,823.409 574.187,823.397L573.792,828.924ZM576.744,829.109C576.916,829.118 577.088,829.127 577.261,829.136L577.542,823.602C577.375,823.594 577.209,823.585 577.042,823.576L576.744,829.109ZM579.698,829.243C579.87,829.249 580.043,829.255 580.215,829.261L580.4,823.723C580.233,823.717 580.067,823.711 579.9,823.705L579.698,829.243ZM582.654,829.325C582.827,829.328 582.999,829.331 583.172,829.334L583.26,823.793C583.093,823.79 582.926,823.788 582.759,823.784L582.654,829.325ZM585.611,829.355C585.784,829.355 585.956,829.355 586.129,829.355L586.121,823.814C585.954,823.814 585.787,823.814 585.62,823.814L585.611,829.355ZM588.568,829.334C588.741,829.331 588.914,829.328 589.086,829.325L588.981,823.784C588.814,823.788 588.647,823.79 588.48,823.793L588.568,829.334ZM591.525,829.261C591.697,829.255 591.87,829.249 592.042,829.243L591.84,823.705C591.674,823.711 591.507,823.717 591.34,823.723L591.525,829.261ZM594.479,829.136C594.652,829.127 594.824,829.118 594.997,829.109L594.698,823.576C594.531,823.585 594.365,823.594 594.198,823.602L594.479,829.136ZM597.431,828.96C597.604,828.948 597.776,828.936 597.948,828.924L597.553,823.397C597.387,823.409 597.22,823.421 597.053,823.432L597.431,828.96ZM600.38,828.733C600.552,828.718 600.724,828.703 600.896,828.688L600.404,823.168C600.238,823.183 600.072,823.198 599.905,823.212L600.38,828.733ZM603.324,828.454C603.496,828.436 603.667,828.418 603.839,828.4L603.251,822.89C603.085,822.907 602.919,822.925 602.753,822.942L603.324,828.454ZM606.263,828.123C606.434,828.103 606.606,828.082 606.777,828.06L606.093,822.562C605.927,822.582 605.762,822.602 605.596,822.623L606.263,828.123ZM609.195,827.742C609.366,827.718 609.537,827.694 609.708,827.67L608.929,822.184C608.763,822.207 608.598,822.231 608.433,822.253L609.195,827.742ZM612.121,827.309C612.291,827.282 612.462,827.255 612.632,827.228L611.757,821.757C611.592,821.783 611.427,821.809 611.262,821.835L612.121,827.309ZM615.038,826.826C615.208,826.796 615.378,826.766 615.548,826.736L614.578,821.28C614.413,821.309 614.249,821.338 614.085,821.367L615.038,826.826ZM617.947,826.291C618.116,826.258 618.286,826.226 618.455,826.192L617.39,820.755C617.226,820.787 617.062,820.819 616.898,820.85L617.947,826.291ZM620.846,825.706C621.015,825.67 621.184,825.634 621.352,825.598L620.192,820.18C620.029,820.215 619.865,820.25 619.702,820.284L620.846,825.706ZM623.734,825.07C623.902,825.032 624.07,824.993 624.239,824.954L622.984,819.557C622.821,819.594 622.658,819.632 622.496,819.669L623.734,825.07ZM626.611,824.384C626.778,824.343 626.946,824.301 627.113,824.259L625.764,818.885C625.602,818.925 625.44,818.966 625.278,819.006L626.611,824.384ZM629.475,823.648C629.642,823.604 629.808,823.559 629.975,823.514L628.533,818.164C628.371,818.208 628.21,818.251 628.049,818.294L629.475,823.648ZM632.326,822.862C632.492,822.815 632.658,822.767 632.824,822.72L631.288,817.395C631.128,817.442 630.967,817.488 630.807,817.534L632.326,822.862ZM635.163,822.027C635.328,821.977 635.493,821.926 635.658,821.875L634.03,816.579C633.87,816.628 633.71,816.677 633.551,816.725L635.163,822.027ZM637.984,821.142C638.149,821.089 638.313,821.035 638.477,820.982L636.756,815.714C636.598,815.766 636.439,815.818 636.28,815.869L637.984,821.142ZM640.79,820.208C640.954,820.152 641.117,820.096 641.28,820.039L639.468,814.803C639.31,814.857 639.152,814.912 638.994,814.966L640.79,820.208ZM643.579,819.225C643.742,819.166 643.904,819.107 644.066,819.048L642.163,813.844C642.006,813.901 641.849,813.958 641.692,814.015L643.579,819.225ZM646.351,818.193C646.512,818.132 646.673,818.07 646.834,818.008L644.841,812.838C644.685,812.898 644.529,812.958 644.373,813.017L646.351,818.193ZM649.104,817.114C649.264,817.049 649.424,816.985 649.584,816.92L647.501,811.785C647.346,811.848 647.191,811.911 647.036,811.973L649.104,817.114ZM651.838,815.986C651.997,815.919 652.156,815.852 652.315,815.784L650.142,810.687C649.988,810.752 649.835,810.817 649.681,810.882L651.838,815.986ZM654.552,814.811C654.71,814.741 654.867,814.671 655.025,814.6L652.763,809.542C652.611,809.61 652.458,809.678 652.306,809.746L654.552,814.811ZM657.245,813.589C657.401,813.516 657.558,813.443 657.714,813.37L655.365,808.352C655.213,808.422 655.062,808.493 654.911,808.563L657.245,813.589ZM659.916,812.32C660.071,812.244 660.226,812.169 660.381,812.093L657.945,807.116C657.795,807.19 657.645,807.263 657.494,807.336L659.916,812.32ZM662.565,811.004C662.718,810.926 662.872,810.848 663.026,810.769L660.503,805.836C660.354,805.912 660.205,805.988 660.056,806.063L662.565,811.004ZM665.19,809.643C665.342,809.562 665.495,809.481 665.647,809.4L663.038,804.511C662.891,804.59 662.743,804.668 662.596,804.746L665.19,809.643ZM667.791,808.236C667.942,808.152 668.093,808.069 668.244,807.985L665.55,803.142C665.404,803.224 665.258,803.304 665.112,803.385L667.791,808.236ZM670.367,806.783C670.517,806.697 670.666,806.611 670.815,806.524L668.037,801.73C667.893,801.814 667.748,801.897 667.604,801.98L670.367,806.783ZM672.917,805.286C673.065,805.198 673.213,805.109 673.361,805.02L670.5,800.274C670.357,800.361 670.214,800.447 670.071,800.532L672.917,805.286ZM675.441,803.745C675.588,803.654 675.734,803.562 675.88,803.471L672.937,798.776C672.795,798.865 672.654,798.953 672.512,799.041L675.441,803.745ZM677.938,802.16C678.083,802.066 678.227,801.972 678.372,801.878L675.347,797.235C675.207,797.326 675.067,797.417 674.927,797.508L677.938,802.16ZM680.406,800.531C680.55,800.435 680.693,800.339 680.836,800.242L677.73,795.653C677.592,795.746 677.453,795.84 677.315,795.933L680.406,800.531ZM682.846,798.86C682.988,798.761 683.129,798.662 683.27,798.563L680.085,794.029C679.948,794.125 679.812,794.221 679.675,794.316L682.846,798.86ZM685.256,797.146C685.396,797.045 685.536,796.944 685.675,796.842L682.411,792.364C682.276,792.463 682.141,792.561 682.006,792.659L685.256,797.146ZM687.636,795.391C687.774,795.287 687.912,795.183 688.05,795.079L684.708,790.659C684.575,790.76 684.442,790.86 684.308,790.961L687.636,795.391ZM689.985,793.594C690.121,793.488 690.257,793.382 690.393,793.276L686.975,788.914C686.844,789.017 686.712,789.12 686.58,789.223L689.985,793.594ZM692.302,791.757C692.437,791.648 692.571,791.54 692.705,791.431L689.211,787.13C689.081,787.235 688.952,787.34 688.822,787.445L692.302,791.757ZM694.587,789.879C694.719,789.769 694.852,789.658 694.984,789.546L691.415,785.307C691.288,785.415 691.16,785.522 691.032,785.629L694.587,789.879ZM696.839,787.962C696.969,787.849 697.099,787.736 697.23,787.622L693.588,783.446C693.462,783.556 693.336,783.665 693.21,783.775L696.839,787.962ZM699.057,786.006C699.185,785.891 699.313,785.775 699.441,785.659L695.727,781.547C695.603,781.659 695.479,781.771 695.355,781.882L699.057,786.006ZM701.24,784.011C701.366,783.894 701.493,783.776 701.619,783.658L697.833,779.611C697.712,779.726 697.589,779.839 697.467,779.953L701.24,784.011ZM703.388,781.979C703.513,781.859 703.637,781.739 703.761,781.619L699.905,777.639C699.786,777.755 699.665,777.871 699.545,777.987L703.388,781.979ZM705.501,779.909C705.623,779.788 705.745,779.666 705.867,779.543L701.943,775.631C701.825,775.749 701.707,775.867 701.589,775.985L705.501,779.909ZM707.577,777.803C707.697,777.679 707.817,777.555 707.936,777.431L703.945,773.588C703.829,773.708 703.713,773.828 703.597,773.948L707.577,777.803ZM709.616,775.661C709.734,775.535 709.851,775.409 709.969,775.283L705.911,771.51C705.797,771.632 705.683,771.754 705.569,771.876L709.616,775.661ZM711.617,773.484C711.733,773.356 711.848,773.228 711.963,773.099L707.84,769.398C707.728,769.522 707.617,769.646 707.505,769.77L711.617,773.484ZM713.58,771.272C713.693,771.142 713.807,771.012 713.92,770.881L709.732,767.252C709.623,767.379 709.513,767.505 709.403,767.63L713.58,771.272ZM715.504,769.026C715.615,768.894 715.726,768.762 715.837,768.63L711.587,765.074C711.479,765.202 711.372,765.33 711.265,765.458L715.504,769.026ZM717.388,766.747C717.497,766.613 717.606,766.479 717.714,766.345L713.403,762.864C713.298,762.994 713.193,763.124 713.088,763.254L717.388,766.747ZM719.233,764.436C719.339,764.3 719.446,764.164 719.552,764.028L715.18,760.623C715.077,760.755 714.975,760.886 714.872,761.018L719.233,764.436ZM721.037,762.092C721.141,761.955 721.245,761.817 721.348,761.679L716.918,758.351C716.818,758.484 716.717,758.618 716.617,758.751L721.037,762.092ZM722.799,759.718C722.901,759.578 723.003,759.439 723.104,759.299L718.616,756.049C718.518,756.184 718.42,756.319 718.322,756.454L722.799,759.718ZM724.52,757.313C724.62,757.172 724.719,757.03 724.817,756.889L720.274,753.717C720.178,753.854 720.082,753.991 719.986,754.128L724.52,757.313ZM726.199,754.878C726.296,754.735 726.392,754.592 726.489,754.449L721.89,751.357C721.797,751.496 721.704,751.634 721.61,751.773L726.199,754.878ZM727.835,752.415C727.929,752.27 728.023,752.125 728.117,751.98L723.465,748.97C723.375,749.11 723.284,749.25 723.193,749.39L727.835,752.415ZM729.428,749.923C729.52,749.777 729.611,749.63 729.702,749.484L724.999,746.555C724.911,746.696 724.822,746.838 724.733,746.979L729.428,749.923ZM730.977,747.404C731.066,747.256 731.155,747.108 731.244,746.96L726.49,744.113C726.404,744.257 726.318,744.4 726.232,744.543L730.977,747.404ZM732.482,744.858C732.568,744.709 732.655,744.559 732.741,744.41L727.938,741.646C727.855,741.791 727.771,741.936 727.687,742.08L732.482,744.858ZM733.942,742.286C734.026,742.135 734.11,741.985 734.193,741.833L729.343,739.154C729.262,739.301 729.181,739.447 729.1,739.593L733.942,742.286ZM735.357,739.69C735.438,739.537 735.519,739.385 735.6,739.232L730.704,736.638C730.626,736.786 730.547,736.933 730.469,737.081L735.357,739.69ZM736.727,737.068C736.805,736.915 736.884,736.761 736.962,736.607L732.021,734.099C731.945,734.248 731.869,734.397 731.793,734.545L736.727,737.068ZM738.05,734.424C738.126,734.269 738.202,734.114 738.277,733.959L733.293,731.537C733.22,731.687 733.147,731.837 733.074,731.987L738.05,734.424ZM739.327,731.757C739.401,731.6 739.474,731.444 739.546,731.287L734.521,728.953C734.45,729.105 734.38,729.256 734.309,729.407L739.327,731.757ZM740.558,729.068C740.628,728.91 740.699,728.752 740.769,728.594L735.703,726.348C735.635,726.501 735.567,726.654 735.499,726.806L740.558,729.068ZM741.741,726.357C741.809,726.199 741.876,726.04 741.944,725.881L736.84,723.723C736.775,723.877 736.709,724.031 736.644,724.184L741.741,726.357ZM742.877,723.627C742.942,723.467 743.007,723.307 743.071,723.147L737.93,721.079C737.868,721.234 737.805,721.389 737.743,721.543L742.877,723.627ZM743.965,720.877C744.027,720.716 744.089,720.555 744.151,720.394L738.975,718.416C738.915,718.572 738.855,718.728 738.795,718.883L743.965,720.877ZM745.005,718.109C745.064,717.946 745.123,717.784 745.182,717.622L739.972,715.735C739.915,715.892 739.858,716.049 739.801,716.205L745.005,718.109ZM745.997,715.322C746.053,715.159 746.109,714.996 746.165,714.833L740.923,713.037C740.869,713.195 740.815,713.353 740.76,713.51L745.997,715.322ZM746.939,712.519C746.993,712.355 747.046,712.191 747.099,712.027L741.827,710.323C741.775,710.482 741.724,710.64 741.672,710.799L746.939,712.519ZM747.833,709.7C747.883,709.535 747.934,709.37 747.984,709.205L742.683,707.593C742.634,707.753 742.585,707.913 742.536,708.072L747.833,709.7ZM748.677,706.866C748.725,706.7 748.772,706.534 748.82,706.368L743.491,704.849C743.445,705.01 743.399,705.17 743.353,705.331L748.677,706.866ZM749.472,704.018C749.517,703.851 749.561,703.684 749.606,703.517L744.251,702.091C744.208,702.253 744.165,702.414 744.122,702.575L749.472,704.018ZM750.216,701.156C750.258,700.988 750.3,700.821 750.342,700.653L744.963,699.321C744.923,699.483 744.883,699.645 744.842,699.807L750.216,701.156ZM750.911,698.281C750.95,698.113 750.989,697.945 751.028,697.777L745.627,696.538C745.589,696.701 745.552,696.864 745.514,697.026L750.911,698.281ZM751.556,695.395C751.592,695.226 751.628,695.057 751.663,694.888L746.242,693.745C746.207,693.908 746.172,694.071 746.137,694.235L751.556,695.395ZM752.15,692.498C752.183,692.329 752.216,692.159 752.249,691.99L746.808,690.941C746.776,691.105 746.744,691.268 746.712,691.432L752.15,692.498ZM752.693,689.591C752.723,689.421 752.753,689.251 752.783,689.081L747.325,688.127C747.296,688.292 747.267,688.456 747.238,688.62L752.693,689.591ZM753.186,686.675C753.213,686.505 753.24,686.334 753.267,686.164L747.792,685.305C747.767,685.47 747.74,685.635 747.714,685.8L753.186,686.675ZM753.627,683.751C753.652,683.58 753.676,683.409 753.699,683.238L748.211,682.475C748.188,682.641 748.165,682.806 748.141,682.971L753.627,683.751ZM754.018,680.819C754.039,680.648 754.06,680.477 754.081,680.305L748.58,679.639C748.56,679.804 748.54,679.97 748.519,680.136L754.018,680.819ZM754.357,677.882C754.375,677.71 754.393,677.538 754.411,677.367L748.899,676.796C748.882,676.962 748.865,677.128 748.847,677.294L754.357,677.882ZM754.645,674.938C754.66,674.767 754.675,674.595 754.69,674.423L749.169,673.948C749.155,674.114 749.14,674.281 749.126,674.447L754.645,674.938ZM754.881,671.991C754.894,671.818 754.906,671.646 754.918,671.474L749.389,671.096C749.378,671.263 749.366,671.429 749.354,671.596L754.881,671.991ZM755.066,669.039C755.076,668.867 755.085,668.694 755.094,668.522L749.56,668.24C749.551,668.407 749.542,668.574 749.533,668.741L755.066,669.039ZM755.2,666.085C755.206,665.912 755.212,665.74 755.218,665.567L749.68,665.382C749.674,665.549 749.669,665.716 749.663,665.883L755.2,666.085ZM755.282,663.129C755.285,662.956 755.288,662.784 755.291,662.611L749.751,662.523C749.748,662.69 749.745,662.857 749.742,663.024L755.282,663.129ZM755.312,660.172C755.313,659.999 755.313,659.826 755.312,659.654L749.771,659.662C749.771,659.829 749.771,659.996 749.771,660.163L755.312,660.172ZM755.291,657.214C755.288,657.042 755.285,656.869 755.282,656.697L749.742,656.802C749.745,656.969 749.748,657.136 749.751,657.303L755.291,657.214ZM755.218,654.258C755.212,654.085 755.206,653.913 755.2,653.74L749.663,653.942C749.669,654.109 749.674,654.276 749.68,654.443L755.218,654.258ZM755.094,651.303C755.085,651.131 755.076,650.959 755.066,650.786L749.533,651.085C749.542,651.251 749.551,651.418 749.56,651.585L755.094,651.303ZM754.918,648.351C754.906,648.179 754.894,648.007 754.881,647.835L749.354,648.23C749.366,648.396 749.378,648.563 749.389,648.729L754.918,648.351ZM754.69,645.403C754.675,645.231 754.66,645.059 754.645,644.887L749.126,645.378C749.14,645.545 749.155,645.711 749.169,645.877L754.69,645.403ZM754.411,642.459C754.393,642.287 754.375,642.115 754.357,641.944L748.847,642.531C748.865,642.697 748.882,642.863 748.899,643.029L754.411,642.459ZM754.081,639.52C754.06,639.348 754.039,639.177 754.018,639.006L748.519,639.69C748.54,639.855 748.56,640.021 748.58,640.187L754.081,639.52ZM753.699,636.587C753.676,636.416 753.652,636.245 753.627,636.074L748.141,636.854C748.165,637.019 748.188,637.185 748.211,637.35L753.699,636.587ZM753.267,633.662C753.24,633.491 753.213,633.321 753.186,633.15L747.714,634.026C747.74,634.19 747.767,634.355 747.792,634.52L753.267,633.662ZM752.783,630.744C752.753,630.574 752.723,630.404 752.693,630.234L747.238,631.205C747.267,631.369 747.296,631.534 747.325,631.698L752.783,630.744ZM752.249,627.836C752.216,627.666 752.183,627.497 752.15,627.327L746.712,628.393C746.744,628.557 746.776,628.721 746.808,628.885L752.249,627.836ZM751.663,624.937C751.628,624.768 751.592,624.599 751.556,624.43L746.137,625.591C746.172,625.754 746.207,625.917 746.242,626.081L751.663,624.937ZM751.028,622.049C750.989,621.88 750.95,621.712 750.911,621.544L745.514,622.799C745.552,622.962 745.589,623.124 745.627,623.287L751.028,622.049ZM750.342,619.172C750.3,619.005 750.258,618.837 750.216,618.67L744.842,620.018C744.883,620.18 744.923,620.342 744.963,620.504L750.342,619.172ZM749.606,616.308C749.561,616.141 749.517,615.974 749.472,615.808L744.122,617.25C744.165,617.411 744.208,617.573 744.251,617.734L749.606,616.308ZM748.82,613.457C748.772,613.291 748.725,613.125 748.677,612.959L743.353,614.495C743.399,614.655 743.445,614.816 743.491,614.976L748.82,613.457ZM747.984,610.62C747.934,610.455 747.883,610.29 747.833,610.125L742.536,611.753C742.585,611.913 742.634,612.072 742.683,612.232L747.984,610.62ZM747.099,607.798C747.046,607.634 746.993,607.47 746.939,607.306L741.672,609.026C741.724,609.185 741.775,609.344 741.827,609.503L747.099,607.798ZM746.165,604.992C746.109,604.829 746.053,604.666 745.997,604.503L740.76,606.315C740.815,606.473 740.869,606.631 740.923,606.788L746.165,604.992ZM745.182,602.203C745.123,602.041 745.064,601.879 745.005,601.717L739.801,603.62C739.858,603.777 739.915,603.934 739.972,604.091L745.182,602.203ZM744.151,599.432C744.089,599.27 744.027,599.109 743.965,598.948L738.795,600.942C738.855,601.098 738.915,601.254 738.975,601.41L744.151,599.432ZM743.071,596.679C743.007,596.518 742.942,596.358 742.877,596.198L737.743,598.282C737.805,598.437 737.868,598.592 737.93,598.746L743.071,596.679ZM741.944,593.945C741.876,593.786 741.809,593.627 741.741,593.468L736.644,595.641C736.709,595.794 736.775,595.948 736.84,596.102L741.944,593.945ZM740.769,591.231C740.699,591.073 740.628,590.915 740.558,590.758L735.499,593.019C735.567,593.172 735.635,593.324 735.703,593.477L740.769,591.231ZM739.546,588.538C739.474,588.381 739.401,588.225 739.327,588.069L734.309,590.418C734.38,590.569 734.45,590.721 734.521,590.872L739.546,588.538ZM738.277,585.867C738.202,585.712 738.126,585.556 738.05,585.401L733.074,587.838C733.147,587.988 733.22,588.138 733.293,588.288L738.277,585.867ZM736.962,583.218C736.884,583.064 736.805,582.91 736.727,582.757L731.793,585.28C731.869,585.429 731.945,585.577 732.021,585.726L736.962,583.218ZM735.6,580.593C735.519,580.44 735.438,580.288 735.357,580.136L730.469,582.745C730.547,582.892 730.626,583.039 730.704,583.187L735.6,580.593ZM734.193,577.992C734.11,577.841 734.026,577.69 733.942,577.539L729.1,580.233C729.181,580.379 729.262,580.525 729.343,580.671L734.193,577.992ZM732.741,575.416C732.655,575.266 732.568,575.117 732.482,574.967L727.687,577.745C727.771,577.89 727.855,578.034 727.938,578.179L732.741,575.416ZM731.244,572.865C731.155,572.717 731.066,572.569 730.977,572.422L726.232,575.283C726.318,575.426 726.404,575.569 726.49,575.712L731.244,572.865ZM729.702,570.342C729.611,570.195 729.52,570.049 729.428,569.902L724.733,572.846C724.822,572.987 724.911,573.129 724.999,573.271L729.702,570.342ZM728.117,567.845C728.023,567.7 727.929,567.555 727.835,567.411L723.193,570.436C723.284,570.576 723.375,570.716 723.465,570.856L728.117,567.845ZM726.489,565.376C726.392,565.233 726.296,565.09 726.199,564.947L721.61,568.053C721.704,568.191 721.797,568.329 721.89,568.468L726.489,565.376ZM724.817,562.937C724.719,562.795 724.62,562.654 724.52,562.513L719.986,565.698C720.082,565.834 720.178,565.971 720.274,566.108L724.817,562.937ZM723.104,560.526C723.003,560.387 722.901,560.247 722.799,560.108L718.322,563.371C718.42,563.506 718.518,563.641 718.616,563.777L723.104,560.526ZM721.348,558.147C721.245,558.009 721.141,557.871 721.037,557.733L716.617,561.075C716.717,561.208 716.818,561.341 716.918,561.475L721.348,558.147ZM719.552,555.798C719.446,555.661 719.339,555.525 719.233,555.39L714.872,558.808C714.975,558.939 715.077,559.071 715.18,559.202L719.552,555.798ZM717.714,553.48C717.606,553.346 717.497,553.212 717.388,553.078L713.088,556.572C713.193,556.701 713.298,556.831 713.403,556.961L717.714,553.48ZM715.837,551.196C715.726,551.063 715.615,550.931 715.504,550.799L711.265,554.367C711.372,554.495 711.479,554.623 711.587,554.751L715.837,551.196ZM713.92,548.944C713.807,548.814 713.693,548.683 713.58,548.553L709.403,552.195C709.513,552.321 709.623,552.447 709.732,552.573L713.92,548.944ZM711.963,546.726C711.848,546.598 711.733,546.469 711.617,546.341L707.505,550.055C707.617,550.179 707.728,550.303 707.84,550.428L711.963,546.726ZM709.969,544.543C709.851,544.416 709.734,544.29 709.616,544.164L705.569,547.949C705.683,548.071 705.797,548.193 705.911,548.316L709.969,544.543ZM707.936,542.394C707.817,542.27 707.697,542.146 707.577,542.022L703.597,545.877C703.713,545.997 703.829,546.117 703.945,546.238L707.936,542.394ZM705.867,540.282C705.745,540.16 705.623,540.038 705.501,539.916L701.589,543.84C701.707,543.958 701.825,544.076 701.943,544.194L705.867,540.282ZM703.761,538.206C703.637,538.086 703.513,537.966 703.388,537.846L699.545,541.838C699.665,541.954 699.786,542.07 699.905,542.186L703.761,538.206ZM701.619,536.167C701.493,536.049 701.366,535.931 701.24,535.814L697.467,539.872C697.589,539.986 697.712,540.1 697.833,540.214L701.619,536.167ZM699.441,534.166C699.313,534.05 699.185,533.935 699.057,533.819L695.355,537.943C695.479,538.054 695.603,538.166 695.727,538.278L699.441,534.166ZM697.23,532.203C697.099,532.089 696.969,531.976 696.839,531.863L693.21,536.051C693.336,536.16 693.462,536.27 693.588,536.379L697.23,532.203ZM694.984,530.279C694.852,530.168 694.719,530.057 694.587,529.946L691.032,534.196C691.16,534.303 691.288,534.411 691.415,534.518L694.984,530.279ZM692.705,528.394C692.571,528.285 692.437,528.177 692.302,528.068L688.822,532.38C688.952,532.485 689.081,532.59 689.211,532.695L692.705,528.394ZM690.393,526.55C690.257,526.443 690.121,526.337 689.985,526.231L686.58,530.603C686.712,530.705 686.844,530.808 686.975,530.911L690.393,526.55ZM688.05,524.746C687.912,524.642 687.774,524.538 687.636,524.434L684.308,528.865C684.442,528.965 684.575,529.065 684.708,529.166L688.05,524.746ZM685.675,522.983C685.536,522.882 685.396,522.78 685.256,522.679L682.006,527.167C682.141,527.265 682.276,527.363 682.411,527.461L685.675,522.983ZM683.27,521.262C683.129,521.163 682.988,521.064 682.846,520.965L679.675,525.509C679.812,525.605 679.948,525.7 680.085,525.796L683.27,521.262ZM680.836,519.583C680.693,519.487 680.55,519.39 680.406,519.294L677.315,523.892C677.453,523.986 677.592,524.079 677.73,524.173L680.836,519.583ZM678.372,517.947C678.227,517.853 678.083,517.759 677.938,517.665L674.927,522.317C675.067,522.408 675.207,522.499 675.347,522.59L678.372,517.947ZM675.88,516.355C675.734,516.263 675.588,516.172 675.441,516.08L672.512,520.784C672.654,520.872 672.795,520.961 672.937,521.049L675.88,516.355ZM673.361,514.806C673.213,514.717 673.065,514.628 672.917,514.539L670.071,519.293C670.214,519.379 670.357,519.465 670.5,519.551L673.361,514.806ZM670.815,513.301C670.666,513.214 670.517,513.128 670.367,513.042L667.604,517.845C667.748,517.928 667.893,518.012 668.037,518.095L670.815,513.301ZM668.244,511.841C668.093,511.757 667.942,511.673 667.791,511.59L665.112,516.44C665.258,516.521 665.404,516.602 665.55,516.683L668.244,511.841ZM665.647,510.426C665.495,510.344 665.342,510.263 665.19,510.183L662.596,515.079C662.743,515.157 662.891,515.236 663.038,515.314L665.647,510.426ZM663.026,509.056C662.872,508.977 662.718,508.899 662.565,508.821L660.056,513.762C660.205,513.838 660.354,513.913 660.503,513.989L663.026,509.056ZM660.381,507.733C660.226,507.657 660.071,507.581 659.916,507.506L657.494,512.49C657.645,512.563 657.795,512.636 657.945,512.709L660.381,507.733ZM657.714,506.455C657.558,506.382 657.401,506.309 657.245,506.236L654.911,511.262C655.062,511.332 655.213,511.403 655.365,511.474L657.714,506.455ZM655.025,505.225C654.867,505.154 654.71,505.084 654.552,505.014L652.306,510.08C652.458,510.147 652.611,510.215 652.763,510.283L655.025,505.225ZM652.315,504.041C652.156,503.974 651.997,503.906 651.838,503.839L649.681,508.943C649.835,509.008 649.988,509.073 650.142,509.139L652.315,504.041ZM649.584,502.906C649.424,502.841 649.264,502.776 649.104,502.712L647.036,507.852C647.191,507.915 647.346,507.977 647.501,508.04L649.584,502.906ZM646.834,501.818C646.673,501.755 646.512,501.694 646.351,501.632L644.373,506.808C644.529,506.868 644.685,506.927 644.841,506.988L646.834,501.818ZM644.066,500.778C643.904,500.718 643.742,500.659 643.579,500.601L641.692,505.81C641.849,505.867 642.006,505.924 642.163,505.982L644.066,500.778ZM641.28,499.786C641.117,499.73 640.954,499.674 640.79,499.618L638.994,504.86C639.152,504.914 639.31,504.968 639.468,505.023L641.28,499.786ZM638.477,498.844C638.313,498.79 638.149,498.737 637.984,498.684L636.28,503.956C636.439,504.007 636.598,504.059 636.756,504.111L638.477,498.844ZM635.658,497.95C635.493,497.899 635.328,497.849 635.163,497.799L633.551,503.1C633.71,503.149 633.87,503.197 634.03,503.247L635.658,497.95ZM632.824,497.106C632.658,497.058 632.492,497.01 632.326,496.963L630.807,502.292C630.967,502.338 631.128,502.384 631.288,502.43L632.824,497.106ZM629.975,496.311C629.808,496.266 629.642,496.221 629.475,496.177L628.049,501.532C628.21,501.575 628.371,501.618 628.533,501.661L629.975,496.311ZM627.113,495.566C626.946,495.524 626.778,495.482 626.611,495.441L625.278,500.82C625.44,500.86 625.602,500.9 625.764,500.941L627.113,495.566ZM624.239,494.871C624.07,494.832 623.902,494.794 623.734,494.755L622.496,500.156C622.658,500.193 622.821,500.231 622.984,500.269L624.239,494.871ZM621.352,494.227C621.184,494.191 621.015,494.155 620.846,494.119L619.702,499.541C619.865,499.576 620.029,499.61 620.192,499.645L621.352,494.227ZM618.455,493.633C618.286,493.6 618.116,493.567 617.947,493.534L616.898,498.975C617.062,499.007 617.226,499.039 617.39,499.071L618.455,493.633ZM615.548,493.09C615.378,493.059 615.208,493.029 615.038,493L614.085,498.458C614.249,498.487 614.413,498.516 614.578,498.545L615.548,493.09ZM612.632,492.597C612.462,492.57 612.291,492.543 612.121,492.516L611.262,497.99C611.427,498.016 611.592,498.042 611.757,498.069L612.632,492.597ZM609.708,492.155C609.537,492.131 609.366,492.107 609.195,492.083L608.433,497.572C608.598,497.595 608.763,497.618 608.929,497.642L609.708,492.155ZM606.777,491.765C606.606,491.744 606.434,491.723 606.263,491.702L605.596,497.203C605.762,497.223 605.927,497.243 606.093,497.264L606.777,491.765ZM603.839,491.426C603.667,491.407 603.496,491.389 603.324,491.372L602.753,496.883C602.919,496.9 603.085,496.918 603.251,496.936L603.839,491.426ZM600.896,491.138C600.724,491.122 600.552,491.107 600.38,491.093L599.905,496.613C600.072,496.628 600.238,496.642 600.404,496.657L600.896,491.138ZM597.948,490.901C597.776,490.889 597.604,490.877 597.431,490.865L597.053,496.393C597.22,496.405 597.387,496.416 597.553,496.428L597.948,490.901ZM594.997,490.716C594.824,490.707 594.652,490.698 594.479,490.689L594.198,496.223C594.365,496.232 594.531,496.24 594.698,496.249L594.997,490.716ZM592.042,490.583C591.87,490.576 591.697,490.57 591.525,490.565L591.34,496.103C591.507,496.108 591.674,496.114 591.84,496.12L592.042,490.583ZM589.086,490.501C588.914,490.497 588.741,490.494 588.568,490.492L588.48,496.032C588.647,496.035 588.814,496.038 588.981,496.041L589.086,490.501Z"/>
            </g>
            <g transform="matrix(-0.947246,1.99235e-16,-1.99235e-16,-0.947246,1149.95,1149.95)">
                <g transform="matrix(0.742628,2.90089e-16,7.51919e-16,1.16809,151.991,810.659)">
                    <path d="M584.445,205.916L590.551,204.616L597.17,205.916L626.384,272.414L554.719,272.414L584.445,205.916Z" style="fill:rgb(235,235,235);"/>
                </g>
                <g transform="matrix(0.557299,2.11167e-16,5.64271e-16,0.850292,261.438,886.951)">
                    <path d="M590.551,193.151L634.463,280.975L546.639,280.975L590.551,193.151Z"/>
                </g>
            </g>
            <g transform="matrix(-0.947246,1.99235e-16,-1.99235e-16,-0.947246,1149.95,1149.95)">
                <g transform="matrix(0.742628,-2.90089e-16,7.51919e-16,-1.16809,151.991,373.444)">
                    <path d="M581.612,207.412L590.551,205.953L599.072,208.484L613,273.527L568.254,273.436L581.612,207.412Z" style="fill:rgb(235,235,235);"/>
                </g>
                <g transform="matrix(0.302434,-7.62408e-17,9.39923e-17,-0.850292,411.948,294.152)">
                    <path d="M590.551,193.151L634.463,280.975L546.639,280.975L590.551,193.151Z"/>
                </g>
            </g>
        </g>
        <g id="Hour-Marks" serif:id="Hour Marks" transform="matrix(1.48781,0,0,1.48781,-288.618,-286.991)">
            <g transform="matrix(-1,1.22465e-16,-1.22465e-16,-1,1191.44,636.333)">
                <path d="M589.568,324.911C589.865,324.948 590.162,324.985 590.459,324.985C596.438,324.985 601.081,316.74 602.121,311.058C603.012,306.118 601.712,300.882 597.775,299.619C596.995,299.359 596.141,299.211 595.324,299.211C592.576,299.211 589.605,300.845 586.894,306.118C583.662,311.726 582.808,323.871 589.568,324.911ZM592.353,303.036C593.244,302.516 594.099,302.256 594.916,302.256C597.701,302.256 599.669,305.264 598.667,310.278C596.958,318.894 594.284,322.163 591.982,322.163C591.276,322.163 590.57,321.865 589.976,321.271C586.671,317.966 587.599,307.195 592.353,303.036Z" style="fill-rule:nonzero;"/>
                <path d="M608.323,324.911C608.62,324.948 608.917,324.985 609.214,324.985C615.194,324.985 619.836,316.74 620.876,311.058C621.767,306.118 620.467,300.882 616.531,299.619C615.751,299.359 614.897,299.211 614.079,299.211C611.331,299.211 608.36,300.845 605.649,306.118C602.418,311.726 601.564,323.871 608.323,324.911ZM611.108,303.036C612,302.516 612.854,302.256 613.671,302.256C616.456,302.256 618.425,305.264 617.422,310.278C615.714,318.894 613.04,322.163 610.737,322.163C610.031,322.163 609.326,321.865 608.731,321.271C605.426,317.966 606.355,307.195 611.108,303.036Z" style="fill-rule:nonzero;"/>
            </g>
            <g transform="matrix(-0.866025,-0.5,0.5,-0.866025,1088.39,930.295)">
                <path d="M589.568,324.911C589.865,324.948 590.162,324.985 590.459,324.985C596.438,324.985 601.081,316.74 602.121,311.058C603.012,306.118 601.712,300.882 597.775,299.619C596.995,299.359 596.141,299.211 595.324,299.211C592.576,299.211 589.605,300.845 586.894,306.118C583.662,311.726 582.808,323.871 589.568,324.911ZM592.353,303.036C593.244,302.516 594.099,302.256 594.916,302.256C597.701,302.256 599.669,305.264 598.667,310.278C596.958,318.894 594.284,322.163 591.982,322.163C591.276,322.163 590.57,321.865 589.976,321.271C586.671,317.966 587.599,307.195 592.353,303.036Z" style="fill-rule:nonzero;"/>
                <path d="M605.5,324.874C606.392,325.208 607.357,325.394 608.323,325.394C614.562,325.394 621.544,318.783 619.502,312.581C618.722,310.092 617.013,308.792 614.488,308.57C612.668,308.681 610.885,309.09 609.437,309.647C610.031,307.27 610.403,305.116 610.885,302.739L614.117,302.739C616.234,302.739 618.313,302.702 620.579,302.516C621.136,302.516 623.81,299.136 622.25,299.136C620.17,299.136 615.602,299.248 612.445,299.248C611.48,299.248 610.663,299.248 610.068,299.211C608.88,299.471 608.286,299.805 607.951,301.402C607.84,301.513 607.877,301.587 607.84,301.699C607.023,304.15 606.912,307.047 606.243,309.572C605.946,310.724 605.575,311.466 605.277,312.098C605.203,312.618 605.352,312.841 605.686,312.841C606.392,312.841 607.989,311.912 610.477,311.578C610.848,311.541 611.22,311.504 611.554,311.504C616.939,311.504 617.125,317.112 615.156,319.711C613.819,321.345 612,322.645 609.846,322.645C606.874,322.645 604.126,320.417 605.537,317.149C606.02,315.96 605.797,315.477 605.24,315.477C604.609,315.477 603.495,316.257 602.863,317.297C601.118,321.123 601.972,323.648 605.5,324.874Z" style="fill-rule:nonzero;"/>
            </g>
            <g transform="matrix(-0.5,-0.866025,0.866025,-0.5,849.774,1132.65)">
                <path d="M583.254,324.985L591.202,324.911L591.276,324.911C591.387,324.948 591.499,324.948 591.61,324.948C592.836,324.948 594.47,323.648 593.839,322.311C593.467,322.014 592.65,321.977 591.685,321.977L590.125,321.977C591.313,314.586 594.693,301.179 594.841,299.693C594.619,299.211 594.359,299.025 593.913,299.025C593.764,299.025 593.541,299.062 593.282,299.099C592.464,299.211 590.607,301.179 588.231,302.516C586.634,303.407 586.225,304.447 587.414,304.41C588.416,304.373 589.828,304.001 590.756,303.742C589.865,307.418 587.896,316.072 586.819,322.014L585.037,322.014C583.551,322.311 581.36,324.205 583.254,324.985Z" style="fill-rule:nonzero;"/>
                <path d="M602.901,324.911C603.198,324.948 603.495,324.985 603.792,324.985C609.771,324.985 614.414,316.74 615.454,311.058C616.345,306.118 615.045,300.882 611.108,299.619C610.328,299.359 609.474,299.211 608.657,299.211C605.909,299.211 602.938,300.845 600.227,306.118C596.995,311.726 596.141,323.871 602.901,324.911ZM605.686,303.036C606.577,302.516 607.432,302.256 608.249,302.256C611.034,302.256 613.002,305.264 612,310.278C610.291,318.894 607.617,322.163 605.315,322.163C604.609,322.163 603.903,321.865 603.309,321.271C600.004,317.966 600.932,307.195 605.686,303.036Z" style="fill-rule:nonzero;"/>
            </g>
            <g transform="matrix(6.12323e-17,-1,1,6.12323e-17,543.815,1189.45)">
                <path d="M583.254,324.985L591.202,324.911L591.276,324.911C591.387,324.948 591.499,324.948 591.61,324.948C592.836,324.948 594.47,323.648 593.839,322.311C593.467,322.014 592.65,321.977 591.685,321.977L590.125,321.977C591.313,314.586 594.693,301.179 594.841,299.693C594.619,299.211 594.359,299.025 593.913,299.025C593.764,299.025 593.541,299.062 593.282,299.099C592.464,299.211 590.607,301.179 588.231,302.516C586.634,303.407 586.225,304.447 587.414,304.41C588.416,304.373 589.828,304.001 590.756,303.742C589.865,307.418 587.896,316.072 586.819,322.014L585.037,322.014C583.551,322.311 581.36,324.205 583.254,324.985Z" style="fill-rule:nonzero;"/>
                <path d="M600.078,324.874C600.969,325.208 601.935,325.394 602.901,325.394C609.14,325.394 616.122,318.783 614.079,312.581C613.3,310.092 611.591,308.792 609.066,308.57C607.246,308.681 605.463,309.09 604.015,309.647C604.609,307.27 604.98,305.116 605.463,302.739L608.694,302.739C610.811,302.739 612.891,302.702 615.156,302.516C615.714,302.516 618.388,299.136 616.828,299.136C614.748,299.136 610.18,299.248 607.023,299.248C606.057,299.248 605.24,299.248 604.646,299.211C603.458,299.471 602.863,299.805 602.529,301.402C602.418,301.513 602.455,301.587 602.418,301.699C601.601,304.15 601.489,307.047 600.821,309.572C600.524,310.724 600.152,311.466 599.855,312.098C599.781,312.618 599.929,312.841 600.264,312.841C600.969,312.841 602.566,311.912 605.055,311.578C605.426,311.541 605.797,311.504 606.132,311.504C611.517,311.504 611.703,317.112 609.734,319.711C608.397,321.345 606.577,322.645 604.423,322.645C601.452,322.645 598.704,320.417 600.115,317.149C600.598,315.96 600.375,315.477 599.818,315.477C599.187,315.477 598.072,316.257 597.441,317.297C595.696,321.123 596.55,323.648 600.078,324.874Z" style="fill-rule:nonzero;"/>
            </g>
            <g transform="matrix(0.520743,-0.853713,0.853713,0.520743,239.745,1074.14)">
                <path d="M584.554,324.911C585.408,324.651 586.299,324.577 587.228,324.577C589.011,324.577 590.83,324.874 592.576,324.874C594.804,324.874 596.884,324.391 598.407,322.088C598.778,321.531 599.781,319.786 599.781,319.749C599.967,319.043 599.521,318.671 599.001,318.671C598.704,318.671 598.37,318.82 598.184,319.154C596.921,321.42 594.73,321.791 592.65,321.791C591.722,321.791 590.83,321.717 590.013,321.717C589.308,321.717 588.639,321.754 587.933,321.791C592.427,316.926 599.632,312.803 601.526,306.75C602.938,302.07 599.967,298.876 596.104,298.876C594.619,298.876 593.022,299.359 591.499,300.362C588.936,302.145 586.114,305.041 585.854,308.05C585.594,310.909 587.525,312.581 590.088,312.581C590.496,312.581 590.905,312.544 591.313,312.469C593.282,312.024 595.361,309.127 593.987,309.127C593.839,309.127 593.653,309.164 593.393,309.238C593.17,309.312 592.947,309.35 592.687,309.424C592.464,309.498 592.204,309.535 591.945,309.535C591.685,309.535 591.425,309.498 591.165,309.424C587.785,308.235 589.382,302.219 593.616,301.773C594.024,301.699 594.396,301.662 594.73,301.662C595.473,301.662 596.104,301.81 596.587,302.145C597.775,302.962 598.667,304.781 596.995,309.238C595.658,312.469 583.997,321.643 583.365,323.5C582.994,324.428 583.143,324.911 584.22,324.911L584.554,324.911Z" style="fill-rule:nonzero;"/>
                <path d="M608.063,324.911C608.36,324.948 608.657,324.985 608.954,324.985C614.934,324.985 619.576,316.74 620.616,311.058C621.507,306.118 620.207,300.882 616.271,299.619C615.491,299.359 614.637,299.211 613.819,299.211C611.071,299.211 608.1,300.845 605.389,306.118C602.158,311.726 601.304,323.871 608.063,324.911ZM610.848,303.036C611.74,302.516 612.594,302.256 613.411,302.256C616.196,302.256 618.165,305.264 617.162,310.278C615.454,318.894 612.78,322.163 610.477,322.163C609.771,322.163 609.066,321.865 608.471,321.271C605.166,317.966 606.095,307.195 610.848,303.036Z" style="fill-rule:nonzero;"/>
            </g>
            <g transform="matrix(0.866025,-0.5,0.5,0.866025,45.902,851.828)">
                <path d="M584.554,324.911C585.408,324.651 586.299,324.577 587.228,324.577C589.011,324.577 590.83,324.874 592.576,324.874C594.804,324.874 596.884,324.391 598.407,322.088C598.778,321.531 599.781,319.786 599.781,319.749C599.967,319.043 599.521,318.671 599.001,318.671C598.704,318.671 598.37,318.82 598.184,319.154C596.921,321.42 594.73,321.791 592.65,321.791C591.722,321.791 590.83,321.717 590.013,321.717C589.308,321.717 588.639,321.754 587.933,321.791C592.427,316.926 599.632,312.803 601.526,306.75C602.938,302.07 599.967,298.876 596.104,298.876C594.619,298.876 593.022,299.359 591.499,300.362C588.936,302.145 586.114,305.041 585.854,308.05C585.594,310.909 587.525,312.581 590.088,312.581C590.496,312.581 590.905,312.544 591.313,312.469C593.282,312.024 595.361,309.127 593.987,309.127C593.839,309.127 593.653,309.164 593.393,309.238C593.17,309.312 592.947,309.35 592.687,309.424C592.464,309.498 592.204,309.535 591.945,309.535C591.685,309.535 591.425,309.498 591.165,309.424C587.785,308.235 589.382,302.219 593.616,301.773C594.024,301.699 594.396,301.662 594.73,301.662C595.473,301.662 596.104,301.81 596.587,302.145C597.775,302.962 598.667,304.781 596.995,309.238C595.658,312.469 583.997,321.643 583.365,323.5C582.994,324.428 583.143,324.911 584.22,324.911L584.554,324.911Z" style="fill-rule:nonzero;"/>
                <path d="M605.24,324.874C606.132,325.208 607.097,325.394 608.063,325.394C614.302,325.394 621.284,318.783 619.242,312.581C618.462,310.092 616.753,308.792 614.228,308.57C612.408,308.681 610.626,309.09 609.177,309.647C609.771,307.27 610.143,305.116 610.626,302.739L613.857,302.739C615.974,302.739 618.053,302.702 620.319,302.516C620.876,302.516 623.55,299.136 621.99,299.136C619.91,299.136 615.342,299.248 612.185,299.248C611.22,299.248 610.403,299.248 609.808,299.211C608.62,299.471 608.026,299.805 607.692,301.402C607.58,301.513 607.617,301.587 607.58,301.699C606.763,304.15 606.652,307.047 605.983,309.572C605.686,310.724 605.315,311.466 605.017,312.098C604.943,312.618 605.092,312.841 605.426,312.841C606.132,312.841 607.729,311.912 610.217,311.578C610.588,311.541 610.96,311.504 611.294,311.504C616.679,311.504 616.865,317.112 614.897,319.711C613.56,321.345 611.74,322.645 609.586,322.645C606.614,322.645 603.866,320.417 605.277,317.149C605.76,315.96 605.537,315.477 604.98,315.477C604.349,315.477 603.235,316.257 602.603,317.297C600.858,321.123 601.712,323.648 605.24,324.874Z" style="fill-rule:nonzero;"/>
            </g>
            <g transform="matrix(1,0,0,1,-11.3192,542.854)">
                <path d="M586.745,324.874C587.636,325.208 588.602,325.394 589.568,325.394C595.807,325.394 602.789,318.783 600.746,312.581C599.967,310.018 597.775,308.57 595.138,308.57C603.458,302.219 604.98,299.619 603.458,299.322L603.235,299.322C602.269,299.322 601.044,299.916 600.115,299.916C600.004,299.916 599.929,299.879 599.818,299.879C597.553,299.359 595.733,298.839 593.987,298.839C592.167,298.839 590.496,299.396 588.565,301.067C587.154,302.405 587.005,303.259 587.711,303.259C587.971,303.259 588.305,303.184 588.713,302.962C589.939,302.107 591.016,301.81 592.019,301.81C593.95,301.81 595.621,302.813 597.738,303.11C597.998,303.147 598.63,303.147 598.89,303.147C596.958,304.336 590.793,309.795 589.456,311.429C588.936,312.358 588.936,312.915 589.456,313.063C590.793,312.581 591.833,312.061 593.504,311.949L593.727,311.949C598.072,311.949 598.444,316.963 596.401,319.711C595.064,321.345 593.244,322.645 591.09,322.645C588.119,322.645 585.371,320.417 586.782,317.149C587.265,315.96 587.042,315.477 586.485,315.477C585.854,315.477 584.74,316.257 584.108,317.297C582.363,321.123 583.217,323.648 586.745,324.874Z" style="fill-rule:nonzero;"/>
                <path d="M608.471,324.911C608.769,324.948 609.066,324.985 609.363,324.985C615.342,324.985 619.985,316.74 621.024,311.058C621.916,306.118 620.616,300.882 616.679,299.619C615.899,299.359 615.045,299.211 614.228,299.211C611.48,299.211 608.509,300.845 605.797,306.118C602.566,311.726 601.712,323.871 608.471,324.911ZM611.257,303.036C612.148,302.516 613.002,302.256 613.819,302.256C616.605,302.256 618.573,305.264 617.571,310.278C615.862,318.894 613.188,322.163 610.885,322.163C610.18,322.163 609.474,321.865 608.88,321.271C605.575,317.966 606.503,307.195 611.257,303.036Z" style="fill-rule:nonzero;"/>
            </g>
            <g transform="matrix(0.866025,0.5,-0.5,0.866025,90.9683,249.132)">
                <path d="M586.745,324.874C587.636,325.208 588.602,325.394 589.568,325.394C595.807,325.394 602.789,318.783 600.746,312.581C599.967,310.018 597.775,308.57 595.138,308.57C603.458,302.219 604.98,299.619 603.458,299.322L603.235,299.322C602.269,299.322 601.044,299.916 600.115,299.916C600.004,299.916 599.929,299.879 599.818,299.879C597.553,299.359 595.733,298.839 593.987,298.839C592.167,298.839 590.496,299.396 588.565,301.067C587.154,302.405 587.005,303.259 587.711,303.259C587.971,303.259 588.305,303.184 588.713,302.962C589.939,302.107 591.016,301.81 592.019,301.81C593.95,301.81 595.621,302.813 597.738,303.11C597.998,303.147 598.63,303.147 598.89,303.147C596.958,304.336 590.793,309.795 589.456,311.429C588.936,312.358 588.936,312.915 589.456,313.063C590.793,312.581 591.833,312.061 593.504,311.949L593.727,311.949C598.072,311.949 598.444,316.963 596.401,319.711C595.064,321.345 593.244,322.645 591.09,322.645C588.119,322.645 585.371,320.417 586.782,317.149C587.265,315.96 587.042,315.477 586.485,315.477C585.854,315.477 584.74,316.257 584.108,317.297C582.363,321.123 583.217,323.648 586.745,324.874Z" style="fill-rule:nonzero;"/>
                <path d="M605.649,324.874C606.54,325.208 607.506,325.394 608.471,325.394C614.711,325.394 621.693,318.783 619.65,312.581C618.87,310.092 617.162,308.792 614.637,308.57C612.817,308.681 611.034,309.09 609.586,309.647C610.18,307.27 610.551,305.116 611.034,302.739L614.265,302.739C616.382,302.739 618.462,302.702 620.727,302.516C621.284,302.516 623.958,299.136 622.399,299.136C620.319,299.136 615.751,299.248 612.594,299.248C611.628,299.248 610.811,299.248 610.217,299.211C609.029,299.471 608.434,299.805 608.1,301.402C607.989,301.513 608.026,301.587 607.989,301.699C607.172,304.15 607.06,307.047 606.392,309.572C606.095,310.724 605.723,311.466 605.426,312.098C605.352,312.618 605.5,312.841 605.835,312.841C606.54,312.841 608.137,311.912 610.626,311.578C610.997,311.541 611.368,311.504 611.703,311.504C617.088,311.504 617.273,317.112 615.305,319.711C613.968,321.345 612.148,322.645 609.994,322.645C607.023,322.645 604.275,320.417 605.686,317.149C606.169,315.96 605.946,315.477 605.389,315.477C604.758,315.477 603.643,316.257 603.012,317.297C601.266,321.123 602.121,323.648 605.649,324.874Z" style="fill-rule:nonzero;"/>
            </g>
            <g transform="matrix(0.5,0.866025,-0.866025,0.5,329.443,44.1051)">
                <path d="M583.44,315.143C583.811,315.849 584.368,315.997 587.265,315.997C588.788,315.997 591.016,315.96 594.21,315.923L593.022,322.014L591.239,322.014C589.753,322.311 587.562,324.205 589.456,324.985L597.404,324.911C597.441,324.911 597.404,324.948 597.441,324.948L597.478,324.911C597.553,324.911 597.664,324.948 597.775,324.948C599.001,324.948 600.598,323.648 600.041,322.311C599.669,322.014 598.852,321.977 597.887,321.977L596.327,321.977C596.624,320.306 597.033,318.003 597.478,315.886C598.741,315.775 600.969,315.96 602.121,314.846C603.718,313.323 603.94,312.989 603.012,312.989C602.306,312.989 600.969,313.175 599.075,313.175L598.072,313.175C599.372,306.898 600.932,300.696 601.044,299.693C601.006,299.025 600.895,298.579 600.412,298.579C599.15,298.579 595.436,301.773 584.405,313.026C583.588,314.029 583.328,313.843 583.44,315.143ZM587.302,312.952L597.181,303.11C596.698,305.153 595.584,309.35 594.804,313.101L592.836,313.101C590.83,313.101 589.011,313.063 587.302,312.952Z" style="fill-rule:nonzero;"/>
                <path d="M609.957,324.911C610.254,324.948 610.551,324.985 610.848,324.985C616.828,324.985 621.47,316.74 622.51,311.058C623.401,306.118 622.102,300.882 618.165,299.619C617.385,299.359 616.531,299.211 615.714,299.211C612.965,299.211 609.994,300.845 607.283,306.118C604.052,311.726 603.198,323.871 609.957,324.911ZM612.742,303.036C613.634,302.516 614.488,302.256 615.305,302.256C618.09,302.256 620.059,305.264 619.056,310.278C617.348,318.894 614.674,322.163 612.371,322.163C611.665,322.163 610.96,321.865 610.366,321.271C607.06,317.966 607.989,307.195 612.742,303.036Z" style="fill-rule:nonzero;"/>
            </g>
            <g transform="matrix(6.12323e-17,1,-1,6.12323e-17,639.608,-13.7204)">
                <path d="M583.44,315.143C583.811,315.849 584.368,315.997 587.265,315.997C588.788,315.997 591.016,315.96 594.21,315.923L593.022,322.014L591.239,322.014C589.753,322.311 587.562,324.205 589.456,324.985L597.404,324.911C597.441,324.911 597.404,324.948 597.441,324.948L597.478,324.911C597.553,324.911 597.664,324.948 597.775,324.948C599.001,324.948 600.598,323.648 600.041,322.311C599.669,322.014 598.852,321.977 597.887,321.977L596.327,321.977C596.624,320.306 597.033,318.003 597.478,315.886C598.741,315.775 600.969,315.96 602.121,314.846C603.718,313.323 603.94,312.989 603.012,312.989C602.306,312.989 600.969,313.175 599.075,313.175L598.072,313.175C599.372,306.898 600.932,300.696 601.044,299.693C601.006,299.025 600.895,298.579 600.412,298.579C599.15,298.579 595.436,301.773 584.405,313.026C583.588,314.029 583.328,313.843 583.44,315.143ZM587.302,312.952L597.181,303.11C596.698,305.153 595.584,309.35 594.804,313.101L592.836,313.101C590.83,313.101 589.011,313.063 587.302,312.952Z" style="fill-rule:nonzero;"/>
                <path d="M607.134,324.874C608.026,325.208 608.991,325.394 609.957,325.394C616.196,325.394 623.179,318.783 621.136,312.581C620.356,310.092 618.648,308.792 616.122,308.57C614.302,308.681 612.52,309.09 611.071,309.647C611.665,307.27 612.037,305.116 612.52,302.739L615.751,302.739C617.868,302.739 619.947,302.702 622.213,302.516C622.77,302.516 625.444,299.136 623.884,299.136C621.804,299.136 617.236,299.248 614.079,299.248C613.114,299.248 612.297,299.248 611.703,299.211C610.514,299.471 609.92,299.805 609.586,301.402C609.474,301.513 609.511,301.587 609.474,301.699C608.657,304.15 608.546,307.047 607.877,309.572C607.58,310.724 607.209,311.466 606.912,312.098C606.837,312.618 606.986,312.841 607.32,312.841C608.026,312.841 609.623,311.912 612.111,311.578C612.482,311.541 612.854,311.504 613.188,311.504C618.573,311.504 618.759,317.112 616.791,319.711C615.454,321.345 613.634,322.645 611.48,322.645C608.509,322.645 605.76,320.417 607.172,317.149C607.654,315.96 607.432,315.477 606.874,315.477C606.243,315.477 605.129,316.257 604.498,317.297C602.752,321.123 603.606,323.648 607.134,324.874Z" style="fill-rule:nonzero;"/>
            </g>
            <g transform="matrix(-0.5,0.866025,-0.866025,-0.5,932.959,91.8967)">
                <path d="M586.745,324.874C587.636,325.208 588.602,325.394 589.568,325.394C595.807,325.394 602.789,318.783 600.746,312.581C599.967,310.092 598.258,308.792 595.733,308.57C593.913,308.681 592.13,309.09 590.682,309.647C591.276,307.27 591.647,305.116 592.13,302.739L595.361,302.739C597.478,302.739 599.558,302.702 601.824,302.516C602.381,302.516 605.055,299.136 603.495,299.136C601.415,299.136 596.847,299.248 593.69,299.248C592.724,299.248 591.907,299.248 591.313,299.211C590.125,299.471 589.53,299.805 589.196,301.402C589.085,301.513 589.122,301.587 589.085,301.699C588.268,304.15 588.156,307.047 587.488,309.572C587.191,310.724 586.819,311.466 586.522,312.098C586.448,312.618 586.596,312.841 586.931,312.841C587.636,312.841 589.233,311.912 591.722,311.578C592.093,311.541 592.464,311.504 592.799,311.504C598.184,311.504 598.37,317.112 596.401,319.711C595.064,321.345 593.244,322.645 591.09,322.645C588.119,322.645 585.371,320.417 586.782,317.149C587.265,315.96 587.042,315.477 586.485,315.477C585.854,315.477 584.74,316.257 584.108,317.297C582.363,321.123 583.217,323.648 586.745,324.874Z" style="fill-rule:nonzero;"/>
                <path d="M608.471,324.911C608.769,324.948 609.066,324.985 609.363,324.985C615.342,324.985 619.985,316.74 621.024,311.058C621.916,306.118 620.616,300.882 616.679,299.619C615.899,299.359 615.045,299.211 614.228,299.211C611.48,299.211 608.509,300.845 605.797,306.118C602.566,311.726 601.712,323.871 608.471,324.911ZM611.257,303.036C612.148,302.516 613.002,302.256 613.819,302.256C616.605,302.256 618.573,305.264 617.571,310.278C615.862,318.894 613.188,322.163 610.885,322.163C610.18,322.163 609.474,321.865 608.88,321.271C605.575,317.966 606.503,307.195 611.257,303.036Z" style="fill-rule:nonzero;"/>
            </g>
            <g transform="matrix(-0.866025,0.5,-0.5,-0.866025,1137.43,328.434)">
                <path d="M586.745,324.874C587.636,325.208 588.602,325.394 589.568,325.394C595.807,325.394 602.789,318.783 600.746,312.581C599.967,310.092 598.258,308.792 595.733,308.57C593.913,308.681 592.13,309.09 590.682,309.647C591.276,307.27 591.647,305.116 592.13,302.739L595.361,302.739C597.478,302.739 599.558,302.702 601.824,302.516C602.381,302.516 605.055,299.136 603.495,299.136C601.415,299.136 596.847,299.248 593.69,299.248C592.724,299.248 591.907,299.248 591.313,299.211C590.125,299.471 589.53,299.805 589.196,301.402C589.085,301.513 589.122,301.587 589.085,301.699C588.268,304.15 588.156,307.047 587.488,309.572C587.191,310.724 586.819,311.466 586.522,312.098C586.448,312.618 586.596,312.841 586.931,312.841C587.636,312.841 589.233,311.912 591.722,311.578C592.093,311.541 592.464,311.504 592.799,311.504C598.184,311.504 598.37,317.112 596.401,319.711C595.064,321.345 593.244,322.645 591.09,322.645C588.119,322.645 585.371,320.417 586.782,317.149C587.265,315.96 587.042,315.477 586.485,315.477C585.854,315.477 584.74,316.257 584.108,317.297C582.363,321.123 583.217,323.648 586.745,324.874Z" style="fill-rule:nonzero;"/>
                <path d="M605.649,324.874C606.54,325.208 607.506,325.394 608.471,325.394C614.711,325.394 621.693,318.783 619.65,312.581C618.87,310.092 617.162,308.792 614.637,308.57C612.817,308.681 611.034,309.09 609.586,309.647C610.18,307.27 610.551,305.116 611.034,302.739L614.265,302.739C616.382,302.739 618.462,302.702 620.727,302.516C621.284,302.516 623.958,299.136 622.399,299.136C620.319,299.136 615.751,299.248 612.594,299.248C611.628,299.248 610.811,299.248 610.217,299.211C609.029,299.471 608.434,299.805 608.1,301.402C607.989,301.513 608.026,301.587 607.989,301.699C607.172,304.15 607.06,307.047 606.392,309.572C606.095,310.724 605.723,311.466 605.426,312.098C605.352,312.618 605.5,312.841 605.835,312.841C606.54,312.841 608.137,311.912 610.626,311.578C610.997,311.541 611.368,311.504 611.703,311.504C617.088,311.504 617.273,317.112 615.305,319.711C613.968,321.345 612.148,322.645 609.994,322.645C607.023,322.645 604.275,320.417 605.686,317.149C606.169,315.96 605.946,315.477 605.389,315.477C604.758,315.477 603.643,316.257 603.012,317.297C601.266,321.123 602.121,323.648 605.649,324.874Z" style="fill-rule:nonzero;"/>
            </g>
        </g>
    </g>
</svg>
