<?xml version="1.0" encoding="UTF-8" standalone="no"?>
<!DOCTYPE svg PUBLIC "-//W3C//DTD SVG 1.1//EN" "http://www.w3.org/Graphics/SVG/1.1/DTD/svg11.dtd">
<svg width="100%" height="100%" viewBox="0 0 1182 1182" version="1.1" xmlns="http://www.w3.org/2000/svg" xmlns:xlink="http://www.w3.org/1999/xlink" xml:space="preserve" xmlns:serif="http://www.serif.com/" style="fill-rule:evenodd;clip-rule:evenodd;stroke-linecap:round;stroke-linejoin:round;stroke-miterlimit:1.5;">
    <g id="Minute-Dial" serif:id="Minute Dial" transform="matrix(-1.05569,-2.22045e-16,2.22045e-16,-1.05569,1213.99,1213.99)">
        <g transform="matrix(0.848576,0,0,0.848576,202.563,261.232)">
            <circle cx="457.223" cy="388.085" r="614.353" style="fill:rgb(235,235,235);stroke:black;stroke-width:1.4px;"/>
        </g>
        <g id="Minute-Marks" serif:id="Minute Marks">
            <g transform="matrix(2.99258,0,0,2.99258,-1162.71,-1384.29)">
                <path d="M587.603,490.479C586.448,490.467 585.292,490.467 584.137,490.479L584.348,511.143C585.363,511.133 586.377,511.133 587.392,511.143L587.603,490.479ZM502.654,512.312C501.648,512.88 500.647,513.458 499.652,514.045L510.167,531.835C511.041,531.319 511.919,530.812 512.803,530.314L502.654,512.312ZM440.003,573.695C439.415,574.69 438.837,575.69 438.27,576.697L456.271,586.846C456.769,585.962 457.276,585.083 457.793,584.21L440.003,573.695ZM416.437,658.18C416.425,659.335 416.425,660.49 416.437,661.646L437.1,661.434C437.09,660.42 437.09,659.405 437.1,658.391L416.437,658.18ZM438.27,743.128C438.837,744.135 439.415,745.136 440.003,746.13L457.793,735.615C457.276,734.742 456.769,733.863 456.271,732.98L438.27,743.128ZM499.652,805.78C500.647,806.368 501.648,806.946 502.654,807.513L512.803,789.512C511.919,789.014 511.041,788.506 510.167,787.99L499.652,805.78ZM584.137,829.346C585.292,829.358 586.448,829.358 587.603,829.346L587.392,808.682C586.377,808.693 585.363,808.693 584.348,808.682L584.137,829.346ZM669.086,807.513C670.092,806.946 671.093,806.368 672.088,805.78L661.573,787.99C660.699,788.506 659.821,789.014 658.937,789.512L669.086,807.513ZM731.737,746.13C732.325,745.136 732.903,744.135 733.47,743.128L715.469,732.98C714.971,733.863 714.464,734.742 713.947,735.615L731.737,746.13ZM755.304,661.646C755.315,660.49 755.315,659.335 755.304,658.18L734.64,658.391C734.65,659.405 734.65,660.42 734.64,661.434L755.304,661.646ZM733.47,576.697C732.903,575.69 732.325,574.69 731.737,573.695L713.947,584.21C714.464,585.083 714.971,585.962 715.469,586.846L733.47,576.697ZM672.088,514.045C671.093,513.458 670.092,512.88 669.086,512.312L658.937,530.314C659.821,530.812 660.699,531.319 661.573,531.835L672.088,514.045Z"/>
            </g>
            <g transform="matrix(2.99258,0,0,2.99258,-1162.71,-1384.29)">
                <path d="M586.445,490.471C586.062,490.47 585.678,490.47 585.295,490.471L585.336,502.465C585.692,502.463 586.048,502.463 586.404,502.465L586.445,490.471ZM568.73,491.339C568.349,491.378 567.968,491.418 567.587,491.46L568.881,503.383C569.235,503.345 569.589,503.307 569.943,503.271L568.73,491.339ZM551.203,494.054C550.828,494.133 550.454,494.212 550.079,494.293L552.612,506.016C552.96,505.941 553.309,505.867 553.657,505.794L551.203,494.054ZM534.056,498.587C533.692,498.704 533.327,498.822 532.963,498.942L536.708,510.336C537.046,510.225 537.385,510.114 537.724,510.006L534.056,498.587ZM517.477,504.886C517.127,505.041 516.776,505.197 516.427,505.354L521.342,516.294C521.667,516.148 521.992,516.003 522.318,515.859L517.477,504.886ZM501.647,512.885C501.315,513.075 500.983,513.267 500.652,513.459L506.684,523.826C506.991,523.647 507.3,523.469 507.609,523.292L501.647,512.885ZM486.74,522.494C486.429,522.718 486.119,522.943 485.81,523.169L492.892,532.848C493.18,532.638 493.468,532.429 493.756,532.221L486.74,522.494ZM472.919,533.609C472.633,533.864 472.348,534.12 472.065,534.378L480.12,543.263C480.384,543.024 480.648,542.786 480.914,542.549L472.919,533.609ZM460.335,546.107C460.078,546.391 459.821,546.676 459.566,546.961L468.506,554.956C468.743,554.691 468.982,554.426 469.221,554.162L460.335,546.107ZM449.127,559.853C448.901,560.162 448.675,560.472 448.451,560.782L458.178,567.799C458.386,567.51 458.596,567.222 458.806,566.935L449.127,559.853ZM439.417,574.694C439.224,575.025 439.033,575.357 438.842,575.69L449.249,581.651C449.426,581.342 449.604,581.034 449.783,580.726L439.417,574.694ZM431.311,590.47C431.154,590.819 430.999,591.169 430.844,591.52L441.817,596.361C441.961,596.035 442.105,595.71 442.251,595.385L431.311,590.47ZM424.899,607.006C424.78,607.37 424.661,607.734 424.544,608.099L435.963,611.766C436.072,611.427 436.182,611.089 436.293,610.751L424.899,607.006ZM420.251,624.122C420.17,624.496 420.09,624.871 420.012,625.246L431.752,627.7C431.824,627.351 431.898,627.003 431.974,626.655L420.251,624.122ZM417.417,641.63C417.376,642.011 417.336,642.392 417.297,642.773L429.229,643.986C429.265,643.632 429.302,643.278 429.34,642.924L417.417,641.63ZM416.429,659.338C416.427,659.721 416.427,660.104 416.429,660.487L428.422,660.447C428.421,660.091 428.421,659.735 428.422,659.379L416.429,659.338ZM417.297,677.053C417.336,677.434 417.376,677.815 417.417,678.196L429.34,676.902C429.302,676.548 429.265,676.194 429.229,675.839L417.297,677.053ZM420.012,694.579C420.09,694.954 420.17,695.329 420.251,695.704L431.974,693.17C431.898,692.822 431.824,692.474 431.752,692.126L420.012,694.579ZM424.544,711.726C424.661,712.091 424.78,712.456 424.899,712.82L436.293,709.075C436.182,708.736 436.072,708.398 435.963,708.059L424.544,711.726ZM430.844,728.306C430.999,728.656 431.154,729.006 431.311,729.356L442.251,724.44C442.105,724.116 441.961,723.79 441.817,723.465L430.844,728.306ZM438.842,744.136C439.033,744.468 439.224,744.8 439.417,745.131L449.783,739.099C449.604,738.791 449.426,738.483 449.249,738.174L438.842,744.136ZM448.451,759.043C448.675,759.354 448.901,759.664 449.127,759.973L458.806,752.89C458.596,752.603 458.386,752.315 458.178,752.026L448.451,759.043ZM459.566,772.864C459.821,773.15 460.078,773.434 460.335,773.718L469.221,765.663C468.982,765.399 468.743,765.134 468.506,764.869L459.566,772.864ZM472.065,785.448C472.348,785.705 472.633,785.961 472.919,786.217L480.914,777.277C480.648,777.039 480.384,776.801 480.12,776.562L472.065,785.448ZM485.81,796.656C486.119,796.882 486.429,797.107 486.74,797.331L493.756,787.605C493.468,787.396 493.18,787.187 492.892,786.977L485.81,796.656ZM500.652,806.366C500.983,806.559 501.315,806.75 501.647,806.941L507.609,796.534C507.3,796.357 506.991,796.179 506.684,796L500.652,806.366ZM516.427,814.471C516.776,814.628 517.127,814.784 517.477,814.939L522.318,803.966C521.992,803.822 521.667,803.677 521.342,803.531L516.427,814.471ZM532.963,820.883C533.327,821.003 533.692,821.121 534.056,821.239L537.724,809.82C537.385,809.711 537.046,809.601 536.708,809.49L532.963,820.883ZM550.079,825.532C550.454,825.613 550.828,825.692 551.203,825.771L553.657,814.031C553.309,813.958 552.96,813.884 552.612,813.809L550.079,825.532ZM567.587,828.366C567.968,828.407 568.349,828.447 568.73,828.486L569.943,816.554C569.589,816.518 569.235,816.481 568.881,816.442L567.587,828.366ZM585.295,829.354C585.678,829.355 586.062,829.355 586.445,829.354L586.404,817.361C586.048,817.362 585.692,817.362 585.336,817.361L585.295,829.354ZM603.01,828.486C603.391,828.447 603.772,828.407 604.153,828.366L602.859,816.442C602.505,816.481 602.151,816.518 601.797,816.554L603.01,828.486ZM620.537,825.771C620.912,825.692 621.287,825.613 621.661,825.532L619.128,813.809C618.78,813.884 618.431,813.958 618.083,814.031L620.537,825.771ZM637.684,821.239C638.049,821.121 638.413,821.003 638.777,820.883L635.032,809.49C634.694,809.601 634.355,809.711 634.016,809.82L637.684,821.239ZM654.263,814.939C654.614,814.784 654.964,814.628 655.313,814.471L650.398,803.531C650.073,803.677 649.748,803.822 649.422,803.966L654.263,814.939ZM670.093,806.941C670.426,806.75 670.757,806.559 671.089,806.366L665.057,796C664.749,796.179 664.441,796.357 664.132,796.534L670.093,806.941ZM685,797.331C685.311,797.107 685.621,796.882 685.93,796.656L678.848,786.977C678.56,787.187 678.272,787.396 677.984,787.605L685,797.331ZM698.821,786.217C699.107,785.961 699.392,785.705 699.676,785.448L691.62,776.562C691.356,776.801 691.092,777.039 690.826,777.277L698.821,786.217ZM711.405,773.718C711.662,773.434 711.919,773.15 712.174,772.864L703.234,764.869C702.997,765.134 702.759,765.399 702.519,765.663L711.405,773.718ZM722.613,759.973C722.839,759.664 723.065,759.354 723.289,759.043L713.562,752.026C713.354,752.315 713.145,752.603 712.934,752.89L722.613,759.973ZM732.323,745.131C732.516,744.8 732.708,744.468 732.898,744.136L722.491,738.174C722.314,738.483 722.136,738.791 721.957,739.099L732.323,745.131ZM740.429,729.356C740.586,729.006 740.742,728.656 740.896,728.306L729.923,723.465C729.78,723.79 729.635,724.116 729.489,724.44L740.429,729.356ZM746.841,712.82C746.96,712.456 747.079,712.091 747.196,711.726L735.777,708.059C735.668,708.398 735.558,708.736 735.447,709.075L746.841,712.82ZM751.489,695.704C751.57,695.329 751.65,694.954 751.728,694.579L739.989,692.126C739.916,692.474 739.842,692.822 739.766,693.17L751.489,695.704ZM754.323,678.196C754.365,677.815 754.405,677.434 754.443,677.053L742.511,675.839C742.475,676.194 742.438,676.548 742.4,676.902L754.323,678.196ZM755.311,660.487C755.313,660.104 755.313,659.721 755.311,659.338L743.318,659.379C743.319,659.735 743.319,660.091 743.318,660.447L755.311,660.487ZM754.443,642.773C754.405,642.392 754.365,642.011 754.323,641.63L742.4,642.924C742.438,643.278 742.475,643.632 742.511,643.986L754.443,642.773ZM751.728,625.246C751.65,624.871 751.57,624.496 751.489,624.122L739.766,626.655C739.842,627.003 739.916,627.351 739.989,627.7L751.728,625.246ZM747.196,608.099C747.079,607.734 746.96,607.37 746.841,607.006L735.447,610.751C735.558,611.089 735.668,611.427 735.777,611.766L747.196,608.099ZM740.896,591.52C740.742,591.169 740.586,590.819 740.429,590.47L729.489,595.385C729.635,595.71 729.78,596.035 729.923,596.361L740.896,591.52ZM732.898,575.69C732.708,575.357 732.516,575.025 732.323,574.694L721.957,580.726C722.136,581.034 722.314,581.342 722.491,581.651L732.898,575.69ZM723.289,560.782C723.065,560.472 722.839,560.162 722.613,559.853L712.934,566.935C713.145,567.222 713.354,567.51 713.562,567.799L723.289,560.782ZM712.174,546.961C711.919,546.676 711.662,546.391 711.405,546.107L702.519,554.162C702.759,554.426 702.997,554.691 703.234,554.956L712.174,546.961ZM699.676,534.378C699.392,534.12 699.107,533.864 698.821,533.609L690.826,542.549C691.092,542.786 691.356,543.024 691.62,543.263L699.676,534.378ZM685.93,523.169C685.621,522.943 685.311,522.718 685,522.494L677.984,532.221C678.272,532.429 678.56,532.638 678.848,532.848L685.93,523.169ZM671.089,513.459C670.757,513.267 670.426,513.075 670.093,512.885L664.132,523.292C664.441,523.469 664.749,523.647 665.057,523.826L671.089,513.459ZM655.313,505.354C654.964,505.197 654.614,505.041 654.263,504.886L649.422,515.859C649.748,516.003 650.073,516.148 650.398,516.294L655.313,505.354ZM638.777,498.942C638.413,498.822 638.049,498.704 637.684,498.587L634.016,510.006C634.355,510.114 634.694,510.225 635.032,510.336L638.777,498.942ZM621.661,494.293C621.287,494.212 620.912,494.133 620.537,494.054L618.083,505.794C618.431,505.867 618.78,505.941 619.128,506.016L621.661,494.293ZM604.153,491.46C603.772,491.418 603.391,491.378 603.01,491.339L601.797,503.271C602.151,503.307 602.505,503.345 602.859,503.383L604.153,491.46Z"/>
            </g>
            <g transform="matrix(2.99258,0,0,2.99258,-1162.71,-1384.29)">
                <path d="M585.986,490.47C585.909,490.47 585.832,490.47 585.755,490.47L585.758,495.755C585.833,495.755 585.907,495.755 585.982,495.755L585.986,490.47ZM583.028,490.494C582.951,490.495 582.874,490.497 582.797,490.498L582.893,495.782C582.968,495.78 583.042,495.779 583.117,495.778L583.028,490.494ZM580.072,490.569C579.995,490.572 579.918,490.575 579.841,490.578L580.029,495.859C580.104,495.856 580.178,495.853 580.253,495.851L580.072,490.569ZM577.117,490.696C577.041,490.7 576.964,490.704 576.887,490.709L577.167,495.985C577.241,495.981 577.316,495.978 577.39,495.974L577.117,490.696ZM574.166,490.875C574.089,490.88 574.012,490.886 573.935,490.891L574.307,496.162C574.382,496.157 574.456,496.152 574.531,496.147L574.166,490.875ZM571.217,491.105C571.141,491.112 571.064,491.118 570.987,491.125L571.451,496.389C571.526,496.382 571.6,496.376 571.674,496.37L571.217,491.105ZM568.273,491.386C568.197,491.394 568.12,491.402 568.044,491.411L568.6,496.666C568.674,496.658 568.748,496.65 568.822,496.642L568.273,491.386ZM565.335,491.719C565.258,491.729 565.182,491.738 565.106,491.747L565.753,496.992C565.827,496.983 565.901,496.974 565.975,496.965L565.335,491.719ZM562.403,492.103C562.326,492.114 562.25,492.125 562.174,492.135L562.913,497.368C562.987,497.357 563.061,497.347 563.134,497.337L562.403,492.103ZM559.478,492.538C559.401,492.55 559.325,492.562 559.249,492.574L560.08,497.793C560.153,497.781 560.227,497.77 560.301,497.758L559.478,492.538ZM556.56,493.024C556.485,493.038 556.409,493.051 556.333,493.065L557.254,498.268C557.328,498.255 557.401,498.242 557.475,498.229L556.56,493.024ZM553.652,493.561C553.577,493.576 553.501,493.591 553.426,493.605L554.437,498.792C554.511,498.778 554.584,498.763 554.657,498.749L553.652,493.561ZM550.754,494.149C550.679,494.165 550.603,494.181 550.528,494.197L551.63,499.365C551.703,499.35 551.776,499.334 551.849,499.319L550.754,494.149ZM547.866,494.787C547.791,494.804 547.716,494.822 547.641,494.839L548.833,499.987C548.906,499.97 548.979,499.954 549.052,499.937L547.866,494.787ZM544.99,495.476C544.916,495.494 544.841,495.513 544.766,495.531L546.048,500.658C546.12,500.64 546.193,500.622 546.265,500.604L544.99,495.476ZM542.127,496.214C542.052,496.234 541.978,496.254 541.904,496.274L543.275,501.377C543.347,501.358 543.419,501.338 543.491,501.319L542.127,496.214ZM539.276,497.002C539.202,497.024 539.128,497.045 539.054,497.066L540.514,502.145C540.586,502.124 540.658,502.103 540.73,502.083L539.276,497.002ZM536.44,497.84C536.367,497.863 536.293,497.885 536.219,497.908L537.768,502.96C537.839,502.938 537.911,502.917 537.982,502.895L536.44,497.84ZM533.619,498.728C533.546,498.751 533.473,498.775 533.4,498.799L535.036,503.824C535.107,503.801 535.178,503.777 535.249,503.754L533.619,498.728ZM530.814,499.664C530.741,499.689 530.669,499.714 530.596,499.739L532.32,504.735C532.39,504.71 532.461,504.686 532.531,504.662L530.814,499.664ZM528.026,500.649C527.954,500.676 527.881,500.702 527.809,500.728L529.62,505.693C529.69,505.667 529.76,505.642 529.83,505.616L528.026,500.649ZM525.255,501.683C525.183,501.711 525.111,501.738 525.04,501.766L526.937,506.698C527.006,506.671 527.076,506.644 527.146,506.618L525.255,501.683ZM522.503,502.765C522.432,502.794 522.36,502.823 522.289,502.852L524.272,507.75C524.341,507.722 524.41,507.694 524.479,507.666L522.503,502.765ZM519.77,503.895C519.699,503.925 519.628,503.955 519.557,503.985L521.625,508.848C521.694,508.819 521.763,508.79 521.831,508.761L519.77,503.895ZM517.057,505.072C516.987,505.104 516.916,505.135 516.846,505.166L518.999,509.992C519.067,509.962 519.135,509.932 519.203,509.901L517.057,505.072ZM514.365,506.297C514.295,506.329 514.226,506.362 514.156,506.395L516.392,511.182C516.46,511.151 516.528,511.119 516.595,511.088L514.365,506.297ZM511.695,507.568C511.626,507.602 511.557,507.636 511.488,507.67L513.807,512.417C513.874,512.385 513.941,512.352 514.008,512.319L511.695,507.568ZM509.048,508.886C508.979,508.921 508.911,508.956 508.842,508.991L511.244,513.698C511.311,513.664 511.377,513.63 511.444,513.596L509.048,508.886ZM506.424,510.25C506.356,510.286 506.288,510.322 506.22,510.358L508.704,515.022C508.77,514.987 508.835,514.952 508.901,514.917L506.424,510.25ZM503.824,511.659C503.756,511.696 503.689,511.734 503.622,511.771L506.187,516.391C506.252,516.355 506.317,516.319 506.383,516.283L503.824,511.659ZM501.249,513.114C501.182,513.152 501.116,513.19 501.049,513.229L503.694,517.804C503.759,517.766 503.823,517.729 503.888,517.692L501.249,513.114ZM498.7,514.613C498.634,514.652 498.568,514.692 498.502,514.732L501.226,519.259C501.29,519.221 501.354,519.182 501.418,519.144L498.7,514.613ZM496.177,516.156C496.112,516.197 496.047,516.238 495.981,516.279L498.785,520.758C498.848,520.718 498.911,520.679 498.974,520.639L496.177,516.156ZM493.682,517.743C493.617,517.785 493.553,517.827 493.488,517.869L496.369,522.299C496.432,522.258 496.494,522.218 496.557,522.177L493.682,517.743ZM491.215,519.374C491.151,519.417 491.087,519.46 491.023,519.503L493.981,523.882C494.043,523.84 494.105,523.799 494.167,523.757L491.215,519.374ZM488.777,521.047C488.713,521.091 488.65,521.136 488.587,521.18L491.621,525.506C491.682,525.464 491.743,525.421 491.805,525.378L488.777,521.047ZM486.368,522.763C486.305,522.808 486.243,522.853 486.181,522.899L489.29,527.172C489.35,527.128 489.411,527.084 489.471,527.04L486.368,522.763ZM483.989,524.52C483.928,524.567 483.866,524.613 483.805,524.659L486.988,528.878C487.047,528.833 487.107,528.788 487.167,528.743L483.989,524.52ZM481.642,526.319C481.581,526.366 481.521,526.414 481.46,526.461L484.716,530.623C484.775,530.577 484.834,530.531 484.892,530.485L481.642,526.319ZM479.326,528.159C479.266,528.207 479.207,528.255 479.147,528.304L482.475,532.408C482.533,532.361 482.591,532.314 482.649,532.267L479.326,528.159ZM477.043,530.038C476.984,530.087 476.925,530.137 476.866,530.187L480.266,534.232C480.323,534.184 480.38,534.136 480.437,534.088L477.043,530.038ZM474.793,531.957C474.735,532.008 474.677,532.058 474.619,532.109L478.088,536.094C478.145,536.045 478.201,535.996 478.257,535.948L474.793,531.957ZM472.577,533.915C472.52,533.967 472.462,534.018 472.405,534.07L475.944,537.994C475.999,537.944 476.055,537.894 476.11,537.845L472.577,533.915ZM470.395,535.912C470.339,535.964 470.282,536.017 470.226,536.069L473.833,539.931C473.887,539.88 473.942,539.83 473.996,539.779L470.395,535.912ZM468.249,537.946C468.193,537.999 468.138,538.053 468.082,538.106L471.756,541.905C471.809,541.853 471.863,541.801 471.917,541.749L468.249,537.946ZM466.138,540.017C466.083,540.072 466.029,540.126 465.975,540.18L469.714,543.915C469.766,543.862 469.819,543.809 469.872,543.756L466.138,540.017ZM464.064,542.125C464.01,542.18 463.957,542.236 463.903,542.291L467.707,545.959C467.759,545.906 467.811,545.852 467.862,545.798L464.064,542.125ZM462.027,544.269C461.974,544.325 461.921,544.381 461.869,544.438L465.736,548.039C465.787,547.984 465.838,547.93 465.889,547.875L462.027,544.269ZM460.027,546.448C459.976,546.505 459.924,546.562 459.873,546.619L463.802,550.153C463.852,550.097 463.902,550.042 463.952,549.986L460.027,546.448ZM458.066,548.661C458.016,548.719 457.965,548.777 457.915,548.836L461.905,552.3C461.954,552.243 462.003,552.187 462.052,552.131L458.066,548.661ZM456.144,550.909C456.094,550.968 456.045,551.027 455.995,551.086L460.046,554.48C460.094,554.422 460.142,554.365 460.19,554.308L456.144,550.909ZM454.261,553.189C454.213,553.249 454.164,553.309 454.116,553.369L458.225,556.692C458.272,556.634 458.319,556.576 458.366,556.518L454.261,553.189ZM452.419,555.502C452.371,555.563 452.324,555.624 452.277,555.685L456.443,558.935C456.489,558.876 456.535,558.817 456.581,558.759L452.419,555.502ZM450.617,557.847C450.571,557.909 450.524,557.97 450.478,558.032L454.7,561.209C454.745,561.15 454.79,561.09 454.835,561.03L450.617,557.847ZM448.856,560.223C448.811,560.286 448.766,560.348 448.72,560.41L452.998,563.514C453.041,563.453 453.085,563.393 453.129,563.332L448.856,560.223ZM447.137,562.63C447.093,562.693 447.049,562.756 447.005,562.819L451.335,565.847C451.378,565.786 451.421,565.725 451.464,565.664L447.137,562.63ZM445.461,565.066C445.417,565.13 445.374,565.194 445.331,565.257L449.714,568.209C449.756,568.148 449.798,568.086 449.839,568.024L445.461,565.066ZM443.827,567.531C443.785,567.595 443.743,567.66 443.701,567.725L448.135,570.6C448.175,570.537 448.216,570.474 448.256,570.412L443.827,567.531ZM442.236,570.024C442.195,570.089 442.154,570.155 442.114,570.22L446.597,573.017C446.636,572.954 446.676,572.89 446.715,572.827L442.236,570.024ZM440.689,572.544C440.649,572.61 440.61,572.676 440.57,572.742L445.102,575.461C445.14,575.397 445.178,575.333 445.217,575.269L440.689,572.544ZM439.186,575.091C439.148,575.158 439.109,575.225 439.071,575.292L443.649,577.931C443.686,577.866 443.724,577.801 443.761,577.737L439.186,575.091ZM437.728,577.664C437.691,577.732 437.654,577.799 437.616,577.866L442.24,580.425C442.276,580.36 442.312,580.295 442.348,580.229L437.728,577.664ZM436.316,580.262C436.279,580.33 436.243,580.398 436.207,580.466L440.875,582.944C440.91,582.878 440.945,582.812 440.98,582.746L436.316,580.262ZM434.948,582.885C434.913,582.953 434.878,583.022 434.843,583.09L439.553,585.486C439.587,585.42 439.621,585.353 439.655,585.287L434.948,582.885ZM433.627,585.53C433.593,585.599 433.559,585.669 433.526,585.738L438.277,588.051C438.309,587.984 438.342,587.917 438.375,587.85L433.627,585.53ZM432.352,588.199C432.319,588.268 432.287,588.338 432.254,588.408L437.045,590.638C437.077,590.57 437.108,590.503 437.14,590.435L432.352,588.199ZM431.124,590.889C431.092,590.959 431.061,591.029 431.03,591.1L435.859,593.246C435.889,593.178 435.919,593.109 435.95,593.041L431.124,590.889ZM429.943,593.6C429.913,593.671 429.882,593.742 429.852,593.813L434.718,595.874C434.747,595.805 434.776,595.737 434.806,595.668L429.943,593.6ZM428.809,596.331C428.78,596.403 428.751,596.474 428.723,596.546L433.623,598.522C433.651,598.453 433.679,598.383 433.707,598.314L428.809,596.331ZM427.723,599.082C427.696,599.154 427.668,599.226 427.641,599.298L432.575,601.188C432.602,601.118 432.629,601.049 432.655,600.979L427.723,599.082ZM426.686,601.851C426.659,601.924 426.633,601.996 426.607,602.068L431.574,603.872C431.599,603.802 431.625,603.732 431.65,603.662L426.686,601.851ZM425.697,604.638C425.672,604.711 425.647,604.784 425.622,604.857L430.619,606.574C430.643,606.503 430.668,606.433 430.692,606.362L425.697,604.638ZM424.756,607.442C424.733,607.515 424.709,607.589 424.685,607.662L429.712,609.291C429.735,609.22 429.758,609.15 429.781,609.079L424.756,607.442ZM423.865,610.262C423.843,610.336 423.82,610.409 423.798,610.483L428.852,612.025C428.874,611.953 428.896,611.882 428.918,611.81L423.865,610.262ZM423.023,613.097C423.002,613.171 422.981,613.245 422.96,613.319L428.04,614.772C428.061,614.7 428.081,614.629 428.102,614.557L423.023,613.097ZM422.231,615.946C422.211,616.021 422.191,616.095 422.171,616.169L427.277,617.534C427.296,617.461 427.315,617.389 427.335,617.317L422.231,615.946ZM421.489,618.809C421.47,618.883 421.451,618.958 421.433,619.033L426.561,620.308C426.579,620.235 426.597,620.163 426.615,620.091L421.489,618.809ZM420.796,621.684C420.779,621.759 420.762,621.834 420.745,621.909L425.894,623.094C425.911,623.021 425.928,622.949 425.945,622.876L420.796,621.684ZM420.154,624.571C420.138,624.646 420.122,624.721 420.106,624.797L425.276,625.892C425.291,625.819 425.307,625.746 425.323,625.673L420.154,624.571ZM419.563,627.468C419.548,627.544 419.533,627.619 419.519,627.695L424.707,628.7C424.721,628.626 424.735,628.553 424.749,628.48L419.563,627.468ZM419.022,630.376C419.009,630.451 418.995,630.527 418.982,630.603L424.187,631.517C424.199,631.444 424.212,631.37 424.225,631.297L419.022,630.376ZM418.532,633.292C418.52,633.368 418.508,633.444 418.496,633.52L423.716,634.343C423.727,634.27 423.739,634.196 423.751,634.122L418.532,633.292ZM418.093,636.216C418.082,636.293 418.071,636.369 418.061,636.445L423.294,637.177C423.304,637.103 423.315,637.029 423.325,636.955L418.093,636.216ZM417.705,639.148C417.695,639.225 417.686,639.301 417.677,639.377L422.922,640.018C422.931,639.944 422.94,639.87 422.949,639.796L417.705,639.148ZM417.368,642.086C417.36,642.163 417.352,642.239 417.344,642.316L422.6,642.865C422.607,642.791 422.615,642.716 422.623,642.642L417.368,642.086ZM417.083,645.03C417.076,645.106 417.069,645.183 417.062,645.26L422.327,645.717C422.333,645.642 422.34,645.568 422.346,645.494L417.083,645.03ZM416.849,647.978C416.843,648.055 416.838,648.131 416.832,648.208L422.104,648.573C422.109,648.499 422.114,648.424 422.12,648.35L416.849,647.978ZM416.666,650.929C416.662,651.006 416.658,651.083 416.654,651.16L421.931,651.433C421.935,651.359 421.939,651.284 421.943,651.21L416.666,650.929ZM416.535,653.884C416.532,653.961 416.53,654.038 416.527,654.115L421.808,654.295C421.811,654.221 421.813,654.146 421.816,654.072L416.535,653.884ZM416.456,656.84C416.454,656.917 416.453,656.994 416.451,657.071L421.735,657.16C421.736,657.085 421.738,657.01 421.739,656.936L416.456,656.84ZM416.428,659.797C416.428,659.874 416.428,659.951 416.428,660.028L421.712,660.025C421.712,659.95 421.712,659.875 421.712,659.801L416.428,659.797ZM416.451,662.754C416.453,662.831 416.454,662.908 416.456,662.985L421.739,662.889C421.738,662.815 421.736,662.74 421.735,662.666L416.451,662.754ZM416.527,665.711C416.53,665.788 416.532,665.865 416.535,665.942L421.816,665.754C421.813,665.679 421.811,665.604 421.808,665.53L416.527,665.711ZM416.654,668.665C416.658,668.742 416.662,668.819 416.666,668.896L421.943,668.616C421.939,668.541 421.935,668.467 421.931,668.392L416.654,668.665ZM416.832,671.617C416.838,671.694 416.843,671.771 416.849,671.848L422.12,671.475C422.114,671.401 422.109,671.327 422.104,671.252L416.832,671.617ZM417.062,674.565C417.069,674.642 417.076,674.719 417.083,674.796L422.346,674.331C422.34,674.257 422.333,674.183 422.327,674.108L417.062,674.565ZM417.344,677.509C417.352,677.586 417.36,677.662 417.368,677.739L422.623,677.183C422.615,677.109 422.607,677.035 422.6,676.961L417.344,677.509ZM417.677,680.448C417.686,680.524 417.695,680.601 417.705,680.677L422.949,680.03C422.94,679.956 422.931,679.881 422.922,679.807L417.677,680.448ZM418.061,683.38C418.071,683.456 418.082,683.533 418.093,683.609L423.325,682.87C423.315,682.796 423.304,682.722 423.294,682.648L418.061,683.38ZM418.496,686.305C418.508,686.381 418.52,686.457 418.532,686.533L423.751,685.703C423.739,685.629 423.727,685.556 423.716,685.482L418.496,686.305ZM418.982,689.222C418.995,689.298 419.009,689.374 419.022,689.45L424.225,688.529C424.212,688.455 424.199,688.382 424.187,688.308L418.982,689.222ZM419.519,692.13C419.533,692.206 419.548,692.282 419.563,692.357L424.749,691.345C424.735,691.272 424.721,691.199 424.707,691.126L419.519,692.13ZM420.106,695.029C420.122,695.104 420.138,695.179 420.154,695.255L425.323,694.152C425.307,694.08 425.291,694.007 425.276,693.934L420.106,695.029ZM420.745,697.916C420.762,697.991 420.779,698.066 420.796,698.141L425.945,696.949C425.928,696.877 425.911,696.804 425.894,696.731L420.745,697.916ZM421.433,700.792C421.451,700.867 421.47,700.942 421.489,701.017L426.615,699.735C426.597,699.662 426.579,699.59 426.561,699.517L421.433,700.792ZM422.171,703.656C422.191,703.73 422.211,703.805 422.231,703.879L427.335,702.508C427.315,702.436 427.296,702.364 427.277,702.292L422.171,703.656ZM422.96,706.506C422.981,706.58 423.002,706.654 423.023,706.728L428.102,705.268C428.081,705.197 428.061,705.125 428.04,705.053L422.96,706.506ZM423.798,709.342C423.82,709.416 423.843,709.49 423.865,709.563L428.918,708.015C428.896,707.944 428.874,707.872 428.852,707.801L423.798,709.342ZM424.685,712.163C424.709,712.237 424.733,712.31 424.756,712.383L429.781,710.747C429.758,710.676 429.735,710.605 429.712,710.534L424.685,712.163ZM425.622,714.968C425.647,715.041 425.672,715.114 425.697,715.187L430.692,713.463C430.668,713.393 430.643,713.322 430.619,713.251L425.622,714.968ZM426.607,717.757C426.633,717.829 426.659,717.902 426.686,717.974L431.65,716.163C431.625,716.093 431.599,716.023 431.574,715.953L426.607,717.757ZM427.641,720.528C427.668,720.599 427.696,720.671 427.723,720.743L432.655,718.846C432.629,718.776 432.602,718.707 432.575,718.637L427.641,720.528ZM428.723,723.28C428.751,723.351 428.78,723.423 428.809,723.494L433.707,721.511C433.679,721.442 433.651,721.373 433.623,721.304L428.723,723.28ZM429.852,726.013C429.882,726.084 429.913,726.155 429.943,726.225L434.806,724.157C434.776,724.089 434.747,724.02 434.718,723.951L429.852,726.013ZM431.03,728.726C431.061,728.796 431.092,728.866 431.124,728.937L435.95,726.784C435.919,726.716 435.889,726.648 435.859,726.58L431.03,728.726ZM432.254,731.417C432.287,731.487 432.319,731.557 432.352,731.627L437.14,729.39C437.108,729.323 437.077,729.255 437.045,729.187L432.254,731.417ZM433.526,734.087C433.559,734.157 433.593,734.226 433.627,734.295L438.375,731.975C438.342,731.908 438.309,731.841 438.277,731.774L433.526,734.087ZM434.843,736.735C434.878,736.804 434.913,736.872 434.948,736.941L439.655,734.539C439.621,734.472 439.587,734.406 439.553,734.339L434.843,736.735ZM436.207,739.359C436.243,739.427 436.279,739.495 436.316,739.563L440.98,737.079C440.945,737.013 440.91,736.947 440.875,736.881L436.207,739.359ZM437.616,741.959C437.654,742.026 437.691,742.094 437.728,742.161L442.348,739.596C442.312,739.531 442.276,739.465 442.24,739.4L437.616,741.959ZM439.071,744.534C439.109,744.601 439.148,744.667 439.186,744.734L443.761,742.089C443.724,742.024 443.686,741.959 443.649,741.895L439.071,744.534ZM440.57,747.083C440.61,747.149 440.649,747.215 440.689,747.281L445.217,744.556C445.178,744.492 445.14,744.428 445.102,744.364L440.57,747.083ZM442.114,749.605C442.154,749.671 442.195,749.736 442.236,749.801L446.715,746.998C446.676,746.935 446.636,746.872 446.597,746.808L442.114,749.605ZM443.701,752.101C443.743,752.165 443.785,752.23 443.827,752.294L448.256,749.413C448.216,749.351 448.175,749.288 448.135,749.226L443.701,752.101ZM445.331,754.568C445.374,754.632 445.417,754.696 445.461,754.759L449.839,751.801C449.798,751.74 449.756,751.678 449.714,751.616L445.331,754.568ZM447.005,757.006C447.049,757.069 447.093,757.132 447.137,757.195L451.464,754.162C451.421,754.1 451.378,754.039 451.335,753.978L447.005,757.006ZM448.72,759.415C448.766,759.477 448.811,759.54 448.856,759.602L453.129,756.493C453.085,756.433 453.041,756.372 452.998,756.312L448.72,759.415ZM450.478,761.793C450.524,761.855 450.571,761.916 450.617,761.978L454.835,758.795C454.79,758.735 454.745,758.676 454.7,758.616L450.478,761.793ZM452.277,764.141C452.324,764.201 452.371,764.262 452.419,764.323L456.581,761.067C456.535,761.008 456.489,760.949 456.443,760.89L452.277,764.141ZM454.116,766.456C454.164,766.516 454.213,766.576 454.261,766.636L458.366,763.308C458.319,763.25 458.272,763.192 458.225,763.134L454.116,766.456ZM455.995,768.74C456.045,768.799 456.094,768.858 456.144,768.917L460.19,765.517C460.142,765.46 460.094,765.403 460.046,765.346L455.995,768.74ZM457.915,770.99C457.965,771.048 458.016,771.106 458.066,771.164L462.052,767.694C462.003,767.638 461.954,767.582 461.905,767.526L457.915,770.99ZM459.873,773.206C459.924,773.263 459.976,773.32 460.027,773.378L463.952,769.839C463.902,769.784 463.852,769.728 463.802,769.673L459.873,773.206ZM461.869,775.388C461.921,775.444 461.974,775.5 462.027,775.557L465.889,771.95C465.838,771.895 465.787,771.841 465.736,771.786L461.869,775.388ZM463.903,777.534C463.957,777.59 464.01,777.645 464.064,777.7L467.862,774.027C467.811,773.973 467.759,773.92 467.707,773.866L463.903,777.534ZM465.975,779.645C466.029,779.699 466.083,779.754 466.138,779.808L469.872,776.069C469.819,776.016 469.766,775.964 469.714,775.911L465.975,779.645ZM468.082,781.719C468.138,781.773 468.193,781.826 468.249,781.88L471.917,778.076C471.863,778.024 471.809,777.972 471.756,777.92L468.082,781.719ZM470.226,783.756C470.282,783.809 470.339,783.861 470.395,783.914L473.996,780.047C473.942,779.996 473.887,779.945 473.833,779.894L470.226,783.756ZM472.405,785.756C472.462,785.807 472.52,785.859 472.577,785.91L476.11,781.981C476.055,781.931 475.999,781.881 475.944,781.831L472.405,785.756ZM474.619,787.717C474.677,787.767 474.735,787.818 474.793,787.868L478.257,783.878C478.201,783.829 478.145,783.78 478.088,783.731L474.619,787.717ZM476.866,789.639C476.925,789.688 476.984,789.738 477.043,789.787L480.437,785.737C480.38,785.689 480.323,785.641 480.266,785.593L476.866,789.639ZM479.147,791.521C479.207,791.57 479.266,791.618 479.326,791.667L482.649,787.558C482.591,787.511 482.533,787.464 482.475,787.417L479.147,791.521ZM481.46,793.364C481.521,793.411 481.581,793.459 481.642,793.506L484.892,789.34C484.834,789.294 484.775,789.248 484.716,789.202L481.46,793.364ZM483.805,795.166C483.866,795.212 483.928,795.259 483.989,795.305L487.167,791.082C487.107,791.038 487.047,790.993 486.988,790.948L483.805,795.166ZM486.181,796.927C486.243,796.972 486.305,797.017 486.368,797.062L489.471,792.785C489.411,792.741 489.35,792.697 489.29,792.654L486.181,796.927ZM488.587,798.645C488.65,798.69 488.713,798.734 488.777,798.778L491.805,794.447C491.743,794.404 491.682,794.362 491.621,794.319L488.587,798.645ZM491.023,800.322C491.087,800.365 491.151,800.408 491.215,800.451L494.167,796.068C494.105,796.027 494.043,795.985 493.981,795.943L491.023,800.322ZM493.488,801.956C493.553,801.998 493.617,802.04 493.682,802.082L496.557,797.648C496.494,797.608 496.432,797.567 496.369,797.526L493.488,801.956ZM495.981,803.547C496.047,803.588 496.112,803.628 496.177,803.669L498.974,799.186C498.911,799.146 498.848,799.107 498.785,799.067L495.981,803.547ZM498.502,805.094C498.568,805.133 498.634,805.173 498.7,805.213L501.418,800.681C501.354,800.643 501.29,800.604 501.226,800.566L498.502,805.094ZM501.049,806.596C501.116,806.635 501.182,806.673 501.249,806.712L503.888,802.134C503.823,802.096 503.759,802.059 503.694,802.022L501.049,806.596ZM503.622,808.054C503.689,808.092 503.756,808.129 503.824,808.166L506.383,803.543C506.317,803.507 506.252,803.47 506.187,803.434L503.622,808.054ZM506.22,809.467C506.288,809.503 506.356,809.539 506.424,809.576L508.901,804.908C508.835,804.873 508.77,804.838 508.704,804.803L506.22,809.467ZM508.842,810.834C508.911,810.869 508.979,810.904 509.048,810.939L511.444,806.229C511.377,806.196 511.311,806.162 511.244,806.128L508.842,810.834ZM511.488,812.156C511.557,812.19 511.626,812.223 511.695,812.257L514.008,807.506C513.941,807.473 513.874,807.441 513.807,807.408L511.488,812.156ZM514.156,813.431C514.226,813.463 514.295,813.496 514.365,813.528L516.595,808.738C516.528,808.706 516.46,808.675 516.392,808.643L514.156,813.431ZM516.846,814.659C516.916,814.69 516.987,814.722 517.057,814.753L519.203,809.924C519.135,809.894 519.067,809.863 518.999,809.833L516.846,814.659ZM519.557,815.84C519.628,815.87 519.699,815.9 519.77,815.93L521.831,811.065C521.763,811.036 521.694,811.006 521.625,810.977L519.557,815.84ZM522.289,816.974C522.36,817.002 522.432,817.031 522.503,817.06L524.479,812.159C524.41,812.131 524.341,812.103 524.272,812.075L522.289,816.974ZM525.04,818.059C525.111,818.087 525.183,818.115 525.255,818.142L527.146,813.207C527.076,813.181 527.006,813.154 526.937,813.127L525.04,818.059ZM527.809,819.097C527.881,819.123 527.954,819.15 528.026,819.176L529.83,814.209C529.76,814.184 529.69,814.158 529.62,814.132L527.809,819.097ZM530.596,820.086C530.669,820.111 530.741,820.136 530.814,820.161L532.531,815.164C532.461,815.139 532.39,815.115 532.32,815.091L530.596,820.086ZM533.4,821.026C533.473,821.05 533.546,821.074 533.619,821.098L535.249,816.071C535.178,816.048 535.107,816.025 535.036,816.002L533.4,821.026ZM536.219,821.917C536.293,821.94 536.367,821.962 536.44,821.985L537.982,816.93C537.911,816.909 537.839,816.887 537.768,816.865L536.219,821.917ZM539.054,822.759C539.128,822.781 539.202,822.802 539.276,822.823L540.73,817.742C540.658,817.722 540.586,817.701 540.514,817.681L539.054,822.759ZM541.904,823.552C541.978,823.571 542.052,823.591 542.127,823.611L543.491,818.506C543.419,818.487 543.347,818.468 543.275,818.448L541.904,823.552ZM544.766,824.294C544.841,824.313 544.916,824.331 544.99,824.35L546.265,819.222C546.193,819.204 546.12,819.186 546.048,819.167L544.766,824.294ZM547.641,824.986C547.716,825.004 547.791,825.021 547.866,825.038L549.052,819.889C548.979,819.872 548.906,819.855 548.833,819.838L547.641,824.986ZM550.528,825.628C550.603,825.644 550.679,825.66 550.754,825.676L551.849,820.507C551.776,820.491 551.703,820.476 551.63,820.46L550.528,825.628ZM553.426,826.22C553.501,826.235 553.577,826.249 553.652,826.264L554.657,821.076C554.584,821.062 554.511,821.048 554.437,821.033L553.426,826.22ZM556.333,826.761C556.409,826.774 556.485,826.788 556.56,826.801L557.475,821.596C557.401,821.583 557.328,821.57 557.254,821.557L556.333,826.761ZM559.249,827.251C559.325,827.263 559.401,827.275 559.478,827.287L560.301,822.067C560.227,822.056 560.153,822.044 560.08,822.032L559.249,827.251ZM562.174,827.69C562.25,827.701 562.326,827.711 562.403,827.722L563.134,822.489C563.061,822.478 562.987,822.468 562.913,822.458L562.174,827.69ZM565.106,828.078C565.182,828.087 565.258,828.097 565.335,828.106L565.975,822.861C565.901,822.852 565.827,822.843 565.753,822.833L565.106,828.078ZM568.044,828.415C568.12,828.423 568.197,828.431 568.273,828.439L568.822,823.183C568.748,823.175 568.674,823.168 568.6,823.16L568.044,828.415ZM570.987,828.7C571.064,828.707 571.141,828.714 571.217,828.72L571.674,823.456C571.6,823.449 571.526,823.443 571.451,823.436L570.987,828.7ZM573.935,828.934C574.012,828.94 574.089,828.945 574.166,828.95L574.531,823.679C574.456,823.673 574.382,823.668 574.307,823.663L573.935,828.934ZM576.887,829.117C576.964,829.121 577.041,829.125 577.117,829.129L577.39,823.852C577.316,823.848 577.241,823.844 577.167,823.84L576.887,829.117ZM579.841,829.248C579.918,829.25 579.995,829.253 580.072,829.256L580.253,823.975C580.178,823.972 580.104,823.969 580.029,823.967L579.841,829.248ZM582.797,829.327C582.874,829.329 582.951,829.33 583.028,829.331L583.117,824.048C583.042,824.046 582.968,824.045 582.893,824.044L582.797,829.327ZM585.755,829.355C585.832,829.355 585.909,829.355 585.986,829.355L585.982,824.071C585.907,824.071 585.833,824.071 585.758,824.071L585.755,829.355ZM588.712,829.331C588.789,829.33 588.866,829.329 588.943,829.327L588.847,824.044C588.772,824.045 588.698,824.046 588.623,824.048L588.712,829.331ZM591.668,829.256C591.745,829.253 591.822,829.25 591.899,829.248L591.711,823.967C591.636,823.969 591.562,823.972 591.487,823.975L591.668,829.256ZM594.623,829.129C594.7,829.125 594.776,829.121 594.853,829.117L594.573,823.84C594.499,823.844 594.424,823.848 594.35,823.852L594.623,829.129ZM597.575,828.95C597.651,828.945 597.728,828.94 597.805,828.934L597.433,823.663C597.358,823.668 597.284,823.673 597.21,823.679L597.575,828.95ZM600.523,828.72C600.6,828.714 600.676,828.707 600.753,828.7L600.289,823.436C600.215,823.443 600.14,823.449 600.066,823.456L600.523,828.72ZM603.467,828.439C603.543,828.431 603.62,828.423 603.696,828.415L603.141,823.16C603.066,823.168 602.992,823.175 602.918,823.183L603.467,828.439ZM606.405,828.106C606.482,828.097 606.558,828.087 606.635,828.078L605.987,822.833C605.913,822.843 605.839,822.852 605.765,822.861L606.405,828.106ZM609.337,827.722C609.414,827.711 609.49,827.701 609.566,827.69L608.827,822.458C608.753,822.468 608.68,822.478 608.606,822.489L609.337,827.722ZM612.263,827.287C612.339,827.275 612.415,827.263 612.491,827.251L611.661,822.032C611.587,822.044 611.513,822.056 611.439,822.067L612.263,827.287ZM615.18,826.801C615.256,826.788 615.331,826.774 615.407,826.761L614.486,821.557C614.413,821.57 614.339,821.583 614.266,821.596L615.18,826.801ZM618.088,826.264C618.163,826.249 618.239,826.235 618.315,826.22L617.303,821.033C617.23,821.048 617.156,821.062 617.083,821.076L618.088,826.264ZM620.986,825.676C621.061,825.66 621.137,825.644 621.212,825.628L620.11,820.46C620.037,820.476 619.964,820.491 619.891,820.507L620.986,825.676ZM623.874,825.038C623.949,825.021 624.024,825.004 624.099,824.986L622.907,819.838C622.834,819.855 622.761,819.872 622.689,819.889L623.874,825.038ZM626.75,824.35C626.825,824.331 626.899,824.313 626.974,824.294L625.692,819.167C625.62,819.186 625.547,819.204 625.475,819.222L626.75,824.35ZM629.613,823.611C629.688,823.591 629.762,823.571 629.837,823.552L628.465,818.448C628.393,818.468 628.321,818.487 628.249,818.506L629.613,823.611ZM632.464,822.823C632.538,822.802 632.612,822.781 632.686,822.759L631.226,817.681C631.154,817.701 631.082,817.722 631.011,817.742L632.464,822.823ZM635.3,821.985C635.373,821.962 635.447,821.94 635.521,821.917L633.972,816.865C633.901,816.887 633.83,816.909 633.758,816.93L635.3,821.985ZM638.121,821.098C638.194,821.074 638.267,821.05 638.34,821.026L636.704,816.002C636.633,816.025 636.562,816.048 636.491,816.071L638.121,821.098ZM640.926,820.161C640.999,820.136 641.072,820.111 641.144,820.086L639.421,815.091C639.35,815.115 639.279,815.139 639.209,815.164L640.926,820.161ZM643.714,819.176C643.787,819.15 643.859,819.123 643.931,819.097L642.121,814.132C642.05,814.158 641.98,814.184 641.91,814.209L643.714,819.176ZM646.485,818.142C646.557,818.115 646.629,818.087 646.701,818.059L644.804,813.127C644.734,813.154 644.664,813.181 644.595,813.207L646.485,818.142ZM649.237,817.06C649.309,817.031 649.38,817.002 649.451,816.974L647.469,812.075C647.399,812.103 647.33,812.131 647.261,812.159L649.237,817.06ZM651.97,815.93C652.041,815.9 652.112,815.87 652.183,815.84L650.115,810.977C650.046,811.006 649.977,811.036 649.909,811.065L651.97,815.93ZM654.683,814.753C654.753,814.722 654.824,814.69 654.894,814.659L652.741,809.833C652.673,809.863 652.605,809.894 652.537,809.924L654.683,814.753ZM657.375,813.528C657.445,813.496 657.514,813.463 657.584,813.431L655.348,808.643C655.28,808.675 655.212,808.706 655.145,808.738L657.375,813.528ZM660.045,812.257C660.114,812.223 660.183,812.19 660.253,812.156L657.933,807.408C657.866,807.441 657.799,807.473 657.732,807.506L660.045,812.257ZM662.692,810.939C662.761,810.904 662.83,810.869 662.898,810.834L660.496,806.128C660.43,806.162 660.363,806.196 660.297,806.229L662.692,810.939ZM665.316,809.576C665.384,809.539 665.452,809.503 665.52,809.467L663.036,804.803C662.971,804.838 662.905,804.873 662.839,804.908L665.316,809.576ZM667.916,808.166C667.984,808.129 668.051,808.092 668.118,808.054L665.553,803.434C665.488,803.47 665.423,803.507 665.358,803.543L667.916,808.166ZM670.491,806.712C670.558,806.673 670.625,806.635 670.691,806.596L668.046,802.022C667.981,802.059 667.917,802.096 667.852,802.134L670.491,806.712ZM673.04,805.213C673.106,805.173 673.172,805.133 673.238,805.094L670.514,800.566C670.45,800.604 670.386,800.643 670.322,800.681L673.04,805.213ZM675.563,803.669C675.628,803.628 675.694,803.588 675.759,803.547L672.955,799.067C672.892,799.107 672.829,799.146 672.766,799.186L675.563,803.669ZM678.058,802.082C678.123,802.04 678.187,801.998 678.252,801.956L675.371,797.526C675.308,797.567 675.246,797.608 675.183,797.648L678.058,802.082ZM680.525,800.451C680.589,800.408 680.653,800.365 680.717,800.322L677.759,795.943C677.697,795.985 677.635,796.027 677.573,796.068L680.525,800.451ZM682.964,798.778C683.027,798.734 683.09,798.69 683.153,798.645L680.119,794.319C680.058,794.362 679.997,794.404 679.936,794.447L682.964,798.778ZM685.372,797.062C685.435,797.017 685.497,796.972 685.559,796.927L682.45,792.654C682.39,792.697 682.33,792.741 682.269,792.785L685.372,797.062ZM687.751,795.305C687.812,795.259 687.874,795.212 687.935,795.166L684.752,790.948C684.693,790.993 684.633,791.038 684.573,791.082L687.751,795.305ZM690.098,793.506C690.159,793.459 690.22,793.411 690.28,793.364L687.024,789.202C686.965,789.248 686.906,789.294 686.848,789.34L690.098,793.506ZM692.414,791.667C692.474,791.618 692.534,791.57 692.593,791.521L689.265,787.417C689.207,787.464 689.149,787.511 689.091,787.558L692.414,791.667ZM694.697,789.787C694.756,789.738 694.815,789.688 694.874,789.639L691.475,785.593C691.417,785.641 691.36,785.689 691.303,785.737L694.697,789.787ZM696.947,787.868C697.005,787.818 697.063,787.767 697.121,787.717L693.652,783.731C693.596,783.78 693.539,783.829 693.483,783.878L696.947,787.868ZM699.163,785.91C699.221,785.859 699.278,785.807 699.335,785.756L695.796,781.831C695.741,781.881 695.686,781.931 695.63,781.981L699.163,785.91ZM701.345,783.914C701.401,783.861 701.458,783.809 701.514,783.756L697.907,779.894C697.853,779.945 697.798,779.996 697.744,780.047L701.345,783.914ZM703.492,781.88C703.547,781.826 703.602,781.773 703.658,781.719L699.984,777.92C699.931,777.972 699.877,778.024 699.823,778.076L703.492,781.88ZM705.602,779.808C705.657,779.754 705.711,779.699 705.766,779.645L702.026,775.911C701.974,775.964 701.921,776.016 701.868,776.069L705.602,779.808ZM707.676,777.7C707.73,777.645 707.783,777.59 707.837,777.534L704.033,773.866C703.981,773.92 703.93,773.973 703.878,774.027L707.676,777.7ZM709.714,775.557C709.766,775.5 709.819,775.444 709.871,775.388L706.004,771.786C705.953,771.841 705.902,771.895 705.851,771.95L709.714,775.557ZM711.713,773.378C711.765,773.32 711.816,773.263 711.868,773.206L707.938,769.673C707.888,769.728 707.838,769.784 707.788,769.839L711.713,773.378ZM713.674,771.164C713.725,771.106 713.775,771.048 713.826,770.99L709.835,767.526C709.786,767.582 709.737,767.638 709.688,767.694L713.674,771.164ZM715.596,768.917C715.646,768.858 715.695,768.799 715.745,768.74L711.694,765.346C711.646,765.403 711.598,765.46 711.55,765.517L715.596,768.917ZM717.479,766.636C717.527,766.576 717.576,766.516 717.624,766.456L713.515,763.134C713.468,763.192 713.421,763.25 713.374,763.308L717.479,766.636ZM719.321,764.323C719.369,764.262 719.416,764.201 719.464,764.141L715.297,760.89C715.251,760.949 715.205,761.008 715.159,761.067L719.321,764.323ZM721.123,761.978C721.17,761.916 721.216,761.855 721.262,761.793L717.04,758.616C716.995,758.676 716.95,758.735 716.905,758.795L721.123,761.978ZM722.884,759.602C722.929,759.54 722.974,759.477 723.02,759.415L718.742,756.312C718.699,756.372 718.655,756.433 718.611,756.493L722.884,759.602ZM724.603,757.195C724.647,757.132 724.691,757.069 724.735,757.006L720.405,753.978C720.362,754.039 720.319,754.1 720.276,754.162L724.603,757.195ZM726.28,754.759C726.323,754.696 726.366,754.632 726.409,754.568L722.026,751.616C721.984,751.678 721.942,751.74 721.901,751.801L726.28,754.759ZM727.913,752.294C727.955,752.23 727.997,752.165 728.039,752.101L723.606,749.226C723.565,749.288 723.524,749.351 723.484,749.413L727.913,752.294ZM729.504,749.801C729.545,749.736 729.586,749.671 729.627,749.605L725.143,746.808C725.104,746.872 725.064,746.935 725.025,746.998L729.504,749.801ZM731.051,747.281C731.091,747.215 731.13,747.149 731.17,747.083L726.639,744.364C726.6,744.428 726.562,744.492 726.523,744.556L731.051,747.281ZM732.554,744.734C732.592,744.667 732.631,744.601 732.669,744.534L728.091,741.895C728.054,741.959 728.016,742.024 727.979,742.089L732.554,744.734ZM734.012,742.161C734.049,742.094 734.086,742.026 734.124,741.959L729.5,739.4C729.464,739.465 729.428,739.531 729.392,739.596L734.012,742.161ZM735.425,739.563C735.461,739.495 735.497,739.427 735.533,739.359L730.866,736.881C730.831,736.947 730.796,737.013 730.76,737.079L735.425,739.563ZM736.792,736.941C736.827,736.872 736.862,736.804 736.897,736.735L732.187,734.339C732.153,734.406 732.119,734.472 732.085,734.539L736.792,736.941ZM738.113,734.295C738.147,734.226 738.181,734.157 738.214,734.087L733.463,731.774C733.431,731.841 733.398,731.908 733.365,731.975L738.113,734.295ZM739.388,731.627C739.421,731.557 739.453,731.487 739.486,731.417L734.695,729.187C734.664,729.255 734.632,729.323 734.6,729.39L739.388,731.627ZM740.616,728.937C740.648,728.866 740.679,728.796 740.71,728.726L735.881,726.58C735.851,726.648 735.821,726.716 735.79,726.784L740.616,728.937ZM741.797,726.225C741.828,726.155 741.858,726.084 741.888,726.013L737.022,723.951C736.993,724.02 736.964,724.089 736.935,724.157L741.797,726.225ZM742.931,723.494C742.96,723.423 742.989,723.351 743.018,723.28L738.117,721.304C738.089,721.373 738.061,721.442 738.033,721.511L742.931,723.494ZM744.017,720.743C744.044,720.671 744.072,720.599 744.1,720.528L739.165,718.637C739.138,718.707 739.111,718.776 739.085,718.846L744.017,720.743ZM745.054,717.974C745.081,717.902 745.107,717.829 745.133,717.757L740.166,715.953C740.141,716.023 740.115,716.093 740.09,716.163L745.054,717.974ZM746.043,715.187C746.068,715.114 746.094,715.041 746.119,714.968L741.121,713.251C741.097,713.322 741.072,713.393 741.048,713.463L746.043,715.187ZM746.984,712.383C747.007,712.31 747.031,712.237 747.055,712.163L742.028,710.534C742.005,710.605 741.982,710.676 741.959,710.747L746.984,712.383ZM747.875,709.563C747.897,709.49 747.92,709.416 747.942,709.342L742.888,707.801C742.866,707.872 742.844,707.944 742.822,708.015L747.875,709.563ZM748.717,706.728C748.738,706.654 748.759,706.58 748.78,706.506L743.7,705.053C743.679,705.125 743.659,705.197 743.638,705.268L748.717,706.728ZM749.509,703.879C749.529,703.805 749.549,703.73 749.569,703.656L744.464,702.292C744.444,702.364 744.425,702.436 744.406,702.508L749.509,703.879ZM750.251,701.017C750.27,700.942 750.289,700.867 750.307,700.792L745.179,699.517C745.161,699.59 745.143,699.662 745.125,699.735L750.251,701.017ZM750.944,698.141C750.961,698.066 750.978,697.991 750.996,697.916L745.846,696.731C745.829,696.804 745.812,696.877 745.796,696.949L750.944,698.141ZM751.586,695.255C751.602,695.179 751.618,695.104 751.634,695.029L746.464,693.934C746.449,694.007 746.433,694.08 746.418,694.152L751.586,695.255ZM752.177,692.357C752.192,692.282 752.207,692.206 752.221,692.13L747.033,691.126C747.019,691.199 747.005,691.272 746.991,691.345L752.177,692.357ZM752.718,689.45C752.732,689.374 752.745,689.298 752.758,689.222L747.554,688.308C747.541,688.382 747.528,688.455 747.515,688.529L752.718,689.45ZM753.208,686.533C753.22,686.457 753.232,686.381 753.244,686.305L748.025,685.482C748.013,685.556 748.001,685.629 747.99,685.703L753.208,686.533ZM753.647,683.609C753.658,683.533 753.669,683.456 753.679,683.38L748.446,682.648C748.436,682.722 748.425,682.796 748.415,682.87L753.647,683.609ZM754.035,680.677C754.045,680.601 754.054,680.524 754.063,680.448L748.818,679.807C748.809,679.881 748.8,679.956 748.791,680.03L754.035,680.677ZM754.372,677.739C754.38,677.662 754.388,677.586 754.396,677.509L749.141,676.961C749.133,677.035 749.125,677.109 749.117,677.183L754.372,677.739ZM754.658,674.796C754.664,674.719 754.671,674.642 754.678,674.565L749.413,674.108C749.407,674.183 749.4,674.257 749.394,674.331L754.658,674.796ZM754.892,671.848C754.897,671.771 754.902,671.694 754.908,671.617L749.636,671.252C749.631,671.327 749.626,671.401 749.62,671.475L754.892,671.848ZM755.074,668.896C755.078,668.819 755.082,668.742 755.086,668.665L749.809,668.392C749.805,668.467 749.801,668.541 749.797,668.616L755.074,668.896ZM755.205,665.942C755.208,665.865 755.211,665.788 755.213,665.711L749.932,665.53C749.929,665.604 749.927,665.679 749.924,665.754L755.205,665.942ZM755.285,662.985C755.286,662.908 755.287,662.831 755.289,662.754L750.005,662.666C750.004,662.74 750.002,662.815 750.001,662.889L755.285,662.985ZM755.312,660.028C755.312,659.951 755.312,659.874 755.312,659.797L750.028,659.801C750.028,659.875 750.028,659.95 750.028,660.025L755.312,660.028ZM755.289,657.071C755.287,656.994 755.286,656.917 755.285,656.84L750.001,656.936C750.002,657.01 750.004,657.085 750.005,657.16L755.289,657.071ZM755.213,654.115C755.211,654.038 755.208,653.961 755.205,653.884L749.924,654.072C749.927,654.146 749.929,654.221 749.932,654.295L755.213,654.115ZM755.086,651.16C755.082,651.083 755.078,651.006 755.074,650.929L749.797,651.21C749.801,651.284 749.805,651.359 749.809,651.433L755.086,651.16ZM754.908,648.208C754.902,648.131 754.897,648.055 754.892,647.978L749.62,648.35C749.626,648.424 749.631,648.499 749.636,648.573L754.908,648.208ZM754.678,645.26C754.671,645.183 754.664,645.106 754.658,645.03L749.394,645.494C749.4,645.568 749.407,645.642 749.413,645.717L754.678,645.26ZM754.396,642.316C754.388,642.239 754.38,642.163 754.372,642.086L749.117,642.642C749.125,642.716 749.133,642.791 749.141,642.865L754.396,642.316ZM754.063,639.377C754.054,639.301 754.045,639.225 754.035,639.148L748.791,639.796C748.8,639.87 748.809,639.944 748.818,640.018L754.063,639.377ZM753.679,636.445C753.669,636.369 753.658,636.293 753.647,636.216L748.415,636.955C748.425,637.029 748.436,637.103 748.446,637.177L753.679,636.445ZM753.244,633.52C753.232,633.444 753.22,633.368 753.208,633.292L747.99,634.122C748.001,634.196 748.013,634.27 748.025,634.343L753.244,633.52ZM752.758,630.603C752.745,630.527 752.732,630.451 752.718,630.376L747.515,631.297C747.528,631.37 747.541,631.444 747.554,631.517L752.758,630.603ZM752.221,627.695C752.207,627.619 752.192,627.544 752.177,627.468L746.991,628.48C747.005,628.553 747.019,628.626 747.033,628.7L752.221,627.695ZM751.634,624.797C751.618,624.721 751.602,624.646 751.586,624.571L746.418,625.673C746.433,625.746 746.449,625.819 746.464,625.892L751.634,624.797ZM750.996,621.909C750.978,621.834 750.961,621.759 750.944,621.684L745.796,622.876C745.812,622.949 745.829,623.021 745.846,623.094L750.996,621.909ZM750.307,619.033C750.289,618.958 750.27,618.883 750.251,618.809L745.125,620.091C745.143,620.163 745.161,620.235 745.179,620.308L750.307,619.033ZM749.569,616.169C749.549,616.095 749.529,616.021 749.509,615.946L744.406,617.317C744.425,617.389 744.444,617.461 744.464,617.534L749.569,616.169ZM748.78,613.319C748.759,613.245 748.738,613.171 748.717,613.097L743.638,614.557C743.659,614.629 743.679,614.7 743.7,614.772L748.78,613.319ZM747.942,610.483C747.92,610.409 747.897,610.336 747.875,610.262L742.822,611.81C742.844,611.882 742.866,611.953 742.888,612.025L747.942,610.483ZM747.055,607.662C747.031,607.589 747.007,607.515 746.984,607.442L741.959,609.079C741.982,609.15 742.005,609.22 742.028,609.291L747.055,607.662ZM746.119,604.857C746.094,604.784 746.068,604.711 746.043,604.638L741.048,606.362C741.072,606.433 741.097,606.503 741.121,606.574L746.119,604.857ZM745.133,602.068C745.107,601.996 745.081,601.924 745.054,601.851L740.09,603.662C740.115,603.732 740.141,603.802 740.166,603.872L745.133,602.068ZM744.1,599.298C744.072,599.226 744.044,599.154 744.017,599.082L739.085,600.979C739.111,601.049 739.138,601.118 739.165,601.188L744.1,599.298ZM743.018,596.546C742.989,596.474 742.96,596.403 742.931,596.331L738.033,598.314C738.061,598.383 738.089,598.453 738.117,598.522L743.018,596.546ZM741.888,593.813C741.858,593.742 741.828,593.671 741.797,593.6L736.935,595.668C736.964,595.737 736.993,595.805 737.022,595.874L741.888,593.813ZM740.71,591.1C740.679,591.029 740.648,590.959 740.616,590.889L735.79,593.041C735.821,593.109 735.851,593.178 735.881,593.246L740.71,591.1ZM739.486,588.408C739.453,588.338 739.421,588.268 739.388,588.199L734.6,590.435C734.632,590.503 734.664,590.57 734.695,590.638L739.486,588.408ZM738.214,585.738C738.181,585.669 738.147,585.599 738.113,585.53L733.365,587.85C733.398,587.917 733.431,587.984 733.463,588.051L738.214,585.738ZM736.897,583.09C736.862,583.022 736.827,582.953 736.792,582.885L732.085,585.287C732.119,585.353 732.153,585.42 732.187,585.486L736.897,583.09ZM735.533,580.466C735.497,580.398 735.461,580.33 735.425,580.262L730.76,582.746C730.796,582.812 730.831,582.878 730.866,582.944L735.533,580.466ZM734.124,577.866C734.086,577.799 734.049,577.732 734.012,577.664L729.392,580.229C729.428,580.295 729.464,580.36 729.5,580.425L734.124,577.866ZM732.669,575.292C732.631,575.225 732.592,575.158 732.554,575.091L727.979,577.737C728.016,577.801 728.054,577.866 728.091,577.931L732.669,575.292ZM731.17,572.742C731.13,572.676 731.091,572.61 731.051,572.544L726.523,575.269C726.562,575.333 726.6,575.397 726.639,575.461L731.17,572.742ZM729.627,570.22C729.586,570.155 729.545,570.089 729.504,570.024L725.025,572.827C725.064,572.89 725.104,572.954 725.143,573.017L729.627,570.22ZM728.039,567.725C727.997,567.66 727.955,567.595 727.913,567.531L723.484,570.412C723.524,570.474 723.565,570.537 723.606,570.6L728.039,567.725ZM726.409,565.257C726.366,565.194 726.323,565.13 726.28,565.066L721.901,568.024C721.942,568.086 721.984,568.148 722.026,568.209L726.409,565.257ZM724.735,562.819C724.691,562.756 724.647,562.693 724.603,562.63L720.276,565.664C720.319,565.725 720.362,565.786 720.405,565.847L724.735,562.819ZM723.02,560.41C722.974,560.348 722.929,560.286 722.884,560.223L718.611,563.332C718.655,563.393 718.699,563.453 718.742,563.514L723.02,560.41ZM721.262,558.032C721.216,557.97 721.17,557.909 721.123,557.847L716.905,561.03C716.95,561.09 716.995,561.15 717.04,561.209L721.262,558.032ZM719.464,555.685C719.416,555.624 719.369,555.563 719.321,555.502L715.159,558.759C715.205,558.817 715.251,558.876 715.297,558.935L719.464,555.685ZM717.624,553.369C717.576,553.309 717.527,553.249 717.479,553.189L713.374,556.518C713.421,556.576 713.468,556.634 713.515,556.692L717.624,553.369ZM715.745,551.086C715.695,551.027 715.646,550.968 715.596,550.909L711.55,554.308C711.598,554.365 711.646,554.422 711.694,554.48L715.745,551.086ZM713.826,548.836C713.775,548.777 713.725,548.719 713.674,548.661L709.688,552.131C709.737,552.187 709.786,552.243 709.835,552.3L713.826,548.836ZM711.868,546.619C711.816,546.562 711.765,546.505 711.713,546.448L707.788,549.986C707.838,550.042 707.888,550.097 707.938,550.153L711.868,546.619ZM709.871,544.438C709.819,544.381 709.766,544.325 709.714,544.269L705.851,547.875C705.902,547.93 705.953,547.984 706.004,548.039L709.871,544.438ZM707.837,542.291C707.783,542.236 707.73,542.18 707.676,542.125L703.878,545.798C703.93,545.852 703.981,545.906 704.033,545.959L707.837,542.291ZM705.766,540.18C705.711,540.126 705.657,540.072 705.602,540.017L701.868,543.756C701.921,543.809 701.974,543.862 702.026,543.915L705.766,540.18ZM703.658,538.106C703.602,538.053 703.547,537.999 703.492,537.946L699.823,541.749C699.877,541.801 699.931,541.853 699.984,541.905L703.658,538.106ZM701.514,536.069C701.458,536.017 701.401,535.964 701.345,535.912L697.744,539.779C697.798,539.83 697.853,539.88 697.907,539.931L701.514,536.069ZM699.335,534.07C699.278,534.018 699.221,533.967 699.163,533.915L695.63,537.845C695.686,537.894 695.741,537.944 695.796,537.994L699.335,534.07ZM697.121,532.109C697.063,532.058 697.005,532.008 696.947,531.957L693.483,535.948C693.539,535.996 693.596,536.045 693.652,536.094L697.121,532.109ZM694.874,530.187C694.815,530.137 694.756,530.087 694.697,530.038L691.303,534.088C691.36,534.136 691.417,534.184 691.475,534.232L694.874,530.187ZM692.593,528.304C692.534,528.255 692.474,528.207 692.414,528.159L689.091,532.267C689.149,532.314 689.207,532.361 689.265,532.408L692.593,528.304ZM690.28,526.461C690.22,526.414 690.159,526.366 690.098,526.319L686.848,530.485C686.906,530.531 686.965,530.577 687.024,530.623L690.28,526.461ZM687.935,524.659C687.874,524.613 687.812,524.567 687.751,524.52L684.573,528.743C684.633,528.788 684.693,528.833 684.752,528.878L687.935,524.659ZM685.559,522.899C685.497,522.853 685.435,522.808 685.372,522.763L682.269,527.04C682.33,527.084 682.39,527.128 682.45,527.172L685.559,522.899ZM683.153,521.18C683.09,521.136 683.027,521.091 682.964,521.047L679.936,525.378C679.997,525.421 680.058,525.464 680.119,525.506L683.153,521.18ZM680.717,519.503C680.653,519.46 680.589,519.417 680.525,519.374L677.573,523.757C677.635,523.799 677.697,523.84 677.759,523.882L680.717,519.503ZM678.252,517.869C678.187,517.827 678.123,517.785 678.058,517.743L675.183,522.177C675.246,522.218 675.308,522.258 675.371,522.299L678.252,517.869ZM675.759,516.279C675.694,516.238 675.628,516.197 675.563,516.156L672.766,520.639C672.829,520.679 672.892,520.718 672.955,520.758L675.759,516.279ZM673.238,514.732C673.172,514.692 673.106,514.652 673.04,514.613L670.322,519.144C670.386,519.182 670.45,519.221 670.514,519.259L673.238,514.732ZM670.691,513.229C670.625,513.19 670.558,513.152 670.491,513.114L667.852,517.692C667.917,517.729 667.981,517.766 668.046,517.804L670.691,513.229ZM668.118,511.771C668.051,511.734 667.984,511.696 667.916,511.659L665.358,516.283C665.423,516.319 665.488,516.355 665.553,516.391L668.118,511.771ZM665.52,510.358C665.452,510.322 665.384,510.286 665.316,510.25L662.839,514.917C662.905,514.952 662.971,514.987 663.036,515.022L665.52,510.358ZM662.898,508.991C662.83,508.956 662.761,508.921 662.692,508.886L660.297,513.596C660.363,513.63 660.43,513.664 660.496,513.698L662.898,508.991ZM660.253,507.67C660.183,507.636 660.114,507.602 660.045,507.568L657.732,512.319C657.799,512.352 657.866,512.385 657.933,512.417L660.253,507.67ZM657.584,506.395C657.514,506.362 657.445,506.329 657.375,506.297L655.145,511.088C655.212,511.119 655.28,511.151 655.348,511.182L657.584,506.395ZM654.894,505.166C654.824,505.135 654.753,505.104 654.683,505.072L652.537,509.901C652.605,509.932 652.673,509.962 652.741,509.992L654.894,505.166ZM652.183,503.985C652.112,503.955 652.041,503.925 651.97,503.895L649.909,508.761C649.977,508.79 650.046,508.819 650.115,508.848L652.183,503.985ZM649.451,502.852C649.38,502.823 649.309,502.794 649.237,502.765L647.261,507.666C647.33,507.694 647.399,507.722 647.469,507.75L649.451,502.852ZM646.701,501.766C646.629,501.738 646.557,501.711 646.485,501.683L644.595,506.618C644.664,506.644 644.734,506.671 644.804,506.698L646.701,501.766ZM643.931,500.728C643.859,500.702 643.787,500.676 643.714,500.649L641.91,505.616C641.98,505.642 642.05,505.667 642.121,505.693L643.931,500.728ZM641.144,499.739C641.072,499.714 640.999,499.689 640.926,499.664L639.209,504.662C639.279,504.686 639.35,504.71 639.421,504.735L641.144,499.739ZM638.34,498.799C638.267,498.775 638.194,498.751 638.121,498.728L636.491,503.754C636.562,503.777 636.633,503.801 636.704,503.824L638.34,498.799ZM635.521,497.908C635.447,497.885 635.373,497.863 635.3,497.84L633.758,502.895C633.83,502.917 633.901,502.938 633.972,502.96L635.521,497.908ZM632.686,497.066C632.612,497.045 632.538,497.024 632.464,497.002L631.011,502.083C631.082,502.103 631.154,502.124 631.226,502.145L632.686,497.066ZM629.837,496.274C629.762,496.254 629.688,496.234 629.613,496.214L628.249,501.319C628.321,501.338 628.393,501.358 628.465,501.377L629.837,496.274ZM626.974,495.531C626.899,495.513 626.825,495.494 626.75,495.476L625.475,500.604C625.547,500.622 625.62,500.64 625.692,500.658L626.974,495.531ZM624.099,494.839C624.024,494.822 623.949,494.804 623.874,494.787L622.689,499.937C622.761,499.954 622.834,499.97 622.907,499.987L624.099,494.839ZM621.212,494.197C621.137,494.181 621.061,494.165 620.986,494.149L619.891,499.319C619.964,499.334 620.037,499.35 620.11,499.365L621.212,494.197ZM618.315,493.605C618.239,493.591 618.163,493.576 618.088,493.561L617.083,498.749C617.156,498.763 617.23,498.778 617.303,498.792L618.315,493.605ZM615.407,493.065C615.331,493.051 615.256,493.038 615.18,493.024L614.266,498.229C614.339,498.242 614.413,498.255 614.486,498.268L615.407,493.065ZM612.491,492.574C612.415,492.562 612.339,492.55 612.263,492.538L611.439,497.758C611.513,497.77 611.587,497.781 611.661,497.793L612.491,492.574ZM609.566,492.135C609.49,492.125 609.414,492.114 609.337,492.103L608.606,497.337C608.68,497.347 608.753,497.357 608.827,497.368L609.566,492.135ZM606.635,491.747C606.558,491.738 606.482,491.729 606.405,491.719L605.765,496.965C605.839,496.974 605.913,496.983 605.987,496.992L606.635,491.747ZM603.696,491.411C603.62,491.402 603.543,491.394 603.467,491.386L602.918,496.642C602.992,496.65 603.066,496.658 603.141,496.666L603.696,491.411ZM600.753,491.125C600.676,491.118 600.6,491.112 600.523,491.105L600.066,496.37C600.14,496.376 600.215,496.382 600.289,496.389L600.753,491.125ZM597.805,490.891C597.728,490.886 597.651,490.88 597.575,490.875L597.21,496.147C597.284,496.152 597.358,496.157 597.433,496.162L597.805,490.891ZM594.853,490.709C594.776,490.704 594.7,490.7 594.623,490.696L594.35,495.974C594.424,495.978 594.499,495.981 594.573,495.985L594.853,490.709ZM591.899,490.578C591.822,490.575 591.745,490.572 591.668,490.569L591.487,495.851C591.562,495.853 591.636,495.856 591.711,495.859L591.899,490.578ZM588.943,490.498C588.866,490.497 588.789,490.495 588.712,490.494L588.623,495.778C588.698,495.779 588.772,495.78 588.847,495.782L588.943,490.498Z"/>
            </g>
        </g>
        <g id="Hour-Marks" serif:id="Hour Marks" transform="matrix(1.48781,0,0,1.48781,-288.618,-286.991)">
            <g transform="matrix(-1,1.22465e-16,-1.22465e-16,-1,1191.44,620.416)">
                <text x="581.88px" y="324.911px" style="font-family:'LTStaircase-Italic', 'LT Staircase';font-style:italic;font-size:37.139px;">00</text>
            </g>
            <g transform="matrix(-0.866025,-0.5,0.5,-0.866025,1096.03,916.288)">
                <text x="581.88px" y="324.911px" style="font-family:'LTStaircase-Italic', 'LT Staircase';font-style:italic;font-size:37.139px;">05</text>
            </g>
            <g transform="matrix(-0.5,-0.866025,0.866025,-0.5,861.87,1123.1)">
                <text x="581.88px" y="324.911px" style="font-family:'LTStaircase-Italic', 'LT Staircase';font-style:italic;font-size:37.139px;">10</text>
            </g>
            <g transform="matrix(6.12323e-17,-1,1,6.12323e-17,558.459,1184.35)">
                <text x="581.88px" y="324.911px" style="font-family:'LTStaircase-Italic', 'LT Staircase';font-style:italic;font-size:37.139px;">15</text>
            </g>
            <g transform="matrix(0.520743,-0.853713,0.853713,0.520743,254.388,1079.87)">
                <text x="581.88px" y="324.911px" style="font-family:'LTStaircase-Italic', 'LT Staircase';font-style:italic;font-size:37.139px;">20</text>
            </g>
            <g transform="matrix(0.866025,-0.5,0.5,0.866025,54.8154,861.378)">
                <text x="581.88px" y="324.911px" style="font-family:'LTStaircase-Italic', 'LT Staircase';font-style:italic;font-size:37.139px;">25</text>
            </g>
            <g transform="matrix(1,0,0,1,-8.77254,556.861)">
                <text x="581.88px" y="324.911px" style="font-family:'LTStaircase-Italic', 'LT Staircase';font-style:italic;font-size:37.139px;">30</text>
            </g>
            <g transform="matrix(0.866025,0.5,-0.5,0.866025,85.8749,263.139)">
                <text x="581.88px" y="324.911px" style="font-family:'LTStaircase-Italic', 'LT Staircase';font-style:italic;font-size:37.139px;">35</text>
            </g>
            <g transform="matrix(0.5,0.866025,-0.866025,0.5,317.983,53.0185)">
                <text x="581.88px" y="324.911px" style="font-family:'LTStaircase-Italic', 'LT Staircase';font-style:italic;font-size:37.139px;">40</text>
            </g>
            <g transform="matrix(6.12323e-17,1,-1,6.12323e-17,623.691,-11.1737)">
                <text x="581.88px" y="324.911px" style="font-family:'LTStaircase-Italic', 'LT Staircase';font-style:italic;font-size:37.139px;">45</text>
            </g>
            <g transform="matrix(-0.5,0.866025,-0.866025,-0.5,917.042,85.53)">
                <text x="581.88px" y="324.911px" style="font-family:'LTStaircase-Italic', 'LT Staircase';font-style:italic;font-size:37.139px;">50</text>
            </g>
            <g transform="matrix(-0.866025,0.5,-0.5,-0.866025,1124.7,316.338)">
                <text x="581.88px" y="324.911px" style="font-family:'LTStaircase-Italic', 'LT Staircase';font-style:italic;font-size:37.139px;">55</text>
            </g>
        </g>
    </g>
</svg>
